<?xml version="1.0" standalone="no"?><!-- Generator: Gravit.io --><svg xmlns="http://www.w3.org/2000/svg" xmlns:xlink="http://www.w3.org/1999/xlink" style="isolation:isolate" viewBox="465 239.595 184 195.405" width="184" height="195.405"><g><circle vector-effect="non-scaling-stroke" cx="557.0000000000001" cy="342.9999999999999" r="89" fill="rgb(187,49,49)" stroke-width="6" stroke="rgb(0,0,0)" stroke-linejoin="round" stroke-linecap="butt" stroke-miterlimit="1.414"/><g><path d=" M 604.726 408.668 L 604.726 429.454 C 604.726 430.941 603.517 432.15 602.03 432.15 L 518.802 432.15 C 517.313 432.15 516.104 430.941 516.104 429.454 L 516.104 408.668 C 516.104 398.351 522.744 389.235 532.503 386.039 C 532.707 385.97 532.913 385.904 533.122 385.843 L 537.909 384.418 C 540.337 383.696 542.341 382.122 543.629 380.081 C 544.127 379.299 544.515 378.438 544.784 377.533 C 545.062 376.611 545.206 375.633 545.206 374.629 L 545.206 365.172 L 573.258 360.222 L 573.258 373.923 C 573.258 375.184 573.489 376.405 573.919 377.533 C 573.919 377.538 573.922 377.541 573.922 377.545 C 574.379 378.745 575.055 379.849 575.916 380.791 C 577.14 382.137 578.727 383.163 580.557 383.711 L 586.691 385.539 L 587.711 385.843 C 587.738 385.851 587.765 385.858 587.79 385.867 C 597.846 388.901 604.726 398.16 604.726 408.668 L 604.726 408.668 Z " fill="rgb(255,192,136)"/><path d=" M 587.79 385.867 C 587.765 385.86 587.738 385.852 587.711 385.843 L 586.693 385.539 L 580.557 383.711 C 578.729 383.164 577.14 382.137 575.916 380.792 C 575.057 379.849 574.38 378.747 573.922 377.545 C 573.922 377.541 573.919 377.538 573.919 377.533 C 573.49 376.405 573.258 375.184 573.258 373.923 L 573.258 360.222 L 545.206 365.172 L 545.206 366.422 L 564.056 363.096 L 564.056 376.797 C 564.056 378.06 564.287 379.279 564.717 380.408 C 564.717 380.412 564.721 380.415 564.721 380.42 C 565.177 381.621 565.854 382.723 566.713 383.665 C 567.937 385.011 569.526 386.039 571.355 386.586 L 577.49 388.413 L 578.51 388.718 C 578.535 388.726 578.562 388.734 578.589 388.741 C 588.644 391.774 595.524 401.035 595.524 411.542 L 595.524 432.15 L 602.03 432.15 C 603.517 432.15 604.726 430.941 604.726 429.454 L 604.726 408.668 C 604.726 398.16 597.846 388.901 587.79 385.867 Z " fill="rgb(244,163,122)"/><path d=" M 573.258 360.222 L 573.258 368.117 C 568.031 371.885 561.614 374.102 554.676 374.102 C 551.381 374.102 548.198 373.599 545.206 372.672 L 545.206 365.172 L 573.258 360.222 Z " fill="rgb(244,163,122)"/><path d=" M 554.677 368.969 C 537.098 368.969 522.847 354.716 522.847 337.137 L 522.847 275.885 L 586.509 275.885 L 586.509 337.137 C 586.509 354.716 572.259 368.969 554.677 368.969 Z " fill="rgb(255,192,136)"/><path d=" M 589.162 333.037 L 586.509 333.037 L 586.509 311.334 L 589.162 311.334 C 595.155 311.334 600.013 316.192 600.013 322.185 C 600.013 328.178 595.155 333.037 589.162 333.037 Z " fill="rgb(244,163,122)"/><path d=" M 558.737 389.775 L 548.088 394.918 L 534.522 389.775 L 532.503 386.039 C 532.707 385.97 532.913 385.904 533.122 385.843 L 537.909 384.418 C 540.337 383.696 542.341 382.122 543.629 380.081 C 544.127 379.299 544.515 378.438 544.784 377.533 L 544.922 377.533 C 545.724 377.508 551.805 377.417 555.807 382.249 C 558.263 385.213 558.653 388.479 558.737 389.775 Z " fill="rgb(150,160,239)"/><path d=" M 587.79 385.867 L 584.354 389.775 L 570.79 394.918 L 560.138 389.775 C 560.223 388.479 560.614 385.213 563.071 382.247 C 567.012 377.489 572.973 377.507 573.919 377.533 C 573.919 377.538 573.922 377.541 573.922 377.545 C 574.379 378.747 575.055 379.849 575.916 380.792 C 577.14 382.137 578.729 383.164 580.557 383.711 L 586.693 385.539 L 587.711 385.843 C 587.738 385.852 587.765 385.86 587.79 385.867 L 587.79 385.867 Z " fill="rgb(150,160,239)"/><path d=" M 604.726 408.668 L 604.726 418.807 L 587.954 418.807 L 587.954 432.15 L 533.4 432.15 L 533.4 418.807 L 516.104 418.807 L 516.104 408.668 C 516.104 398.134 523.026 388.85 533.123 385.843 L 537.909 384.418 C 541.25 386.27 548.951 389.953 559.379 389.767 C 569.745 389.581 577.277 385.673 580.557 383.711 L 587.711 385.843 C 597.807 388.85 604.726 398.134 604.726 408.668 L 604.726 408.668 Z " fill="rgb(247,247,247)"/><path d=" M 586.509 311.334 L 581.936 311.334 C 579.35 311.334 577.254 309.241 577.254 306.657 L 577.254 305.971 C 577.254 304.643 576.731 303.37 575.798 302.423 L 570.385 296.941 C 569.451 295.995 568.928 294.72 568.928 293.393 L 568.928 288.031 L 586.509 288.031 L 586.509 311.334 Z " fill="rgb(113,85,57)"/><path d=" M 593.255 251.289 C 593.087 246.324 588.871 242.446 583.902 242.446 L 525.219 242.446 C 520.207 242.446 515.968 246.385 515.854 251.395 C 515.776 254.826 517.583 257.839 520.313 259.474 C 521.887 260.418 522.847 262.122 522.847 263.957 L 522.847 299.681 L 586.509 299.681 L 586.509 263.808 C 586.509 262.023 587.405 260.342 588.922 259.401 C 591.611 257.733 593.373 254.714 593.255 251.289 Z " fill="rgb(239,239,239)"/><path d=" M 593.257 251.289 C 593.087 246.324 588.871 242.446 583.902 242.446 L 571.965 242.446 C 576.935 242.446 581.151 246.322 581.32 251.289 C 581.438 254.714 579.675 257.733 576.986 259.401 C 575.47 260.342 574.574 262.023 574.574 263.808 L 574.574 299.681 L 586.509 299.681 L 586.509 263.808 C 586.509 262.023 587.405 260.342 588.922 259.401 C 591.611 257.733 593.373 254.714 593.257 251.289 Z " fill="rgb(225,225,227)"/><path d=" M 522.847 284.81 L 586.509 284.81 L 586.509 299.681 L 522.847 299.681 L 522.847 284.81 Z " fill="rgb(225,225,227)"/><path d=" M 574.568 284.81 L 586.503 284.81 L 586.503 299.681 L 574.568 299.681 L 574.568 284.81 Z " fill="rgb(200,198,205)"/><path d=" M 587.79 385.867 C 587.765 385.86 587.738 385.852 587.711 385.843 L 586.693 385.539 L 580.557 383.711 C 579.021 384.63 576.554 385.974 573.299 387.164 L 577.49 388.413 L 578.51 388.718 C 578.535 388.725 578.562 388.732 578.589 388.74 C 588.644 391.774 595.524 401.035 595.524 411.542 L 595.524 418.805 L 604.726 418.805 L 604.726 408.668 C 604.726 398.16 597.846 388.901 587.79 385.867 Z " fill="rgb(225,225,227)"/><path d=" M 602.29 392.729 C 598.831 388.09 594.071 384.764 588.525 383.112 L 581.374 380.98 C 580.085 380.594 578.927 379.865 578.022 378.872 C 577.551 378.355 577.16 377.778 576.855 377.146 C 576.794 376.718 576.634 376.318 576.402 375.973 C 576.209 375.312 576.109 374.625 576.109 373.923 L 576.109 364.402 C 584.431 357.849 589.36 347.766 589.36 337.137 L 589.36 335.884 C 596.824 335.777 602.865 329.675 602.865 322.187 C 602.865 314.697 596.824 308.596 589.36 308.489 L 589.36 263.808 C 589.36 262.991 589.768 262.231 590.424 261.824 C 594.075 259.559 596.252 255.486 596.106 251.193 C 595.888 244.798 590.412 239.595 583.902 239.595 L 579.801 239.595 C 578.226 239.595 576.95 240.872 576.95 242.446 C 576.95 244.02 578.226 245.298 579.801 245.298 L 583.902 245.298 C 587.374 245.298 590.293 248.029 590.406 251.386 C 590.484 253.645 589.339 255.787 587.419 256.977 C 585.101 258.416 583.659 261.033 583.659 263.808 L 583.659 281.957 L 532.737 281.957 C 531.163 281.957 529.887 283.233 529.887 284.807 C 529.887 286.382 531.163 287.658 532.737 287.658 L 583.657 287.658 L 583.657 296.831 L 578.75 296.831 L 578.75 293.998 C 578.75 292.424 577.474 291.148 575.899 291.148 C 574.325 291.148 573.047 292.424 573.047 293.998 L 573.047 296.831 L 568.14 296.831 L 568.14 293.998 C 568.14 292.424 566.863 291.148 565.288 291.148 C 563.713 291.148 562.437 292.424 562.437 293.998 L 562.437 296.831 L 557.529 296.831 L 557.529 293.998 C 557.529 292.424 556.253 291.148 554.679 291.148 C 553.103 291.148 551.827 292.424 551.827 293.998 L 551.827 296.831 L 546.919 296.831 L 546.919 293.998 C 546.919 292.424 545.643 291.148 544.069 291.148 C 542.493 291.148 541.217 292.424 541.217 293.998 L 541.217 296.831 L 536.309 296.831 L 536.309 293.998 C 536.309 292.424 535.033 291.148 533.459 291.148 C 531.883 291.148 530.607 292.424 530.607 293.998 L 530.607 296.831 L 525.699 296.831 L 525.699 275.885 C 525.699 275.882 525.699 275.879 525.699 275.877 L 525.699 263.957 C 525.699 261.132 524.196 258.477 521.778 257.028 C 519.831 255.862 518.653 253.728 518.705 251.461 C 518.783 248.062 521.705 245.298 525.22 245.298 L 568.143 245.298 C 569.717 245.298 570.993 244.02 570.993 242.446 C 570.993 240.872 569.717 239.595 568.141 239.595 L 525.219 239.595 C 518.631 239.595 513.151 244.86 513.003 251.331 C 512.905 255.644 515.144 259.702 518.847 261.92 C 519.555 262.344 519.995 263.125 519.995 263.958 L 519.995 299.683 C 519.995 299.684 519.997 299.687 519.997 299.69 L 519.997 311.332 C 519.997 312.908 521.273 314.184 522.847 314.184 C 524.421 314.184 525.697 312.906 525.697 311.332 L 525.697 302.533 L 533.453 302.533 L 533.457 302.533 L 533.46 302.533 L 544.064 302.533 L 544.067 302.533 L 544.072 302.533 L 554.674 302.533 L 554.677 302.533 L 554.682 302.533 L 565.285 302.533 L 565.288 302.533 L 565.292 302.533 L 571.899 302.533 L 573.769 304.425 C 574.177 304.838 574.402 305.388 574.402 305.973 L 574.402 306.657 C 574.402 310.807 577.782 314.184 581.937 314.184 L 583.657 314.184 L 583.657 337.137 C 583.657 346.433 579.148 355.232 571.591 360.672 C 566.647 364.235 560.799 366.118 554.676 366.118 C 552.161 366.118 549.677 365.798 547.284 365.163 C 534.575 361.825 525.697 350.299 525.697 337.137 L 525.697 322.427 C 525.697 320.853 524.421 319.576 522.847 319.576 C 521.273 319.576 519.997 320.853 519.997 322.427 L 519.997 337.137 C 519.997 351.659 529.031 364.508 542.356 369.558 L 542.356 374.629 C 542.356 376.023 541.964 377.381 541.218 378.559 C 540.266 380.068 538.802 381.178 537.095 381.685 L 532.309 383.111 C 526.762 384.764 522 388.09 518.542 392.729 C 515.081 397.369 513.252 402.88 513.252 408.668 L 513.252 418.784 C 513.252 418.792 513.251 418.799 513.251 418.807 C 513.251 418.814 513.252 418.82 513.252 418.829 L 513.252 429.454 C 513.252 432.512 515.742 435 518.802 435 L 602.03 435 C 605.088 435 607.576 432.512 607.576 429.454 L 607.576 408.668 C 607.578 402.88 605.748 397.369 602.29 392.729 L 602.29 392.729 Z  M 597.163 322.185 C 597.163 326.531 593.68 330.078 589.36 330.184 L 589.36 314.187 C 593.68 314.293 597.163 317.841 597.163 322.185 Z  M 580.105 306.657 L 580.105 305.973 C 580.105 304.761 579.825 303.593 579.312 302.533 L 583.657 302.533 L 583.657 308.482 L 581.937 308.482 C 580.926 308.482 580.105 307.663 580.105 306.657 Z  M 546.04 381.605 C 546.159 381.414 546.269 381.219 546.38 381.023 C 551.815 382.906 553.535 384.086 553.834 384.311 C 554.439 384.97 554.914 385.796 555.26 386.776 C 550.88 386.408 547.071 385.359 543.96 384.127 C 544.75 383.382 545.451 382.537 546.04 381.605 L 546.04 381.605 Z  M 553.75 384.221 C 553.77 384.242 553.789 384.263 553.808 384.284 C 553.767 384.244 553.75 384.221 553.75 384.221 Z  M 572.159 380.452 C 572.625 381.26 573.174 382.016 573.806 382.711 C 574.074 383.006 574.359 383.282 574.651 383.55 C 571.652 384.867 567.974 386.042 563.712 386.592 C 563.97 385.657 564.445 384.627 565.297 383.646 C 567.326 381.314 570.301 380.639 572.159 380.452 Z  M 570.407 368.058 L 570.407 373.923 C 570.407 374.263 570.422 374.601 570.449 374.936 C 567.642 375.393 563.843 376.63 560.996 379.904 C 560.332 380.666 559.801 381.447 559.375 382.222 C 558.935 381.517 558.433 380.867 557.866 380.275 C 557.263 379.646 555.132 378.002 548.025 375.56 C 548.048 375.251 548.058 374.941 548.058 374.629 L 548.058 371.186 C 550.224 371.606 552.441 371.821 554.676 371.821 C 560.214 371.821 565.568 370.53 570.407 368.058 Z  M 518.954 421.657 L 530.549 421.657 L 530.549 429.298 L 518.954 429.298 L 518.954 421.657 Z  M 547.773 429.298 L 547.773 405.482 C 549.562 405.467 552.159 405.36 555.065 404.961 C 556.626 404.748 557.717 403.31 557.504 401.75 C 557.289 400.189 555.851 399.1 554.293 399.311 C 551.456 399.7 548.942 399.782 547.332 399.782 C 544.431 399.782 542.071 402.139 542.071 405.038 L 542.071 429.298 L 536.249 429.298 L 536.249 418.805 C 536.249 417.231 534.973 415.955 533.399 415.955 L 518.954 415.955 L 518.954 408.668 C 518.954 399.465 525.116 391.203 533.937 388.576 L 537.599 387.486 C 542.383 389.97 549.603 392.625 558.612 392.625 C 558.648 392.625 558.685 392.625 558.721 392.623 C 558.725 392.623 558.728 392.625 558.732 392.625 C 558.741 392.625 558.749 392.623 558.758 392.623 C 558.981 392.623 559.204 392.622 559.43 392.618 C 559.818 392.612 560.195 392.591 560.577 392.574 C 560.596 392.574 560.614 392.577 560.635 392.577 C 560.736 392.577 560.838 392.571 560.94 392.561 C 560.942 392.561 560.942 392.559 560.943 392.559 C 565.297 392.337 569.198 391.517 572.579 390.428 C 570.713 392.413 568.314 394.435 565.314 396.031 C 563.924 396.772 563.397 398.499 564.137 399.888 C 564.65 400.851 565.636 401.4 566.656 401.4 C 567.108 401.4 567.567 401.293 567.993 401.066 C 575.735 396.945 580.117 390.544 582.029 387.125 L 586.897 388.576 C 595.717 391.203 601.875 399.465 601.875 408.668 L 601.875 415.955 L 587.954 415.955 C 586.38 415.955 585.102 417.231 585.102 418.805 L 585.102 429.298 L 547.773 429.298 Z  M 590.804 429.298 L 590.804 421.657 L 601.875 421.657 L 601.875 429.298 L 590.804 429.298 Z " fill="rgb(0,0,0)"/><path d=" M 539.064 318.071 C 539.064 319.818 537.648 321.234 535.901 321.234 C 534.155 321.234 532.737 319.818 532.737 318.071 C 532.737 316.323 534.155 314.907 535.901 314.907 C 537.648 314.907 539.064 316.323 539.064 318.071 Z " fill="rgb(0,0,0)"/><path d=" M 564.377 318.071 C 564.377 319.818 562.96 321.234 561.213 321.234 C 559.466 321.234 558.05 319.818 558.05 318.071 C 558.05 316.323 559.466 314.907 561.213 314.907 C 562.96 314.907 564.377 316.323 564.377 318.071 Z " fill="rgb(0,0,0)"/><path d=" M 555.714 342.274 C 555.047 343.242 553.553 345.002 551.046 345.921 C 547.77 347.121 544.851 346.147 543.748 345.672 C 542.304 345.05 540.625 345.716 540.002 347.162 C 539.38 348.609 540.047 350.286 541.493 350.909 C 542.608 351.39 544.911 352.195 547.802 352.195 C 549.393 352.195 551.162 351.951 553.008 351.274 C 556.997 349.813 559.356 347.036 560.408 345.512 C 561.301 344.215 560.976 342.44 559.679 341.547 C 558.384 340.652 556.608 340.979 555.714 342.274 L 555.714 342.274 Z " fill="rgb(0,0,0)"/><path d=" M 557.54 411.423 C 557.54 413.17 556.124 414.586 554.376 414.586 C 552.629 414.586 551.213 413.17 551.213 411.423 C 551.213 409.675 552.629 408.259 554.376 408.259 C 556.124 408.259 557.54 409.675 557.54 411.423 Z " fill="rgb(0,0,0)"/><path d=" M 557.54 422.355 C 557.54 424.102 556.124 425.518 554.376 425.518 C 552.629 425.518 551.213 424.102 551.213 422.355 C 551.213 420.608 552.629 419.191 554.376 419.191 C 556.124 419.191 557.54 420.608 557.54 422.355 Z " fill="rgb(0,0,0)"/></g></g></svg>