<?xml version="1.0" standalone="no"?><!-- Generator: Gravit.io --><svg xmlns="http://www.w3.org/2000/svg" xmlns:xlink="http://www.w3.org/1999/xlink" style="isolation:isolate" viewBox="138 130 51.788 106.999" width="51.788" height="106.999"><g><g><path d=" M 188.227 222.58 L 188.227 233.962 C 188.227 234.776 187.565 235.438 186.751 235.438 L 141.177 235.438 C 140.362 235.438 139.7 234.776 139.7 233.962 L 139.7 222.58 C 139.7 216.931 143.336 211.939 148.679 210.189 C 148.791 210.151 148.904 210.115 149.018 210.082 L 151.639 209.301 C 152.969 208.906 154.066 208.044 154.772 206.927 C 155.044 206.498 155.257 206.027 155.404 205.532 C 155.556 205.026 155.635 204.491 155.635 203.941 L 155.635 198.763 L 170.996 196.052 L 170.996 203.554 C 170.996 204.245 171.122 204.914 171.358 205.532 C 171.358 205.534 171.36 205.536 171.36 205.538 C 171.61 206.195 171.98 206.799 172.451 207.315 C 173.121 208.052 173.991 208.614 174.992 208.915 L 178.352 209.915 L 178.91 210.082 C 178.925 210.086 178.939 210.09 178.953 210.095 C 184.459 211.756 188.227 216.826 188.227 222.58 L 188.227 222.58 Z " fill="rgb(255,192,136)"/><path d=" M 178.953 210.095 C 178.939 210.091 178.925 210.087 178.91 210.082 L 178.352 209.915 L 174.992 208.915 C 173.992 208.615 173.121 208.052 172.451 207.316 C 171.981 206.799 171.61 206.196 171.36 205.538 C 171.36 205.536 171.358 205.534 171.358 205.532 C 171.123 204.914 170.996 204.245 170.996 203.554 L 170.996 196.052 L 155.635 198.763 L 155.635 199.447 L 165.957 197.626 L 165.957 205.128 C 165.957 205.82 166.084 206.488 166.319 207.106 C 166.319 207.108 166.321 207.11 166.321 207.112 C 166.571 207.77 166.942 208.373 167.412 208.889 C 168.082 209.626 168.952 210.189 169.954 210.488 L 173.313 211.489 L 173.872 211.656 C 173.885 211.661 173.9 211.665 173.915 211.669 C 179.421 213.329 183.188 218.4 183.188 224.154 L 183.188 235.438 L 186.751 235.438 C 187.565 235.438 188.227 234.776 188.227 233.962 L 188.227 222.58 C 188.227 216.826 184.459 211.756 178.953 210.095 Z " fill="rgb(244,163,122)"/><path d=" M 170.996 196.052 L 170.996 200.376 C 168.134 202.439 164.62 203.652 160.821 203.652 C 159.017 203.652 157.274 203.377 155.635 202.87 L 155.635 198.763 L 170.996 196.052 Z " fill="rgb(244,163,122)"/><path d=" M 160.822 200.842 C 151.195 200.842 143.392 193.038 143.392 183.411 L 143.392 149.871 L 178.252 149.871 L 178.252 183.411 C 178.252 193.038 170.449 200.842 160.822 200.842 Z " fill="rgb(255,192,136)"/><path d=" M 179.704 181.166 L 178.252 181.166 L 178.252 169.282 L 179.704 169.282 C 182.986 169.282 185.646 171.943 185.646 175.224 C 185.646 178.506 182.986 181.166 179.704 181.166 Z " fill="rgb(244,163,122)"/><path d=" M 163.044 212.235 L 157.213 215.051 L 149.785 212.235 L 148.679 210.189 C 148.791 210.151 148.904 210.115 149.018 210.082 L 151.639 209.301 C 152.969 208.906 154.066 208.044 154.772 206.927 C 155.044 206.498 155.257 206.027 155.404 205.532 L 155.479 205.532 C 155.919 205.518 159.249 205.468 161.44 208.114 C 162.785 209.737 162.999 211.525 163.044 212.235 Z " fill="rgb(150,160,239)"/><path d=" M 178.953 210.095 L 177.072 212.235 L 169.645 215.051 L 163.812 212.235 C 163.858 211.525 164.072 209.737 165.418 208.113 C 167.576 205.507 170.84 205.517 171.358 205.532 C 171.358 205.534 171.36 205.536 171.36 205.538 C 171.61 206.196 171.98 206.799 172.451 207.316 C 173.121 208.052 173.992 208.615 174.992 208.915 L 178.352 209.915 L 178.91 210.082 C 178.925 210.087 178.939 210.091 178.953 210.095 L 178.953 210.095 Z " fill="rgb(150,160,239)"/><path d=" M 188.227 222.58 L 188.227 228.132 L 179.043 228.132 L 179.043 235.438 L 149.171 235.438 L 149.171 228.132 L 139.7 228.132 L 139.7 222.58 C 139.7 216.812 143.49 211.728 149.019 210.082 L 151.639 209.301 C 153.469 210.315 157.686 212.333 163.396 212.231 C 169.072 212.128 173.196 209.989 174.992 208.915 L 178.91 210.082 C 184.438 211.728 188.227 216.812 188.227 222.58 L 188.227 222.58 Z " fill="rgb(247,247,247)"/><path d=" M 178.252 169.282 L 175.748 169.282 C 174.332 169.282 173.184 168.136 173.184 166.721 L 173.184 166.346 C 173.184 165.618 172.898 164.921 172.387 164.403 L 169.423 161.401 C 168.912 160.883 168.625 160.185 168.625 159.458 L 168.625 156.522 L 178.252 156.522 L 178.252 169.282 Z " fill="rgb(113,85,57)"/><path d=" M 181.946 136.403 C 181.854 133.684 179.545 131.561 176.824 131.561 L 144.691 131.561 C 141.946 131.561 139.625 133.718 139.563 136.461 C 139.52 138.34 140.509 139.99 142.004 140.885 C 142.866 141.402 143.392 142.335 143.392 143.34 L 143.392 162.902 L 178.252 162.902 L 178.252 143.258 C 178.252 142.281 178.743 141.36 179.573 140.845 C 181.046 139.932 182.01 138.278 181.946 136.403 Z " fill="rgb(239,239,239)"/><path d=" M 181.947 136.403 C 181.854 133.684 179.545 131.561 176.824 131.561 L 170.288 131.561 C 173.01 131.561 175.318 133.683 175.41 136.403 C 175.475 138.278 174.51 139.932 173.037 140.845 C 172.207 141.36 171.716 142.281 171.716 143.258 L 171.716 162.902 L 178.252 162.902 L 178.252 143.258 C 178.252 142.281 178.743 141.36 179.573 140.845 C 181.046 139.932 182.01 138.278 181.947 136.403 Z " fill="rgb(225,225,227)"/><path d=" M 143.392 154.759 L 178.252 154.759 L 178.252 162.902 L 143.392 162.902 L 143.392 154.759 Z " fill="rgb(225,225,227)"/><path d=" M 171.713 154.759 L 178.249 154.759 L 178.249 162.902 L 171.713 162.902 L 171.713 154.759 Z " fill="rgb(200,198,205)"/><path d=" M 178.953 210.095 C 178.939 210.091 178.925 210.087 178.91 210.082 L 178.352 209.915 L 174.992 208.915 C 174.152 209.417 172.801 210.154 171.018 210.805 L 173.313 211.489 L 173.872 211.656 C 173.885 211.66 173.9 211.664 173.915 211.668 C 179.421 213.329 183.188 218.4 183.188 224.154 L 183.188 228.131 L 188.227 228.131 L 188.227 222.58 C 188.227 216.826 184.459 211.756 178.953 210.095 Z " fill="rgb(225,225,227)"/><path d=" M 186.893 213.853 C 184.999 211.312 182.393 209.491 179.356 208.586 L 175.44 207.419 C 174.734 207.208 174.1 206.808 173.605 206.265 C 173.347 205.981 173.133 205.666 172.965 205.319 C 172.932 205.085 172.845 204.866 172.717 204.677 C 172.612 204.315 172.557 203.939 172.557 203.554 L 172.557 198.341 C 177.114 194.753 179.813 189.232 179.813 183.411 L 179.813 182.726 C 183.9 182.667 187.208 179.326 187.208 175.225 C 187.208 171.124 183.9 167.783 179.813 167.725 L 179.813 143.258 C 179.813 142.811 180.037 142.394 180.396 142.172 C 182.395 140.932 183.587 138.701 183.507 136.35 C 183.388 132.849 180.389 130 176.824 130 L 174.579 130 C 173.716 130 173.018 130.699 173.018 131.561 C 173.018 132.423 173.716 133.122 174.579 133.122 L 176.824 133.122 C 178.726 133.122 180.324 134.618 180.386 136.456 C 180.428 137.693 179.801 138.866 178.75 139.518 C 177.481 140.305 176.691 141.739 176.691 143.258 L 176.691 153.196 L 148.808 153.196 C 147.946 153.196 147.247 153.895 147.247 154.757 C 147.247 155.619 147.946 156.318 148.808 156.318 L 176.69 156.318 L 176.69 161.341 L 174.003 161.341 L 174.003 159.79 C 174.003 158.928 173.304 158.229 172.442 158.229 C 171.58 158.229 170.881 158.928 170.881 159.79 L 170.881 161.341 L 168.193 161.341 L 168.193 159.79 C 168.193 158.928 167.494 158.229 166.631 158.229 C 165.769 158.229 165.071 158.928 165.071 159.79 L 165.071 161.341 L 162.383 161.341 L 162.383 159.79 C 162.383 158.928 161.684 158.229 160.822 158.229 C 159.96 158.229 159.261 158.928 159.261 159.79 L 159.261 161.341 L 156.573 161.341 L 156.573 159.79 C 156.573 158.928 155.875 158.229 155.013 158.229 C 154.15 158.229 153.451 158.928 153.451 159.79 L 153.451 161.341 L 150.764 161.341 L 150.764 159.79 C 150.764 158.928 150.065 158.229 149.203 158.229 C 148.34 158.229 147.641 158.928 147.641 159.79 L 147.641 161.341 L 144.954 161.341 L 144.954 149.871 C 144.954 149.87 144.954 149.868 144.954 149.867 L 144.954 143.34 C 144.954 141.793 144.131 140.339 142.807 139.545 C 141.741 138.907 141.096 137.739 141.124 136.497 C 141.167 134.636 142.767 133.122 144.692 133.122 L 168.195 133.122 C 169.057 133.122 169.756 132.423 169.756 131.561 C 169.756 130.699 169.057 130 168.194 130 L 144.691 130 C 141.083 130 138.083 132.882 138.002 136.426 C 137.948 138.788 139.174 141.01 141.202 142.225 C 141.59 142.456 141.83 142.884 141.83 143.341 L 141.83 162.902 C 141.83 162.903 141.831 162.905 141.831 162.907 L 141.831 169.281 C 141.831 170.144 142.53 170.843 143.392 170.843 C 144.254 170.843 144.953 170.143 144.953 169.281 L 144.953 164.463 L 149.199 164.463 L 149.202 164.463 L 149.203 164.463 L 155.01 164.463 L 155.012 164.463 L 155.014 164.463 L 160.82 164.463 L 160.822 164.463 L 160.824 164.463 L 166.63 164.463 L 166.631 164.463 L 166.634 164.463 L 170.252 164.463 L 171.276 165.499 C 171.499 165.725 171.623 166.027 171.623 166.347 L 171.623 166.721 C 171.623 168.994 173.473 170.843 175.748 170.843 L 176.69 170.843 L 176.69 183.411 C 176.69 188.502 174.221 193.32 170.083 196.299 C 167.376 198.25 164.173 199.281 160.821 199.281 C 159.444 199.281 158.084 199.105 156.773 198.758 C 149.814 196.93 144.953 190.619 144.953 183.411 L 144.953 175.357 C 144.953 174.494 144.254 173.796 143.392 173.796 C 142.53 173.796 141.831 174.494 141.831 175.357 L 141.831 183.411 C 141.831 191.363 146.778 198.399 154.075 201.164 L 154.075 203.941 C 154.075 204.705 153.86 205.448 153.452 206.093 C 152.93 206.919 152.128 207.528 151.194 207.805 L 148.573 208.586 C 145.536 209.491 142.928 211.312 141.034 213.853 C 139.14 216.393 138.138 219.411 138.138 222.58 L 138.138 228.12 C 138.138 228.124 138.137 228.128 138.137 228.132 C 138.137 228.136 138.138 228.139 138.138 228.144 L 138.138 233.962 C 138.138 235.637 139.501 236.999 141.177 236.999 L 186.751 236.999 C 188.425 236.999 189.788 235.637 189.788 233.962 L 189.788 222.58 C 189.789 219.411 188.787 216.393 186.893 213.853 L 186.893 213.853 Z  M 184.086 175.224 C 184.086 177.604 182.179 179.546 179.813 179.604 L 179.813 170.845 C 182.179 170.903 184.086 172.845 184.086 175.224 Z  M 174.745 166.721 L 174.745 166.347 C 174.745 165.683 174.592 165.044 174.311 164.463 L 176.69 164.463 L 176.69 167.721 L 175.748 167.721 C 175.195 167.721 174.745 167.272 174.745 166.721 Z  M 156.092 207.761 C 156.157 207.657 156.217 207.55 156.278 207.443 C 159.254 208.474 160.196 209.119 160.36 209.243 C 160.691 209.604 160.951 210.056 161.141 210.593 C 158.742 210.391 156.657 209.817 154.953 209.142 C 155.386 208.734 155.769 208.271 156.092 207.761 L 156.092 207.761 Z  M 160.314 209.194 C 160.324 209.205 160.335 209.217 160.346 209.228 C 160.323 209.206 160.314 209.194 160.314 209.194 Z  M 170.394 207.13 C 170.649 207.572 170.95 207.986 171.296 208.367 C 171.443 208.528 171.599 208.679 171.759 208.826 C 170.116 209.547 168.103 210.19 165.769 210.492 C 165.91 209.98 166.17 209.416 166.636 208.879 C 167.747 207.602 169.377 207.232 170.394 207.13 Z  M 169.435 200.343 L 169.435 203.554 C 169.435 203.741 169.443 203.926 169.458 204.11 C 167.92 204.359 165.84 205.037 164.281 206.83 C 163.918 207.247 163.627 207.675 163.394 208.099 C 163.153 207.713 162.878 207.357 162.568 207.033 C 162.237 206.688 161.071 205.788 157.179 204.451 C 157.191 204.282 157.197 204.112 157.197 203.941 L 157.197 202.056 C 158.383 202.286 159.597 202.403 160.821 202.403 C 163.853 202.403 166.785 201.696 169.435 200.343 Z  M 141.261 229.693 L 147.609 229.693 L 147.609 233.877 L 141.261 233.877 L 141.261 229.693 Z  M 157.041 233.877 L 157.041 220.836 C 158.021 220.827 159.443 220.769 161.034 220.551 C 161.889 220.434 162.486 219.646 162.369 218.792 C 162.252 217.938 161.464 217.341 160.611 217.457 C 159.058 217.67 157.681 217.715 156.8 217.715 C 155.211 217.715 153.919 219.005 153.919 220.592 L 153.919 233.877 L 150.731 233.877 L 150.731 228.131 C 150.731 227.269 150.032 226.57 149.17 226.57 L 141.261 226.57 L 141.261 222.58 C 141.261 217.541 144.634 213.017 149.465 211.578 L 151.47 210.982 C 154.089 212.342 158.043 213.795 162.976 213.795 C 162.996 213.795 163.016 213.795 163.036 213.795 C 163.038 213.795 163.04 213.795 163.042 213.795 C 163.047 213.795 163.051 213.795 163.056 213.795 C 163.178 213.795 163.3 213.794 163.424 213.791 C 163.636 213.788 163.843 213.777 164.052 213.768 C 164.062 213.768 164.072 213.769 164.084 213.769 C 164.139 213.769 164.195 213.766 164.251 213.76 C 164.252 213.76 164.252 213.76 164.253 213.76 C 166.636 213.638 168.773 213.189 170.624 212.592 C 169.602 213.68 168.289 214.786 166.646 215.661 C 165.885 216.066 165.596 217.012 166.001 217.773 C 166.282 218.3 166.823 218.6 167.381 218.6 C 167.628 218.6 167.88 218.542 168.113 218.418 C 172.352 216.161 174.752 212.656 175.799 210.784 L 178.464 211.578 C 183.294 213.017 186.666 217.541 186.666 222.58 L 186.666 226.57 L 179.043 226.57 C 178.181 226.57 177.481 227.269 177.481 228.131 L 177.481 233.877 L 157.041 233.877 Z  M 180.604 233.877 L 180.604 229.693 L 186.666 229.693 L 186.666 233.877 L 180.604 233.877 Z " fill="rgb(0,0,0)"/><path d=" M 152.272 172.971 C 152.272 173.928 151.497 174.703 150.54 174.703 C 149.584 174.703 148.808 173.928 148.808 172.971 C 148.808 172.014 149.584 171.239 150.54 171.239 C 151.497 171.239 152.272 172.014 152.272 172.971 Z " fill="rgb(0,0,0)"/><path d=" M 166.133 172.971 C 166.133 173.928 165.357 174.703 164.4 174.703 C 163.444 174.703 162.668 173.928 162.668 172.971 C 162.668 172.014 163.444 171.239 164.4 171.239 C 165.357 171.239 166.133 172.014 166.133 172.971 Z " fill="rgb(0,0,0)"/><path d=" M 161.389 186.224 C 161.024 186.754 160.206 187.718 158.833 188.221 C 157.04 188.878 155.441 188.345 154.837 188.085 C 154.046 187.744 153.127 188.109 152.786 188.901 C 152.445 189.693 152.81 190.611 153.602 190.953 C 154.213 191.216 155.474 191.657 157.057 191.657 C 157.928 191.657 158.897 191.523 159.907 191.153 C 162.092 190.353 163.383 188.832 163.96 187.998 C 164.449 187.287 164.271 186.315 163.56 185.826 C 162.851 185.336 161.879 185.515 161.389 186.224 L 161.389 186.224 Z " fill="rgb(0,0,0)"/><path d=" M 162.389 224.089 C 162.389 225.045 161.613 225.821 160.657 225.821 C 159.7 225.821 158.924 225.045 158.924 224.089 C 158.924 223.132 159.7 222.356 160.657 222.356 C 161.613 222.356 162.389 223.132 162.389 224.089 Z " fill="rgb(0,0,0)"/><path d=" M 162.389 230.075 C 162.389 231.032 161.613 231.807 160.657 231.807 C 159.7 231.807 158.924 231.032 158.924 230.075 C 158.924 229.118 159.7 228.343 160.657 228.343 C 161.613 228.343 162.389 229.118 162.389 230.075 Z " fill="rgb(0,0,0)"/></g></g></svg>