<?xml version="1.0" standalone="no"?><!-- Generator: Gravit.io --><svg xmlns="http://www.w3.org/2000/svg" xmlns:xlink="http://www.w3.org/1999/xlink" style="isolation:isolate" viewBox="939 157.728 265 228.272" width="265" height="228.272"><g><g><path d=" M 1042.033 351.147 L 1039.971 354.52 C 1031.242 349.191 1023.989 341.74 1018.896 332.866 C 1013.646 323.702 1010.886 313.32 1010.892 302.76 C 1010.886 296.91 1011.729 291.099 1013.396 285.493 C 1015.003 280.078 1017.368 274.913 1020.412 270.157 C 1026.466 260.697 1035.017 253.094 1045.122 248.2 L 1046.848 251.757 C 1037.395 256.335 1029.397 263.444 1023.745 272.285 C 1020.892 276.731 1018.686 281.554 1017.184 286.613 C 1015.629 291.857 1014.838 297.292 1014.845 302.76 C 1014.838 312.628 1017.414 322.332 1022.322 330.896 C 1027.085 339.197 1033.864 346.16 1042.033 351.147 Z " fill="rgb(0,0,0)"/><path d=" M 1094.142 250.828 L 1095.723 247.205 C 1106.389 251.862 1115.487 259.491 1121.943 269.169 C 1125.191 274.03 1127.714 279.334 1129.433 284.913 C 1131.212 290.697 1132.114 296.712 1132.108 302.76 C 1132.114 312.022 1129.993 321.159 1125.909 329.473 C 1121.956 337.497 1116.277 344.553 1109.288 350.133 L 1106.824 347.043 C 1113.359 341.825 1118.669 335.231 1122.364 327.728 C 1126.179 319.954 1128.162 311.416 1128.155 302.76 C 1128.162 297.107 1127.318 291.481 1125.658 286.079 C 1124.044 280.862 1121.686 275.908 1118.655 271.362 C 1112.621 262.311 1104.11 255.183 1094.142 250.828 Z " fill="rgb(0,0,0)"/><g><path d=" M 1106.391 342.2 C 1100.825 333.805 1090.392 336.145 1087.256 330.477 C 1087.077 330.153 1087.006 329.884 1086.916 329.593 C 1086.203 327.151 1086.592 323.316 1086.695 320.89 C 1092.956 315.959 1096.664 308.375 1096.664 300.379 L 1096.664 299.436 C 1102.28 299.356 1106.823 294.766 1106.823 289.131 C 1106.823 283.498 1102.28 278.907 1096.664 278.827 L 1096.664 245.215 C 1096.664 244.6 1096.971 244.028 1097.465 243.722 C 1100.212 242.018 1101.849 238.954 1101.739 235.724 C 1101.574 230.914 1097.456 227 1092.557 227 L 1089.473 227 C 1088.288 227 1087.328 227.96 1087.328 229.144 C 1087.328 230.329 1088.288 231.29 1089.473 231.29 L 1092.557 231.29 C 1095.17 231.29 1097.365 233.344 1097.451 235.87 C 1097.51 237.569 1096.648 239.181 1095.204 240.076 C 1093.459 241.158 1092.375 243.127 1092.375 245.215 L 1092.375 258.868 L 1054.068 258.868 C 1052.883 258.868 1051.923 259.828 1051.923 261.012 C 1051.923 262.197 1052.883 263.157 1054.068 263.157 L 1092.374 263.157 L 1092.374 270.057 L 1088.682 270.057 L 1088.682 267.927 C 1088.682 266.742 1087.722 265.782 1086.538 265.782 C 1085.353 265.782 1084.392 266.742 1084.392 267.927 L 1084.392 270.057 L 1080.7 270.057 L 1080.7 267.927 C 1080.7 266.742 1079.739 265.782 1078.555 265.782 C 1077.371 265.782 1076.411 266.742 1076.411 267.927 L 1076.411 270.057 L 1072.719 270.057 L 1072.719 267.927 C 1072.719 266.742 1071.759 265.782 1070.573 265.782 C 1069.389 265.782 1068.429 266.742 1068.429 267.927 L 1068.429 270.057 L 1064.737 270.057 L 1064.737 267.927 C 1064.737 266.742 1063.777 265.782 1062.591 265.782 C 1061.407 265.782 1060.447 266.742 1060.447 267.927 L 1060.447 270.057 L 1056.755 270.057 L 1056.755 267.927 C 1056.755 266.742 1055.795 265.782 1054.609 265.782 C 1053.425 265.782 1052.465 266.742 1052.465 267.927 L 1052.465 270.057 L 1048.773 270.057 L 1048.773 254.3 C 1048.773 254.298 1048.773 254.296 1048.773 254.294 L 1048.773 245.327 C 1048.773 243.201 1047.642 241.204 1045.823 240.114 C 1044.359 239.237 1043.473 237.632 1043.512 235.926 C 1043.57 233.369 1045.768 231.29 1048.413 231.29 L 1080.703 231.29 C 1081.887 231.29 1082.847 230.329 1082.847 229.144 C 1082.847 227.96 1081.886 227 1080.702 227 L 1048.412 227 C 1043.456 227 1039.333 230.96 1039.222 235.829 C 1039.148 239.073 1040.833 242.126 1043.617 243.795 C 1044.151 244.113 1044.482 244.701 1044.482 245.328 L 1044.482 280.966 C 1044.482 282.152 1045.442 283.112 1046.628 283.112 C 1047.812 283.112 1048.772 282.151 1048.772 280.966 L 1048.772 274.347 L 1083.529 274.347 L 1084.935 275.77 C 1085.241 276.081 1085.411 276.495 1085.411 276.935 L 1085.411 277.449 C 1085.411 280.572 1087.953 283.112 1091.079 283.112 L 1092.374 283.112 L 1092.374 300.379 C 1092.374 307.373 1088.981 313.992 1083.296 318.084 C 1079.578 320.765 1075.177 322.181 1070.571 322.181 C 1068.679 322.181 1066.81 321.94 1065.01 321.462 C 1055.449 318.951 1048.772 310.281 1048.772 300.379 L 1048.772 289.313 C 1048.772 288.129 1047.811 287.168 1046.626 287.168 C 1045.442 287.168 1044.482 288.129 1044.482 289.313 L 1044.482 300.379 C 1044.482 311.304 1051.278 320.97 1061.303 324.769 C 1061.303 326.228 1061.445 327.757 1061.268 329.209 C 1060.938 331.918 1058.984 333.379 1056.562 334.125 C 1051.363 335.729 1046.767 337.667 1043.387 342.199 C 1040.784 345.691 1039.408 349.837 1039.408 354.191 L 1039.408 369.828 C 1039.408 372.128 1041.282 374 1043.584 374 L 1106.195 374 C 1108.496 374 1110.368 372.128 1110.368 369.828 L 1110.368 354.191 C 1110.368 349.837 1108.993 345.691 1106.391 342.2 L 1106.391 342.2 Z  M 1102.534 289.131 C 1102.534 292.4 1099.914 295.068 1096.664 295.148 L 1096.664 283.114 C 1099.914 283.194 1102.534 285.863 1102.534 289.131 Z  M 1089.701 277.449 L 1089.701 276.935 C 1089.701 276.023 1089.491 275.145 1089.105 274.347 L 1092.374 274.347 L 1092.374 278.822 L 1091.079 278.822 C 1090.32 278.822 1089.701 278.206 1089.701 277.449 Z  M 1064.33 333.394 C 1068.419 334.811 1069.713 335.698 1069.937 335.867 C 1070.394 336.363 1070.751 336.984 1071.012 337.722 C 1067.715 337.445 1064.851 336.656 1062.509 335.729 C 1063.104 335.168 1064.248 333.541 1064.33 333.394 L 1064.33 333.394 Z  M 1069.874 335.8 C 1069.89 335.816 1069.905 335.831 1069.919 335.847 C 1069.888 335.817 1069.874 335.8 1069.874 335.8 Z  M 1083.724 332.965 C 1084.075 333.573 1084.487 334.141 1084.962 334.664 C 1085.164 334.886 1085.379 335.093 1085.599 335.295 C 1083.343 336.285 1080.575 337.169 1077.37 337.583 C 1077.564 336.88 1077.921 336.105 1078.562 335.367 C 1080.088 333.613 1082.327 333.105 1083.724 332.965 Z  M 1082.406 323.64 L 1082.406 328.052 C 1082.406 328.308 1082.417 328.563 1082.438 328.815 C 1080.326 329.158 1077.467 330.089 1075.325 332.552 C 1074.827 333.125 1074.428 333.713 1074.106 334.296 C 1073.775 333.765 1073.397 333.276 1072.972 332.831 C 1072.518 332.358 1070.914 331.121 1065.569 329.284 C 1065.585 329.052 1065.594 328.818 1065.594 328.584 L 1065.594 325.993 C 1067.223 326.31 1068.891 326.471 1070.572 326.471 C 1074.738 326.471 1078.765 325.5 1082.406 323.64 Z  M 1043.699 363.962 L 1052.42 363.962 L 1052.42 369.71 L 1043.699 369.71 L 1043.699 363.962 Z  M 1065.379 369.71 L 1065.379 351.794 C 1066.724 351.783 1068.679 351.702 1070.865 351.402 C 1072.038 351.242 1072.859 350.16 1072.698 348.987 C 1072.538 347.812 1071.456 346.993 1070.283 347.152 C 1068.15 347.445 1066.257 347.506 1065.047 347.506 C 1062.865 347.506 1061.09 349.279 1061.09 351.46 L 1061.09 369.71 L 1056.71 369.71 L 1056.71 361.817 C 1056.71 360.633 1055.75 359.673 1054.566 359.673 L 1043.699 359.673 L 1043.699 354.191 C 1043.699 347.267 1048.333 341.052 1054.969 339.076 L 1057.725 338.256 C 1061.324 340.124 1066.755 342.122 1073.532 342.122 C 1073.56 342.122 1073.587 342.122 1073.615 342.121 C 1073.618 342.121 1073.62 342.122 1073.624 342.122 C 1073.629 342.122 1073.636 342.121 1073.643 342.121 C 1073.81 342.121 1073.978 342.12 1074.147 342.116 C 1074.439 342.112 1074.724 342.096 1075.011 342.084 C 1075.026 342.084 1075.039 342.086 1075.054 342.086 C 1075.13 342.086 1075.207 342.082 1075.285 342.074 C 1075.286 342.074 1075.286 342.073 1075.286 342.073 C 1078.562 341.905 1081.497 341.289 1084.04 340.469 C 1082.635 341.963 1080.832 343.483 1078.574 344.685 C 1077.529 345.242 1077.132 346.541 1077.689 347.586 C 1078.075 348.31 1078.816 348.723 1079.585 348.723 C 1079.924 348.723 1080.269 348.642 1080.589 348.472 C 1086.415 345.372 1089.711 340.556 1091.149 337.985 L 1094.811 339.076 C 1101.446 341.052 1106.079 347.267 1106.079 354.191 L 1106.079 359.673 L 1095.607 359.673 C 1094.421 359.673 1093.461 360.633 1093.461 361.817 L 1093.461 369.71 L 1065.379 369.71 Z  M 1097.75 369.71 L 1097.75 363.962 L 1106.078 363.962 L 1106.078 369.71 L 1097.75 369.71 Z " fill="rgb(0,0,0)"/><path d=" M 1058.827 286.036 C 1058.827 287.35 1057.762 288.416 1056.448 288.416 C 1055.133 288.416 1054.068 287.35 1054.068 286.036 C 1054.068 284.721 1055.133 283.656 1056.448 283.656 C 1057.762 283.656 1058.827 284.721 1058.827 286.036 Z " fill="rgb(0,0,0)"/><path d=" M 1077.87 286.036 C 1077.87 287.35 1076.804 288.416 1075.49 288.416 C 1074.175 288.416 1073.11 287.35 1073.11 286.036 C 1073.11 284.721 1074.175 283.656 1075.49 283.656 C 1076.804 283.656 1077.87 284.721 1077.87 286.036 Z " fill="rgb(0,0,0)"/><path d=" M 1071.353 304.244 C 1070.851 304.972 1069.727 306.296 1067.841 306.987 C 1065.376 307.89 1063.18 307.157 1062.351 306.8 C 1061.263 306.332 1060.002 306.833 1059.533 307.921 C 1059.064 309.009 1059.567 310.271 1060.654 310.739 C 1061.493 311.102 1063.226 311.707 1065.401 311.707 C 1066.597 311.707 1067.929 311.523 1069.317 311.014 C 1072.318 309.915 1074.092 307.826 1074.884 306.68 C 1075.556 305.704 1075.31 304.368 1074.336 303.696 C 1073.361 303.023 1072.024 303.269 1071.353 304.244 L 1071.353 304.244 Z " fill="rgb(0,0,0)"/><path d=" M 1072.726 356.263 C 1072.726 357.578 1071.661 358.643 1070.347 358.643 C 1069.032 358.643 1067.967 357.578 1067.967 356.263 C 1067.967 354.949 1069.032 353.883 1070.347 353.883 C 1071.661 353.883 1072.726 354.949 1072.726 356.263 Z " fill="rgb(0,0,0)"/><path d=" M 1072.726 364.487 C 1072.726 365.802 1071.661 366.867 1070.347 366.867 C 1069.032 366.867 1067.967 365.802 1067.967 364.487 C 1067.967 363.173 1069.032 362.107 1070.347 362.107 C 1071.661 362.107 1072.726 363.173 1072.726 364.487 Z " fill="rgb(0,0,0)"/></g></g><g><ellipse vector-effect="non-scaling-stroke" cx="1071.5" cy="292" rx="132.5" ry="94" fill="none"/><path d=" M 1156.652 216.068 L 1156.652 216.068 L 1156.652 216.068 Q 1156.513 216.266 1156.448 216.476 L 1156.448 216.476 L 1156.448 216.476 Q 1156.383 216.686 1156.31 216.753 L 1156.31 216.753 L 1156.31 216.753 Q 1156.238 216.819 1156.121 216.633 L 1156.121 216.633 L 1156.121 216.633 Q 1156.004 216.446 1155.763 215.851 L 1155.763 215.851 L 1155.136 215.358 L 1154.72 215.543 L 1154.72 215.543 Q 1154.606 215.594 1154.503 215.617 L 1154.503 215.617 L 1154.503 215.617 Q 1154.211 215.724 1154.091 215.505 L 1154.091 215.505 L 1154.091 215.505 Q 1153.971 215.286 1153.782 214.962 L 1153.782 214.962 L 1153.782 214.962 Q 1153.637 214.687 1153.562 214.595 L 1153.562 214.595 L 1153.562 214.595 Q 1153.488 214.503 1153.458 214.539 L 1153.458 214.539 L 1153.458 214.539 Q 1153.429 214.575 1153.385 214.731 L 1153.385 214.731 L 1153.385 214.731 Q 1153.34 214.886 1153.239 215.067 L 1153.239 215.067 L 1153.239 215.067 Q 1153.208 215.149 1152.992 215.301 L 1152.992 215.301 L 1152.992 215.301 Q 1152.776 215.454 1152.745 215.536 L 1152.745 215.536 L 1152.745 215.536 Q 1152.595 215.761 1152.517 215.637 L 1152.517 215.637 L 1152.517 215.637 Q 1152.44 215.512 1152.32 215.498 L 1152.32 215.498 L 1152.32 215.498 Q 1152.265 215.477 1152.177 215.38 L 1152.177 215.38 L 1152.177 215.38 Q 1152.116 215.293 1152.035 215.137 L 1152.035 215.137 L 1152.035 215.137 Q 1151.954 214.98 1151.912 214.681 L 1151.912 214.681 L 1151.912 214.681 Q 1151.908 214.366 1151.895 214.156 L 1151.895 214.156 L 1151.895 214.156 Q 1151.881 213.947 1151.873 213.724 L 1151.873 213.724 L 1151.873 213.724 Q 1151.865 213.501 1151.874 213.191 L 1151.874 213.191 L 1151.874 213.191 Q 1151.884 212.881 1151.943 212.401 L 1151.943 212.401 L 1151.943 212.401 Q 1152.03 211.932 1152.346 210.704 L 1152.346 210.704 L 1152.346 210.704 Q 1152.662 209.476 1153.135 207.759 L 1153.135 207.759 L 1153.135 207.759 Q 1153.609 206.042 1154.194 203.912 L 1154.194 203.912 L 1154.194 203.912 Q 1154.779 201.783 1155.438 199.462 L 1155.438 199.462 L 1155.438 199.462 Q 1156.096 197.142 1156.768 194.747 L 1156.768 194.747 L 1156.768 194.747 Q 1157.439 192.353 1158.085 190.106 L 1158.085 190.106 L 1158.085 190.106 Q 1158.731 187.859 1159.315 185.855 L 1159.315 185.855 L 1159.315 185.855 Q 1159.899 183.85 1160.331 182.322 L 1160.331 182.322 L 1138.357 205.942 L 1138.357 205.942 Q 1137.724 206.608 1137.039 207.082 L 1137.039 207.082 L 1137.039 207.082 Q 1136.354 207.556 1135.75 207.778 L 1135.75 207.778 L 1135.75 207.778 Q 1135.146 208.001 1134.67 207.974 L 1134.67 207.974 L 1134.67 207.974 Q 1134.193 207.948 1133.994 207.651 L 1133.994 207.651 L 1133.994 207.651 Q 1133.689 207.22 1133.582 206.723 L 1133.582 206.723 L 1133.582 206.723 Q 1133.475 206.227 1133.471 205.707 L 1133.471 205.707 L 1133.471 205.707 Q 1133.467 205.188 1133.52 204.643 L 1133.52 204.643 L 1133.52 204.643 Q 1133.573 204.098 1133.582 203.505 L 1133.582 203.505 L 1133.582 203.505 Q 1133.614 202.607 1133.864 200.694 L 1133.864 200.694 L 1133.864 200.694 Q 1134.115 198.781 1134.469 196.233 L 1134.469 196.233 L 1134.469 196.233 Q 1134.823 193.685 1135.29 190.679 L 1135.29 190.679 L 1135.29 190.679 Q 1135.758 187.672 1136.23 184.573 L 1136.23 184.573 L 1136.23 184.573 Q 1136.702 181.474 1137.173 178.5 L 1137.173 178.5 L 1137.173 178.5 Q 1137.644 175.526 1138.02 173.002 L 1138.02 173.002 L 1138.02 173.002 Q 1137.515 173.906 1136.513 175.608 L 1136.513 175.608 L 1136.513 175.608 Q 1135.512 177.311 1134.215 179.495 L 1134.215 179.495 L 1134.215 179.495 Q 1132.918 181.68 1131.421 184.18 L 1131.421 184.18 L 1131.421 184.18 Q 1129.924 186.68 1128.441 189.185 L 1128.441 189.185 L 1128.441 189.185 Q 1126.957 191.69 1125.564 194.042 L 1125.564 194.042 L 1125.564 194.042 Q 1124.171 196.394 1123.05 198.285 L 1123.05 198.285 L 1123.05 198.285 Q 1121.929 200.176 1121.186 201.413 L 1121.186 201.413 L 1121.186 201.413 Q 1120.442 202.649 1120.289 202.967 L 1120.289 202.967 L 1120.289 202.967 Q 1120.194 203.213 1119.979 203.444 L 1119.979 203.444 L 1119.979 203.444 Q 1119.813 203.631 1119.562 203.833 L 1119.562 203.833 L 1119.562 203.833 Q 1119.312 204.035 1118.971 204.186 L 1118.971 204.186 L 1118.971 204.186 Q 1118.721 204.184 1118.471 204.181 L 1118.471 204.181 L 1118.471 204.181 Q 1118.22 204.179 1118.088 204.034 L 1118.088 204.034 L 1118.088 204.034 Q 1117.928 203.878 1117.98 203.663 L 1117.98 203.663 L 1117.98 203.663 Q 1118.031 203.447 1117.821 203.178 L 1117.821 203.178 L 1117.821 203.178 Q 1117.71 202.978 1117.545 202.836 L 1117.545 202.836 L 1117.545 202.836 Q 1117.38 202.694 1117.332 202.33 L 1117.332 202.33 L 1117.332 202.33 Q 1117.405 202.138 1117.393 202.008 L 1117.393 202.008 L 1117.393 202.008 Q 1117.387 201.943 1117.37 201.905 L 1117.37 201.905 L 1117.37 201.905 Q 1117.353 201.867 1117.33 201.764 L 1117.33 201.764 L 1117.33 201.764 Q 1117.307 201.661 1117.139 201.282 L 1117.139 201.282 L 1117.139 201.282 Q 1117.101 200.891 1117.186 200.468 L 1117.186 200.468 L 1117.186 200.468 Q 1117.27 200.045 1117.638 199.497 L 1117.638 199.497 L 1117.638 199.497 Q 1117.767 199.326 1118.242 198.583 L 1118.242 198.583 L 1118.242 198.583 Q 1118.716 197.84 1119.396 196.767 L 1119.396 196.767 L 1119.396 196.767 Q 1120.077 195.695 1120.892 194.393 L 1120.892 194.393 L 1120.892 194.393 Q 1121.708 193.09 1122.54 191.746 L 1122.54 191.746 L 1122.54 191.746 Q 1123.372 190.403 1124.12 189.153 L 1124.12 189.153 L 1124.12 189.153 Q 1124.869 187.903 1125.433 186.927 L 1125.433 186.927 L 1125.433 186.927 Q 1125.945 186.088 1126.951 184.577 L 1126.951 184.577 L 1126.951 184.577 Q 1127.957 183.065 1129.229 181.232 L 1129.229 181.232 L 1129.229 181.232 Q 1130.501 179.398 1131.914 177.4 L 1131.914 177.4 L 1131.914 177.4 Q 1133.328 175.401 1134.643 173.538 L 1134.643 173.538 L 1134.643 173.538 Q 1135.957 171.674 1137.05 170.101 L 1137.05 170.101 L 1137.05 170.101 Q 1138.143 168.528 1138.762 167.574 L 1138.762 167.574 L 1138.762 167.574 Q 1138.76 167.416 1138.785 167.269 L 1138.785 167.269 L 1138.785 167.269 Q 1138.81 167.122 1138.863 166.985 L 1138.863 166.985 L 1138.863 166.985 Q 1138.859 166.669 1139.02 166.7 L 1139.02 166.7 L 1139.02 166.7 Q 1139.181 166.731 1139.294 166.68 L 1139.294 166.68 L 1139.294 166.68 Q 1139.315 166.626 1139.353 166.609 L 1139.353 166.609 L 1139.353 166.609 Q 1139.391 166.592 1139.412 166.537 L 1139.412 166.537 L 1139.412 166.537 Q 1139.475 166.373 1139.53 166.394 L 1139.53 166.394 L 1139.53 166.394 Q 1139.667 166.039 1139.819 165.972 L 1139.819 165.972 L 1139.819 165.972 Q 1139.97 165.905 1140.104 165.925 L 1140.104 165.925 L 1140.104 165.925 Q 1140.237 165.945 1140.347 165.987 L 1140.347 165.987 L 1140.347 165.987 Q 1140.456 166.029 1140.546 165.875 L 1140.546 165.875 L 1140.546 165.875 Q 1140.738 165.541 1140.854 165.444 L 1140.854 165.444 L 1140.854 165.444 Q 1140.97 165.348 1141.06 165.398 L 1141.06 165.398 L 1141.06 165.398 Q 1141.15 165.449 1141.278 165.608 L 1141.278 165.608 L 1141.278 165.608 Q 1141.405 165.767 1141.609 165.971 L 1141.609 165.971 L 1141.609 165.971 Q 1141.724 166.078 1141.825 166.101 L 1141.825 166.101 L 1141.825 166.101 Q 1141.926 166.124 1142.03 166.18 L 1142.03 166.18 L 1142.03 166.18 Q 1142.134 166.236 1142.264 166.349 L 1142.264 166.349 L 1142.264 166.349 Q 1142.393 166.461 1142.548 166.71 L 1142.548 166.71 L 1142.548 166.71 Q 1142.66 166.909 1142.783 166.957 L 1142.783 166.957 L 1142.783 166.957 Q 1142.906 167.004 1143.033 166.959 L 1143.033 166.959 L 1143.033 166.959 Q 1143.16 166.914 1143.271 166.831 L 1143.271 166.831 L 1143.271 166.831 Q 1143.381 166.748 1143.468 166.687 L 1143.468 166.687 L 1143.468 166.687 Q 1143.602 166.582 1143.766 166.645 L 1143.766 166.645 L 1143.766 166.645 Q 1143.93 166.708 1144.014 166.898 L 1144.014 166.898 L 1144.014 166.898 Q 1144.094 167.18 1144.158 167.299 L 1144.158 167.299 L 1144.158 167.299 Q 1144.222 167.417 1144.247 167.474 L 1144.247 167.474 L 1144.247 167.474 Q 1144.273 167.531 1144.267 167.545 L 1144.267 167.545 L 1144.267 167.545 Q 1144.262 167.558 1144.258 167.651 L 1144.258 167.651 L 1144.258 167.651 Q 1144.194 169.039 1143.992 170.5 L 1143.992 170.5 L 1143.992 170.5 Q 1143.79 171.96 1143.468 173.814 L 1143.468 173.814 L 1143.468 173.814 Q 1143.146 175.668 1142.742 178.103 L 1142.742 178.103 L 1142.742 178.103 Q 1142.338 180.537 1141.869 183.873 L 1141.869 183.873 L 1141.869 183.873 Q 1141.043 189.52 1140.553 193.397 L 1140.553 193.397 L 1140.553 193.397 Q 1140.064 197.275 1139.981 199.283 L 1139.981 199.283 L 1139.981 199.283 Q 1141.012 198.236 1142.487 196.732 L 1142.487 196.732 L 1142.487 196.732 Q 1143.961 195.228 1145.652 193.447 L 1145.652 193.447 L 1145.652 193.447 Q 1147.343 191.665 1149.18 189.751 L 1149.18 189.751 L 1149.18 189.751 Q 1151.016 187.837 1152.809 185.954 L 1152.809 185.954 L 1152.809 185.954 Q 1154.603 184.07 1156.254 182.352 L 1156.254 182.352 L 1156.254 182.352 Q 1157.905 180.633 1159.207 179.251 L 1159.207 179.251 L 1159.207 179.251 Q 1160.509 177.869 1161.405 176.927 L 1161.405 176.927 L 1161.405 176.927 Q 1162.302 175.985 1162.565 175.71 L 1162.565 175.71 L 1162.565 175.71 Q 1162.876 175.39 1163.067 175.181 L 1163.067 175.181 L 1163.067 175.181 Q 1163.257 174.972 1163.447 174.888 L 1163.447 174.888 L 1163.447 174.888 Q 1163.613 174.701 1163.8 174.663 L 1163.8 174.663 L 1163.8 174.663 Q 1163.988 174.625 1164.147 174.781 L 1164.147 174.781 L 1164.147 174.781 Q 1164.181 174.857 1164.252 174.916 L 1164.252 174.916 L 1164.252 174.916 Q 1164.286 174.992 1164.349 175.032 L 1164.349 175.032 L 1164.349 175.032 Q 1164.412 175.072 1164.446 175.147 L 1164.446 175.147 L 1164.446 175.147 Q 1164.526 175.021 1164.613 175.039 L 1164.613 175.039 L 1164.613 175.039 Q 1164.7 175.057 1164.81 175.099 L 1164.81 175.099 L 1164.81 175.099 Q 1164.908 175.169 1165.035 175.249 L 1165.035 175.249 L 1165.117 175.28 L 1165.226 175.322 L 1165.226 175.322 Q 1165.329 175.299 1165.427 175.29 L 1165.427 175.29 L 1165.427 175.29 Q 1165.525 175.281 1165.575 175.394 L 1165.575 175.394 L 1165.575 175.394 Q 1165.768 175.626 1165.912 175.539 L 1165.912 175.539 L 1165.912 175.539 Q 1166.055 175.453 1166.273 175.538 L 1166.273 175.538 L 1166.273 175.538 Q 1166.41 175.59 1166.53 175.605 L 1166.53 175.605 L 1166.53 175.605 Q 1166.622 175.609 1166.72 175.6 L 1166.72 175.6 L 1166.72 175.6 Q 1166.818 175.591 1166.877 175.519 L 1166.877 175.519 L 1166.877 175.519 Q 1166.986 175.561 1167.044 175.615 L 1167.044 175.615 L 1167.044 175.615 Q 1167.102 175.669 1167.146 175.717 L 1167.146 175.717 L 1167.197 175.831 L 1167.197 175.831 Q 1167.236 175.971 1167.079 176.868 L 1167.079 176.868 L 1167.079 176.868 Q 1166.922 177.765 1166.658 179.061 L 1166.658 179.061 L 1166.658 179.061 Q 1166.394 180.357 1166.052 181.857 L 1166.052 181.857 L 1166.052 181.857 Q 1165.709 183.358 1165.378 184.706 L 1165.378 184.706 L 1165.378 184.706 Q 1165.264 185.164 1164.854 186.717 L 1164.854 186.717 L 1164.854 186.717 Q 1164.444 188.27 1163.836 190.501 L 1163.836 190.501 L 1163.836 190.501 Q 1163.227 192.731 1162.49 195.461 L 1162.49 195.461 L 1162.49 195.461 Q 1161.752 198.19 1160.993 200.975 L 1160.993 200.975 L 1160.993 200.975 Q 1160.234 203.759 1159.495 206.41 L 1159.495 206.41 L 1159.495 206.41 Q 1158.756 209.061 1158.154 211.152 L 1158.154 211.152 L 1158.154 211.152 Q 1157.552 213.244 1157.148 214.579 L 1157.148 214.579 L 1157.148 214.579 Q 1156.743 215.915 1156.652 216.068 Z  M 1181.863 223.51 L 1181.863 223.51 L 1181.863 223.51 Q 1181.675 223.771 1181.442 224.146 L 1181.442 224.146 L 1181.442 224.146 Q 1181.21 224.52 1180.885 224.972 L 1180.885 224.972 L 1180.885 224.972 Q 1180.475 225.543 1179.702 226.268 L 1179.702 226.268 L 1179.702 226.268 Q 1178.929 226.994 1177.894 227.657 L 1177.894 227.657 L 1177.894 227.657 Q 1176.858 228.32 1175.573 228.804 L 1175.573 228.804 L 1175.573 228.804 Q 1174.288 229.288 1172.854 229.377 L 1172.854 229.377 L 1172.854 229.377 Q 1171.42 229.465 1169.861 229.049 L 1169.861 229.049 L 1169.861 229.049 Q 1168.303 228.633 1166.732 227.506 L 1166.732 227.506 L 1166.732 227.506 Q 1165.328 226.498 1164.248 224.912 L 1164.248 224.912 L 1164.248 224.912 Q 1163.169 223.325 1162.779 221.332 L 1162.779 221.332 L 1162.779 221.332 Q 1162.389 219.339 1162.871 217.034 L 1162.871 217.034 L 1162.871 217.034 Q 1163.353 214.73 1165.096 212.302 L 1165.096 212.302 L 1165.096 212.302 Q 1166.189 210.779 1167.641 209.585 L 1167.641 209.585 L 1167.641 209.585 Q 1169.093 208.392 1170.688 207.553 L 1170.688 207.553 L 1170.688 207.553 Q 1172.282 206.714 1173.969 206.248 L 1173.969 206.248 L 1173.969 206.248 Q 1175.656 205.782 1177.216 205.694 L 1177.216 205.694 L 1177.216 205.694 Q 1178.776 205.605 1180.159 205.913 L 1180.159 205.913 L 1180.159 205.913 Q 1181.543 206.222 1182.543 206.939 L 1182.543 206.939 L 1182.543 206.939 Q 1184.28 208.186 1185.017 209.545 L 1185.017 209.545 L 1185.017 209.545 Q 1185.755 210.904 1185.84 212.192 L 1185.84 212.192 L 1185.84 212.192 Q 1185.926 213.479 1185.542 214.592 L 1185.542 214.592 L 1185.542 214.592 Q 1185.158 215.705 1184.628 216.443 L 1184.628 216.443 L 1184.628 216.443 Q 1184.115 217.157 1183.113 217.825 L 1183.113 217.825 L 1183.113 217.825 Q 1182.11 218.494 1180.735 218.751 L 1180.735 218.751 L 1180.735 218.751 Q 1179.36 219.008 1177.697 218.662 L 1177.697 218.662 L 1177.697 218.662 Q 1176.034 218.316 1174.202 217 L 1174.202 217 L 1174.202 217 Q 1173.226 216.3 1172.649 215.471 L 1172.649 215.471 L 1172.649 215.471 Q 1172.072 214.642 1171.776 213.798 L 1171.776 213.798 L 1171.776 213.798 Q 1171.48 212.954 1171.414 212.168 L 1171.414 212.168 L 1171.414 212.168 Q 1171.348 211.381 1171.37 210.747 L 1171.37 210.747 L 1171.37 210.747 Q 1169.882 211.915 1168.464 213.891 L 1168.464 213.891 L 1168.464 213.891 Q 1167.49 215.247 1167.105 216.612 L 1167.105 216.612 L 1167.105 216.612 Q 1166.721 217.977 1166.864 219.234 L 1166.864 219.234 L 1166.864 219.234 Q 1167.007 220.491 1167.669 221.579 L 1167.669 221.579 L 1167.669 221.579 Q 1168.33 222.667 1169.473 223.487 L 1169.473 223.487 L 1169.473 223.487 Q 1170.901 224.512 1172.322 224.793 L 1172.322 224.793 L 1172.322 224.793 Q 1173.743 225.074 1175.07 224.908 L 1175.07 224.908 L 1175.07 224.908 Q 1176.397 224.743 1177.604 224.293 L 1177.604 224.293 L 1177.604 224.293 Q 1178.81 223.843 1179.76 223.425 L 1179.76 223.425 L 1179.76 223.425 Q 1180.709 223.006 1181.372 222.761 L 1181.372 222.761 L 1181.372 222.761 Q 1182.035 222.516 1182.328 222.762 L 1182.328 222.762 L 1182.328 222.762 Q 1182.47 222.864 1182.3 223.102 L 1182.3 223.102 L 1182.3 223.102 Q 1182.214 223.221 1182.105 223.323 L 1182.105 223.323 L 1182.105 223.323 Q 1181.996 223.425 1181.863 223.51 Z  M 1181.055 209.514 L 1181.055 209.514 L 1181.055 209.514 Q 1180.627 209.206 1179.82 208.898 L 1179.82 208.898 L 1179.82 208.898 Q 1179.014 208.589 1177.939 208.503 L 1177.939 208.503 L 1177.939 208.503 Q 1176.865 208.417 1175.572 208.661 L 1175.572 208.661 L 1175.572 208.661 Q 1174.279 208.905 1172.877 209.702 L 1172.877 209.702 L 1172.877 209.702 Q 1173.33 209.774 1173.666 209.835 L 1173.666 209.835 L 1173.666 209.835 Q 1174.001 209.895 1174.096 209.964 L 1174.096 209.964 L 1174.096 209.964 Q 1174.144 209.998 1174.171 210.161 L 1174.171 210.161 L 1174.171 210.161 Q 1174.052 211.482 1174.591 212.465 L 1174.591 212.465 L 1174.591 212.465 Q 1175.13 213.447 1176.153 214.181 L 1176.153 214.181 L 1176.153 214.181 Q 1176.962 214.762 1177.742 214.907 L 1177.742 214.907 L 1177.742 214.907 Q 1178.522 215.052 1179.21 214.897 L 1179.21 214.897 L 1179.21 214.897 Q 1179.898 214.742 1180.432 214.35 L 1180.432 214.35 L 1180.432 214.35 Q 1180.966 213.958 1181.325 213.458 L 1181.325 213.458 L 1181.325 213.458 Q 1182.094 212.387 1182.05 211.292 L 1182.05 211.292 L 1182.05 211.292 Q 1182.007 210.197 1181.055 209.514 Z  M 975.53 181.175 L 975.53 181.175 L 975.53 181.175 Q 975.983 182.312 975.859 183.769 L 975.859 183.769 L 975.859 183.769 Q 975.734 185.225 975.242 186.518 L 975.242 186.518 L 975.242 186.518 Q 975.198 186.72 974.936 187.098 L 974.936 187.098 L 974.936 187.098 Q 974.674 187.476 974.37 187.897 L 974.37 187.897 L 974.37 187.897 Q 974.067 188.319 973.752 188.696 L 973.752 188.696 L 973.752 188.696 Q 973.437 189.073 973.231 189.24 L 973.231 189.24 L 973.231 189.24 Q 973.066 189.416 972.908 189.414 L 972.908 189.414 L 972.908 189.414 Q 972.749 189.411 972.587 189.376 L 972.587 189.376 L 972.587 189.376 Q 972.425 189.341 972.234 189.342 L 972.234 189.342 L 972.234 189.342 Q 972.043 189.343 971.797 189.502 L 971.797 189.502 L 971.797 189.502 Q 971.501 189.692 971.352 189.596 L 971.352 189.596 L 971.352 189.596 Q 971.204 189.5 971.089 189.052 L 971.089 189.052 L 971.089 189.052 Q 971.059 188.897 971.039 188.596 L 971.039 188.596 L 971.039 188.596 Q 971.02 188.295 971.069 187.775 L 971.069 187.775 L 971.069 187.775 Q 971.123 187.427 971.084 187.069 L 971.084 187.069 L 971.084 187.069 Q 971.045 186.71 970.808 186.532 L 970.808 186.532 L 970.808 186.532 Q 970.571 186.353 970.082 186.459 L 970.082 186.459 L 970.082 186.459 Q 969.593 186.565 968.755 187.104 L 968.755 187.104 L 968.755 187.104 Q 967.893 187.659 966.681 188.753 L 966.681 188.753 L 966.681 188.753 Q 965.33 189.902 964.09 191.467 L 964.09 191.467 L 964.09 191.467 Q 962.85 193.031 961.819 194.705 L 961.819 194.705 L 961.819 194.705 Q 960.789 196.379 960.056 198.001 L 960.056 198.001 L 960.056 198.001 Q 959.323 199.622 959.022 200.914 L 959.022 200.914 L 959.022 200.914 Q 958.721 202.205 958.935 203.025 L 958.935 203.025 L 958.935 203.025 Q 959.15 203.845 960.01 203.884 L 960.01 203.884 L 960.01 203.884 Q 960.766 203.92 961.991 203.497 L 961.991 203.497 L 961.991 203.497 Q 963.217 203.074 964.731 202.395 L 964.731 202.395 L 964.731 202.395 Q 966.246 201.716 967.973 200.935 L 967.973 200.935 L 967.973 200.935 Q 969.7 200.154 971.47 199.468 L 971.47 199.468 L 971.47 199.468 Q 973.241 198.781 974.959 198.337 L 974.959 198.337 L 974.959 198.337 Q 976.676 197.893 978.204 197.885 L 978.204 197.885 L 978.204 197.885 Q 979.301 197.911 980.12 198.046 L 980.12 198.046 L 980.12 198.046 Q 980.938 198.181 981.552 198.431 L 981.552 198.431 L 981.552 198.431 Q 982.165 198.68 982.64 198.984 L 982.64 198.984 L 982.64 198.984 Q 983.115 199.289 983.548 199.637 L 983.548 199.637 L 983.548 199.637 Q 983.821 199.844 984.294 200.011 L 984.294 200.011 L 984.294 200.011 Q 984.766 200.177 985.363 200.454 L 985.363 200.454 L 985.363 200.454 Q 985.96 200.732 986.595 201.177 L 986.595 201.177 L 986.595 201.177 Q 987.23 201.622 987.827 202.387 L 987.827 202.387 L 987.827 202.387 Q 988.972 203.95 989.157 205.887 L 989.157 205.887 L 989.157 205.887 Q 989.341 207.824 988.939 209.825 L 988.939 209.825 L 988.939 209.825 Q 988.537 211.825 987.71 213.734 L 987.71 213.734 L 987.71 213.734 Q 986.883 215.643 985.965 217.14 L 985.965 217.14 L 985.965 217.14 Q 985.172 218.452 984.184 219.785 L 984.184 219.785 L 984.184 219.785 Q 983.195 221.118 982.046 222.363 L 982.046 222.363 L 982.046 222.363 Q 980.896 223.608 979.615 224.73 L 979.615 224.73 L 979.615 224.73 Q 978.333 225.851 976.953 226.739 L 976.953 226.739 L 976.953 226.739 Q 974.663 228.214 972.251 228.878 L 972.251 228.878 L 972.251 228.878 Q 969.838 229.542 967.409 229.016 L 967.409 229.016 L 967.409 229.016 Q 966.203 228.712 965.383 228.142 L 965.383 228.142 L 965.383 228.142 Q 964.563 227.572 964.072 226.809 L 964.072 226.809 L 964.072 226.809 Q 963.485 225.897 963.3 224.797 L 963.3 224.797 L 963.3 224.797 Q 963.114 223.697 963.214 222.553 L 963.214 222.553 L 963.214 222.553 Q 963.313 221.409 963.639 220.345 L 963.639 220.345 L 963.639 220.345 Q 963.965 219.282 964.417 218.468 L 964.417 218.468 L 964.417 218.468 Q 965.029 217.308 965.75 216.129 L 965.75 216.129 L 965.75 216.129 Q 966.472 214.95 967.27 213.862 L 967.27 213.862 L 967.27 213.862 Q 968.068 212.773 968.952 211.82 L 968.952 211.82 L 968.952 211.82 Q 969.837 210.867 970.775 210.159 L 970.775 210.159 L 970.775 210.159 Q 971.162 209.84 971.771 209.379 L 971.771 209.379 L 971.771 209.379 Q 972.38 208.917 972.946 208.552 L 972.946 208.552 L 972.946 208.552 Q 973.316 208.315 973.689 208.353 L 973.689 208.353 L 973.689 208.353 Q 974.062 208.392 974.108 208.571 L 974.108 208.571 L 974.108 208.571 Q 974.159 208.921 973.851 209.12 L 973.851 209.12 L 973.851 209.12 Q 973.543 209.318 973.188 209.686 L 973.188 209.686 L 973.188 209.686 Q 972.799 210.11 972.363 210.461 L 972.363 210.461 L 972.363 210.461 Q 971.927 210.812 971.636 211.173 L 971.636 211.173 L 971.636 211.173 Q 969.24 213.621 967.941 215.851 L 967.941 215.851 L 967.941 215.851 Q 966.642 218.081 966.146 219.829 L 966.146 219.829 L 966.146 219.829 Q 965.651 221.576 965.811 222.745 L 965.811 222.745 L 965.811 222.745 Q 965.971 223.914 966.445 224.271 L 966.445 224.271 L 966.445 224.271 Q 967.119 224.777 968.022 224.718 L 968.022 224.718 L 968.022 224.718 Q 968.925 224.66 969.866 224.281 L 969.866 224.281 L 969.866 224.281 Q 970.807 223.902 971.685 223.371 L 971.685 223.371 L 971.685 223.371 Q 972.563 222.841 973.147 222.395 L 973.147 222.395 L 973.147 222.395 Q 974.528 221.402 976.067 219.923 L 976.067 219.923 L 976.067 219.923 Q 977.607 218.444 979.052 216.712 L 979.052 216.712 L 979.052 216.712 Q 980.498 214.98 981.723 213.094 L 981.723 213.094 L 981.723 213.094 Q 982.948 211.208 983.683 209.428 L 983.683 209.428 L 983.683 209.428 Q 984.419 207.647 984.542 206.053 L 984.542 206.053 L 984.542 206.053 Q 984.665 204.458 983.904 203.275 L 983.904 203.275 L 983.904 203.275 Q 983.65 202.881 983.294 202.571 L 983.294 202.571 L 983.294 202.571 Q 982.937 202.26 982.47 201.968 L 982.47 201.968 L 982.47 201.968 Q 981.641 201.492 980.281 201.653 L 980.281 201.653 L 980.281 201.653 Q 978.921 201.814 977.25 202.384 L 977.25 202.384 L 977.25 202.384 Q 975.579 202.955 973.71 203.758 L 973.71 203.758 L 973.71 203.758 Q 971.84 204.561 970.011 205.32 L 970.011 205.32 L 970.011 205.32 Q 968.183 206.079 966.467 206.661 L 966.467 206.661 L 966.467 206.661 Q 964.751 207.243 963.392 207.351 L 963.392 207.351 L 963.392 207.351 Q 961.863 207.465 960.945 207.202 L 960.945 207.202 L 960.945 207.202 Q 960.026 206.939 959.366 206.076 L 959.366 206.076 L 959.366 206.076 Q 959.278 205.993 958.996 205.826 L 958.996 205.826 L 958.996 205.826 Q 958.714 205.659 958.38 205.491 L 958.38 205.491 L 958.38 205.491 Q 958.045 205.323 957.739 205.172 L 957.739 205.172 L 957.739 205.172 Q 957.432 205.021 957.263 204.92 L 957.263 204.92 L 957.263 204.92 Q 956.409 204.46 955.87 203.622 L 955.87 203.622 L 955.87 203.622 Q 955.267 202.686 955.064 201.423 L 955.064 201.423 L 955.064 201.423 Q 954.861 200.16 955.042 199.034 L 955.042 199.034 L 955.042 199.034 Q 955.352 196.918 956.54 194.515 L 956.54 194.515 L 956.54 194.515 Q 957.729 192.112 959.464 189.775 L 959.464 189.775 L 959.464 189.775 Q 961.2 187.438 963.286 185.347 L 963.286 185.347 L 963.286 185.347 Q 965.371 183.255 967.492 181.786 L 967.492 181.786 L 967.492 181.786 Q 968.363 181.19 969.566 180.624 L 969.566 180.624 L 969.566 180.624 Q 970.77 180.058 971.964 179.83 L 971.964 179.83 L 971.964 179.83 Q 973.158 179.601 974.129 179.864 L 974.129 179.864 L 974.129 179.864 Q 975.1 180.128 975.53 181.175 Z  M 996.997 187.077 L 996.997 187.077 L 996.997 187.077 Q 997.016 187.289 997.21 187.874 L 997.21 187.874 L 997.21 187.874 Q 997.404 188.458 997.676 189.327 L 997.676 189.327 L 997.676 189.327 Q 998.725 188.546 999.881 187.88 L 999.881 187.88 L 999.881 187.88 Q 1001.038 187.215 1002.323 186.72 L 1002.323 186.72 L 1002.323 186.72 Q 1003.744 186.172 1005.287 185.939 L 1005.287 185.939 L 1005.287 185.939 Q 1006.83 185.705 1008.355 185.997 L 1008.355 185.997 L 1008.355 185.997 Q 1009.533 186.202 1010.687 187.202 L 1010.687 187.202 L 1010.687 187.202 Q 1011.842 188.201 1012.837 189.481 L 1012.837 189.481 L 1012.837 189.481 Q 1013.41 190.234 1014.051 191.164 L 1014.051 191.164 L 1014.051 191.164 Q 1014.692 192.095 1015.166 193.325 L 1015.166 193.325 L 1015.166 193.325 Q 1015.566 194.364 1015.738 195.585 L 1015.738 195.585 L 1015.738 195.585 Q 1015.911 196.806 1015.713 198.248 L 1015.713 198.248 L 1015.713 198.248 Q 1015.515 199.69 1014.873 201.365 L 1014.873 201.365 L 1014.873 201.365 Q 1014.232 203.041 1012.967 204.973 L 1012.967 204.973 L 1012.967 204.973 Q 1011.746 206.856 1010.668 208.009 L 1010.668 208.009 L 1010.668 208.009 Q 1009.589 209.163 1008.755 209.767 L 1008.755 209.767 L 1008.755 209.767 Q 1007.92 210.371 1007.409 210.552 L 1007.409 210.552 L 1007.409 210.552 Q 1006.898 210.734 1006.795 210.71 L 1006.795 210.71 L 1006.795 210.71 Q 1006.486 210.641 1006.066 210.285 L 1006.066 210.285 L 1006.066 210.285 Q 1005.646 209.929 1005.008 209.578 L 1005.008 209.578 L 1005.008 209.578 Q 1004.808 209.466 1004.631 209.331 L 1004.631 209.331 L 1004.631 209.331 Q 1004.453 209.195 1004.221 209.002 L 1004.221 209.002 L 1004.221 209.002 Q 1005.151 211.658 1006.079 214.189 L 1006.079 214.189 L 1006.079 214.189 Q 1007.007 216.72 1007.85 218.907 L 1007.85 218.907 L 1007.85 218.907 Q 1008.376 220.274 1008.862 221.452 L 1008.862 221.452 L 1008.862 221.452 Q 1009.347 222.631 1009.771 223.567 L 1009.771 223.567 L 1009.771 223.567 Q 1009.908 223.922 1010.08 224.248 L 1010.08 224.248 L 1010.08 224.248 Q 1010.253 224.574 1010.345 224.853 L 1010.345 224.853 L 1010.345 224.853 Q 1010.436 225.131 1010.39 225.337 L 1010.39 225.337 L 1010.39 225.337 Q 1010.344 225.543 1010.043 225.659 L 1010.043 225.659 L 1010.043 225.659 Q 1009.497 225.87 1009.31 226.24 L 1009.31 226.24 L 1009.31 226.24 Q 1009.123 226.611 1008.951 227.305 L 1008.951 227.305 L 1008.951 227.305 Q 1008.827 227.635 1008.628 227.853 L 1008.628 227.853 L 1008.628 227.853 Q 1008.429 228.071 1008.122 228.048 L 1008.122 228.048 L 1008.122 228.048 Q 1007.815 228.025 1007.403 227.729 L 1007.403 227.729 L 1007.403 227.729 Q 1006.99 227.432 1006.466 226.724 L 1006.466 226.724 L 1006.466 226.724 Q 1006.258 226.427 1005.984 225.921 L 1005.984 225.921 L 1005.984 225.921 Q 1005.71 225.414 1005.358 224.623 L 1005.358 224.623 L 1005.358 224.623 Q 1005.007 223.833 1004.556 222.703 L 1004.556 222.703 L 1004.556 222.703 Q 1004.105 221.574 1003.505 220.016 L 1003.505 220.016 L 999.969 210.515 L 999.969 210.515 Q 998.644 206.913 997.556 203.438 L 997.556 203.438 L 997.556 203.438 Q 996.469 199.964 995.621 196.869 L 995.621 196.869 L 995.621 196.869 Q 995.043 197.405 994.522 197.763 L 994.522 197.763 L 994.522 197.763 Q 994 198.121 993.832 198.092 L 993.832 198.092 L 993.832 198.092 Q 993.517 198.088 993.382 197.983 L 993.382 197.983 L 993.382 197.983 Q 993.247 197.878 993.173 197.765 L 993.173 197.765 L 993.173 197.765 Q 993.098 197.653 993.02 197.573 L 993.02 197.573 L 993.02 197.573 Q 992.942 197.493 992.74 197.539 L 992.74 197.539 L 992.74 197.539 Q 992.538 197.586 992.349 197.502 L 992.349 197.502 L 992.349 197.502 Q 992.16 197.418 992.066 197.297 L 992.066 197.297 L 992.066 197.297 Q 991.972 197.176 991.993 197.027 L 991.993 197.027 L 991.993 197.027 Q 992.014 196.877 992.222 196.766 L 992.222 196.766 L 992.222 196.766 Q 992.403 196.665 992.219 196.594 L 992.219 196.594 L 992.219 196.594 Q 992.035 196.524 991.833 196.366 L 991.833 196.366 L 991.833 196.366 Q 991.631 196.209 991.564 195.873 L 991.564 195.873 L 991.564 195.873 Q 991.498 195.538 991.969 194.885 L 991.969 194.885 L 991.969 194.885 Q 992.191 194.486 992.848 193.746 L 992.848 193.746 L 992.848 193.746 Q 993.505 193.006 994.453 192.044 L 994.453 192.044 L 994.453 192.044 Q 993.932 189.796 993.725 188.322 L 993.725 188.322 L 993.725 188.322 Q 993.518 186.847 993.648 186.452 L 993.648 186.452 L 993.648 186.452 Q 993.732 186.262 993.745 186.132 L 993.745 186.132 L 993.745 186.132 Q 993.757 186.002 993.78 185.899 L 993.78 185.899 L 993.78 185.899 Q 993.803 185.795 993.864 185.709 L 993.864 185.709 L 993.864 185.709 Q 993.925 185.623 994.123 185.484 L 994.123 185.484 L 994.123 185.484 Q 994.304 185.383 994.483 185.44 L 994.483 185.44 L 994.483 185.44 Q 994.661 185.496 994.853 185.627 L 994.853 185.627 L 994.853 185.627 Q 995.044 185.757 995.244 185.868 L 995.244 185.868 L 995.244 185.868 Q 995.444 185.98 995.646 185.933 L 995.646 185.933 L 995.646 185.933 Q 996.05 185.84 996.414 186.092 L 996.414 186.092 L 996.414 186.092 Q 996.778 186.345 996.997 187.077 Z  M 1004.3 190.385 L 1004.3 190.385 L 1004.3 190.385 Q 1003.07 190.859 1001.781 191.669 L 1001.781 191.669 L 1001.781 191.669 Q 1000.492 192.48 999.04 193.762 L 999.04 193.762 L 1003.119 205.816 L 1003.119 205.816 Q 1003.397 205.803 1003.703 205.701 L 1003.703 205.701 L 1003.703 205.701 Q 1004.009 205.599 1004.392 205.451 L 1004.392 205.451 L 1004.392 205.451 Q 1005.294 205.104 1006.388 204.399 L 1006.388 204.399 L 1006.388 204.399 Q 1007.482 203.695 1008.518 202.715 L 1008.518 202.715 L 1008.518 202.715 Q 1009.553 201.736 1010.477 200.548 L 1010.477 200.548 L 1010.477 200.548 Q 1011.4 199.36 1011.975 198.04 L 1011.975 198.04 L 1011.975 198.04 Q 1012.549 196.719 1012.671 195.323 L 1012.671 195.323 L 1012.671 195.323 Q 1012.792 193.926 1012.282 192.521 L 1012.282 192.521 L 1012.282 192.521 Q 1011.993 191.69 1011.286 191.037 L 1011.286 191.037 L 1011.286 191.037 Q 1010.579 190.383 1009.547 190.027 L 1009.547 190.027 L 1009.547 190.027 Q 1008.515 189.671 1007.187 189.728 L 1007.187 189.728 L 1007.187 189.728 Q 1005.858 189.784 1004.3 190.385 Z  M 1032.024 180.059 L 1032.024 180.059 L 1032.024 180.059 Q 1032.209 180.889 1032.291 181.73 L 1032.291 181.73 L 1032.291 181.73 Q 1032.373 182.571 1032.334 183.353 L 1032.334 183.353 L 1032.334 183.353 Q 1032.295 184.135 1032.116 184.787 L 1032.116 184.787 L 1032.116 184.787 Q 1031.937 185.439 1031.628 185.882 L 1031.628 185.882 L 1031.628 185.882 Q 1031.362 186.254 1031.163 186.305 L 1031.163 186.305 L 1031.163 186.305 Q 1030.965 186.357 1030.807 186.277 L 1030.807 186.277 L 1030.807 186.277 Q 1030.65 186.196 1030.529 186.076 L 1030.529 186.076 L 1030.529 186.076 Q 1030.407 185.957 1030.258 185.965 L 1030.258 185.965 L 1030.258 185.965 Q 1030.137 185.966 1029.963 186.057 L 1029.963 186.057 L 1029.963 186.057 Q 1029.79 186.147 1029.599 186.166 L 1029.599 186.166 L 1029.599 186.166 Q 1029.407 186.186 1029.203 186.042 L 1029.203 186.042 L 1029.203 186.042 Q 1028.999 185.898 1028.817 185.431 L 1028.817 185.431 L 1028.817 185.431 Q 1028.621 184.907 1028.496 184.016 L 1028.496 184.016 L 1028.496 184.016 Q 1028.371 183.125 1028.157 182.303 L 1028.157 182.303 L 1028.157 182.303 Q 1027.966 181.566 1027.681 181.11 L 1027.681 181.11 L 1027.681 181.11 Q 1027.397 180.654 1027 180.757 L 1027 180.757 L 1027 180.757 Q 1026.801 180.809 1026.382 181.235 L 1026.382 181.235 L 1026.382 181.235 Q 1025.963 181.662 1025.618 182.78 L 1025.618 182.78 L 1025.618 182.78 Q 1025.272 183.899 1025.151 185.882 L 1025.151 185.882 L 1025.151 185.882 Q 1025.03 187.866 1025.449 190.996 L 1025.449 190.996 L 1025.449 190.996 Q 1026.464 194.909 1027.139 197.277 L 1027.139 197.277 L 1027.139 197.277 Q 1027.813 199.644 1028.159 200.977 L 1028.159 200.977 L 1028.159 200.977 Q 1028.453 202.111 1028.522 202.608 L 1028.522 202.608 L 1028.522 202.608 Q 1028.59 203.105 1028.4 203.306 L 1028.4 203.306 L 1028.4 203.306 Q 1028.28 203.427 1027.902 203.662 L 1027.902 203.662 L 1027.902 203.662 Q 1027.524 203.896 1027.086 204.131 L 1027.086 204.131 L 1027.086 204.131 Q 1026.647 204.366 1026.244 204.561 L 1026.244 204.561 L 1026.244 204.561 Q 1025.841 204.757 1025.72 204.758 L 1025.72 204.758 L 1025.72 204.758 Q 1025.627 204.751 1025.36 204.654 L 1025.36 204.654 L 1025.36 204.654 Q 1025.093 204.557 1024.793 204.393 L 1024.793 204.393 L 1024.793 204.393 Q 1024.493 204.228 1024.232 204.039 L 1024.232 204.039 L 1024.232 204.039 Q 1023.971 203.849 1023.898 203.686 L 1023.898 203.686 L 1023.898 203.686 Q 1023.768 203.418 1023.521 202.407 L 1023.521 202.407 L 1023.521 202.407 Q 1023.274 201.397 1022.92 199.975 L 1022.92 199.975 L 1022.92 199.975 Q 1022.567 198.554 1022.157 196.859 L 1022.157 196.859 L 1022.157 196.859 Q 1021.748 195.164 1021.314 193.491 L 1021.314 193.491 L 1021.314 193.491 Q 1021.034 192.414 1020.763 191.077 L 1020.763 191.077 L 1020.763 191.077 Q 1020.492 189.739 1020.238 188.353 L 1020.238 188.353 L 1020.238 188.353 Q 1019.984 186.966 1019.759 185.632 L 1019.759 185.632 L 1019.759 185.632 Q 1019.534 184.298 1019.365 183.237 L 1019.365 183.237 L 1019.365 183.237 Q 1019.196 182.176 1019.086 181.463 L 1019.086 181.463 L 1019.086 181.463 Q 1018.977 180.75 1018.969 180.601 L 1018.969 180.601 L 1018.969 180.601 Q 1018.938 180.366 1019.137 180.375 L 1019.137 180.375 L 1019.137 180.375 Q 1019.336 180.384 1019.586 180.471 L 1019.586 180.471 L 1019.586 180.471 Q 1019.835 180.557 1020.035 180.627 L 1020.035 180.627 L 1020.035 180.627 Q 1020.234 180.696 1020.262 180.568 L 1020.262 180.568 L 1020.262 180.568 Q 1020.252 180.298 1020.669 180.387 L 1020.669 180.387 L 1020.669 180.387 Q 1021.085 180.475 1021.456 180.621 L 1021.456 180.621 L 1021.456 180.621 Q 1021.606 180.734 1021.788 180.792 L 1021.788 180.792 L 1021.788 180.792 Q 1021.97 180.851 1022.152 180.97 L 1022.152 180.97 L 1022.152 180.97 Q 1022.334 181.09 1022.5 181.319 L 1022.5 181.319 L 1022.5 181.319 Q 1022.665 181.549 1022.775 181.974 L 1022.775 181.974 L 1022.775 181.974 Q 1022.878 182.371 1023.141 183.15 L 1023.141 183.15 L 1023.141 183.15 Q 1023.404 183.93 1023.768 184.985 L 1023.768 184.985 L 1023.768 184.985 Q 1023.815 183.883 1023.961 182.635 L 1023.961 182.635 L 1023.961 182.635 Q 1024.106 181.387 1024.483 180.275 L 1024.483 180.275 L 1024.483 180.275 Q 1024.861 179.163 1025.55 178.318 L 1025.55 178.318 L 1025.55 178.318 Q 1026.239 177.474 1027.43 177.165 L 1027.43 177.165 L 1027.43 177.165 Q 1028.082 176.996 1028.8 177.082 L 1028.8 177.082 L 1028.8 177.082 Q 1029.519 177.168 1030.172 177.528 L 1030.172 177.528 L 1030.172 177.528 Q 1030.826 177.888 1031.321 178.516 L 1031.321 178.516 L 1031.321 178.516 Q 1031.817 179.144 1032.024 180.059 Z  M 1056.934 187.06 L 1056.934 187.06 L 1056.934 187.06 Q 1056.978 187.379 1057.068 187.81 L 1057.068 187.81 L 1057.068 187.81 Q 1057.157 188.241 1057.233 188.793 L 1057.233 188.793 L 1057.233 188.793 Q 1057.329 189.489 1057.268 190.548 L 1057.268 190.548 L 1057.268 190.548 Q 1057.208 191.606 1056.914 192.8 L 1056.914 192.8 L 1056.914 192.8 Q 1056.621 193.994 1056.023 195.23 L 1056.023 195.23 L 1056.023 195.23 Q 1055.425 196.466 1054.446 197.518 L 1054.446 197.518 L 1054.446 197.518 Q 1053.468 198.57 1052.051 199.343 L 1052.051 199.343 L 1052.051 199.343 Q 1050.635 200.115 1048.72 200.38 L 1048.72 200.38 L 1048.72 200.38 Q 1047.007 200.617 1045.132 200.21 L 1045.132 200.21 L 1045.132 200.21 Q 1043.257 199.804 1041.601 198.628 L 1041.601 198.628 L 1041.601 198.628 Q 1039.945 197.452 1038.707 195.449 L 1038.707 195.449 L 1038.707 195.449 Q 1037.469 193.447 1037.06 190.487 L 1037.06 190.487 L 1037.06 190.487 Q 1036.803 188.629 1037.034 186.764 L 1037.034 186.764 L 1037.034 186.764 Q 1037.264 184.898 1037.841 183.192 L 1037.841 183.192 L 1037.841 183.192 Q 1038.419 181.485 1039.32 179.985 L 1039.32 179.985 L 1039.32 179.985 Q 1040.222 178.486 1041.292 177.347 L 1041.292 177.347 L 1041.292 177.347 Q 1042.362 176.208 1043.577 175.478 L 1043.577 175.478 L 1043.577 175.478 Q 1044.793 174.748 1046.012 174.58 L 1046.012 174.58 L 1046.012 174.58 Q 1048.13 174.287 1049.601 174.764 L 1049.601 174.764 L 1049.601 174.764 Q 1051.072 175.241 1052.021 176.116 L 1052.021 176.116 L 1052.021 176.116 Q 1052.97 176.99 1053.458 178.061 L 1053.458 178.061 L 1053.458 178.061 Q 1053.946 179.132 1054.07 180.032 L 1054.07 180.032 L 1054.07 180.032 Q 1054.191 180.903 1053.924 182.078 L 1053.924 182.078 L 1053.924 182.078 Q 1053.658 183.254 1052.838 184.387 L 1052.838 184.387 L 1052.838 184.387 Q 1052.019 185.521 1050.575 186.415 L 1050.575 186.415 L 1050.575 186.415 Q 1049.131 187.31 1046.897 187.619 L 1046.897 187.619 L 1046.897 187.619 Q 1045.707 187.783 1044.718 187.58 L 1044.718 187.58 L 1044.718 187.58 Q 1043.728 187.376 1042.933 186.969 L 1042.933 186.969 L 1042.933 186.969 Q 1042.137 186.561 1041.547 186.036 L 1041.547 186.036 L 1041.547 186.036 Q 1040.957 185.512 1040.536 185.037 L 1040.536 185.037 L 1040.536 185.037 Q 1040.263 186.909 1040.595 189.318 L 1040.595 189.318 L 1040.595 189.318 Q 1040.824 190.972 1041.485 192.226 L 1041.485 192.226 L 1041.485 192.226 Q 1042.147 193.48 1043.117 194.293 L 1043.117 194.293 L 1043.117 194.293 Q 1044.087 195.105 1045.316 195.438 L 1045.316 195.438 L 1045.316 195.438 Q 1046.545 195.771 1047.938 195.579 L 1047.938 195.579 L 1047.938 195.579 Q 1049.679 195.338 1050.903 194.562 L 1050.903 194.562 L 1050.903 194.562 Q 1052.126 193.787 1052.974 192.753 L 1052.974 192.753 L 1052.974 192.753 Q 1053.822 191.719 1054.387 190.561 L 1054.387 190.561 L 1054.387 190.561 Q 1054.951 189.404 1055.351 188.447 L 1055.351 188.447 L 1055.351 188.447 Q 1055.751 187.489 1056.063 186.855 L 1056.063 186.855 L 1056.063 186.855 Q 1056.375 186.22 1056.756 186.197 L 1056.756 186.197 L 1056.756 186.197 Q 1056.93 186.173 1056.97 186.463 L 1056.97 186.463 L 1056.97 186.463 Q 1056.99 186.608 1056.981 186.757 L 1056.981 186.757 L 1056.981 186.757 Q 1056.972 186.907 1056.934 187.06 Z  M 1046.707 177.471 L 1046.707 177.471 L 1046.707 177.471 Q 1046.185 177.543 1045.387 177.875 L 1045.387 177.875 L 1045.387 177.875 Q 1044.59 178.207 1043.753 178.885 L 1043.753 178.885 L 1043.753 178.885 Q 1042.915 179.563 1042.145 180.63 L 1042.145 180.63 L 1042.145 180.63 Q 1041.376 181.698 1040.909 183.241 L 1040.909 183.241 L 1040.909 183.241 Q 1041.287 182.982 1041.572 182.794 L 1041.572 182.794 L 1041.572 182.794 Q 1041.857 182.607 1041.973 182.591 L 1041.973 182.591 L 1041.973 182.591 Q 1042.031 182.583 1042.163 182.683 L 1042.163 182.683 L 1042.163 182.683 Q 1042.987 183.723 1044.054 184.063 L 1044.054 184.063 L 1044.054 184.063 Q 1045.122 184.404 1046.369 184.231 L 1046.369 184.231 L 1046.369 184.231 Q 1047.356 184.095 1048.021 183.663 L 1048.021 183.663 L 1048.021 183.663 Q 1048.686 183.231 1049.078 182.644 L 1049.078 182.644 L 1049.078 182.644 Q 1049.47 182.058 1049.587 181.406 L 1049.587 181.406 L 1049.587 181.406 Q 1049.704 180.754 1049.62 180.144 L 1049.62 180.144 L 1049.62 180.144 Q 1049.439 178.838 1048.654 178.074 L 1048.654 178.074 L 1048.654 178.074 Q 1047.868 177.311 1046.707 177.471 Z  M 1091.372 195.676 L 1091.372 195.676 L 1091.372 195.676 Q 1091.459 195.911 1091.502 196.058 L 1091.502 196.058 L 1091.502 196.058 Q 1091.545 196.205 1091.544 196.351 L 1091.544 196.351 L 1091.544 196.351 Q 1091.543 196.615 1091.323 196.658 L 1091.323 196.658 L 1091.323 196.658 Q 1091.103 196.7 1090.868 196.758 L 1090.868 196.758 L 1090.868 196.758 Q 1090.81 196.787 1090.75 197.036 L 1090.75 197.036 L 1090.75 197.036 Q 1090.69 197.284 1090.586 197.577 L 1090.586 197.577 L 1090.586 197.577 Q 1090.482 197.869 1090.261 198.103 L 1090.261 198.103 L 1090.261 198.103 Q 1090.04 198.336 1089.659 198.334 L 1089.659 198.334 L 1089.659 198.334 Q 1088.429 198.24 1087.729 197.782 L 1087.729 197.782 L 1087.729 197.782 Q 1087.028 197.325 1086.68 196.532 L 1086.68 196.532 L 1086.68 196.532 Q 1086.332 195.739 1086.25 194.64 L 1086.25 194.64 L 1086.25 194.64 Q 1086.167 193.541 1086.174 192.194 L 1086.174 192.194 L 1086.174 192.194 Q 1086.182 190.612 1086.322 188.884 L 1086.322 188.884 L 1086.322 188.884 Q 1086.463 187.156 1086.647 185.516 L 1086.647 185.516 L 1086.647 185.516 Q 1086.83 183.876 1086.969 182.427 L 1086.969 182.427 L 1086.969 182.427 Q 1087.108 180.977 1087.113 179.952 L 1087.113 179.952 L 1087.113 179.952 Q 1087.121 178.458 1086.876 177.636 L 1086.876 177.636 L 1086.876 177.636 Q 1086.631 176.815 1086.191 176.813 L 1086.191 176.813 L 1086.191 176.813 Q 1085.986 176.812 1085.131 178.023 L 1085.131 178.023 L 1085.131 178.023 Q 1084.275 179.235 1083.076 181.69 L 1083.076 181.69 L 1083.076 181.69 Q 1081.878 184.145 1080.497 187.859 L 1080.497 187.859 L 1080.497 187.859 Q 1079.117 191.573 1077.861 196.576 L 1077.861 196.576 L 1077.861 196.576 Q 1077.802 196.781 1077.801 197.016 L 1077.801 197.016 L 1077.801 197.016 Q 1077.799 197.25 1077.769 197.44 L 1077.769 197.44 L 1077.769 197.44 Q 1077.739 197.631 1077.636 197.762 L 1077.636 197.762 L 1077.636 197.762 Q 1077.533 197.893 1077.328 197.892 L 1077.328 197.892 L 1077.328 197.892 Q 1076.917 197.89 1076.684 197.728 L 1076.684 197.728 L 1076.684 197.728 Q 1076.45 197.566 1076.275 197.374 L 1076.275 197.374 L 1076.275 197.374 Q 1076.101 197.183 1075.955 197.021 L 1075.955 197.021 L 1075.955 197.021 Q 1075.809 196.859 1075.575 196.858 L 1075.575 196.858 L 1075.575 196.858 Q 1075.487 196.858 1075.428 196.975 L 1075.428 196.975 L 1075.428 196.975 Q 1075.369 197.092 1075.28 197.252 L 1075.28 197.252 L 1075.28 197.252 Q 1075.191 197.413 1075.073 197.53 L 1075.073 197.53 L 1075.073 197.53 Q 1074.956 197.646 1074.751 197.645 L 1074.751 197.645 L 1074.751 197.645 Q 1074.575 197.644 1074.37 197.57 L 1074.37 197.57 L 1074.37 197.57 Q 1074.165 197.496 1073.962 197.187 L 1073.962 197.187 L 1073.962 197.187 Q 1073.758 196.879 1073.629 196.277 L 1073.629 196.277 L 1073.629 196.277 Q 1073.501 195.676 1073.506 194.651 L 1073.506 194.651 L 1073.512 193.332 L 1073.512 193.332 Q 1073.514 192.922 1073.606 192.058 L 1073.606 192.058 L 1073.606 192.058 Q 1073.698 191.195 1073.807 190.053 L 1073.807 190.053 L 1073.807 190.053 Q 1073.915 188.91 1074.053 187.578 L 1074.053 187.578 L 1074.053 187.578 Q 1074.192 186.246 1074.301 184.869 L 1074.301 184.869 L 1074.301 184.869 Q 1074.41 183.493 1074.49 182.175 L 1074.49 182.175 L 1074.49 182.175 Q 1074.57 180.857 1074.575 179.773 L 1074.575 179.773 L 1074.575 179.773 Q 1074.591 176.462 1073.771 176.458 L 1073.771 176.458 L 1073.771 176.458 Q 1073.566 176.457 1073.302 176.603 L 1073.302 176.603 L 1073.302 176.603 Q 1073.037 176.748 1072.669 177.2 L 1072.669 177.2 L 1072.669 177.2 Q 1072.3 177.652 1071.813 178.485 L 1071.813 178.485 L 1071.813 178.485 Q 1071.325 179.317 1070.718 180.706 L 1070.718 180.706 L 1070.718 180.706 Q 1070.11 182.095 1069.324 184.098 L 1069.324 184.098 L 1069.324 184.098 Q 1068.538 186.101 1067.587 188.909 L 1067.587 188.909 L 1067.587 188.909 Q 1067.378 189.523 1067.124 190.708 L 1067.124 190.708 L 1067.124 190.708 Q 1066.869 191.893 1066.658 193.123 L 1066.658 193.123 L 1066.658 193.123 Q 1066.446 194.352 1066.309 195.392 L 1066.309 195.392 L 1066.309 195.392 Q 1066.172 196.431 1066.171 196.753 L 1066.171 196.753 L 1066.171 196.753 Q 1066.17 196.841 1065.862 197.03 L 1065.862 197.03 L 1065.862 197.03 Q 1065.553 197.219 1065.142 197.393 L 1065.142 197.393 L 1065.142 197.393 Q 1064.731 197.566 1064.306 197.696 L 1064.306 197.696 L 1064.306 197.696 Q 1063.88 197.826 1063.646 197.825 L 1063.646 197.825 L 1063.646 197.825 Q 1063.148 197.822 1062.886 197.543 L 1062.886 197.543 L 1062.886 197.543 Q 1062.623 197.263 1062.495 196.515 L 1062.495 196.515 L 1062.495 196.515 Q 1062.367 195.768 1062.359 194.464 L 1062.359 194.464 L 1062.359 194.464 Q 1062.351 193.16 1062.361 191.109 L 1062.361 191.109 L 1062.361 191.109 Q 1062.363 190.582 1062.415 189.029 L 1062.415 189.029 L 1062.415 189.029 Q 1062.467 187.477 1062.594 185.456 L 1062.594 185.456 L 1062.594 185.456 Q 1062.721 183.435 1062.908 181.224 L 1062.908 181.224 L 1062.908 181.224 Q 1063.094 179.013 1063.338 177.169 L 1063.338 177.169 L 1063.338 177.169 Q 1063.581 175.324 1063.909 174.125 L 1063.909 174.125 L 1063.909 174.125 Q 1064.238 172.925 1064.648 172.927 L 1064.648 172.927 L 1064.648 172.927 Q 1064.853 172.928 1065.028 173.075 L 1065.028 173.075 L 1065.028 173.075 Q 1065.203 173.223 1065.349 173.385 L 1065.349 173.385 L 1065.349 173.385 Q 1065.494 173.546 1065.625 173.694 L 1065.625 173.694 L 1065.625 173.694 Q 1065.757 173.841 1065.903 173.841 L 1065.903 173.841 L 1065.903 173.841 Q 1066.02 173.842 1066.153 173.725 L 1066.153 173.725 L 1066.153 173.725 Q 1066.285 173.609 1066.388 173.448 L 1066.388 173.448 L 1066.388 173.448 Q 1066.492 173.288 1066.595 173.171 L 1066.595 173.171 L 1066.595 173.171 Q 1066.698 173.054 1066.757 173.055 L 1066.757 173.055 L 1066.757 173.055 Q 1066.844 173.055 1067.019 173.349 L 1067.019 173.349 L 1067.019 173.349 Q 1067.193 173.643 1067.352 174.039 L 1067.352 174.039 L 1067.352 174.039 Q 1067.512 174.435 1067.641 174.861 L 1067.641 174.861 L 1067.641 174.861 Q 1067.771 175.286 1067.77 175.521 L 1067.77 175.521 L 1067.77 175.521 Q 1067.767 176.107 1067.659 177.19 L 1067.659 177.19 L 1067.659 177.19 Q 1067.551 178.273 1067.413 179.576 L 1067.413 179.576 L 1067.413 179.576 Q 1067.275 180.88 1067.165 182.227 L 1067.165 182.227 L 1067.165 182.227 Q 1067.056 183.574 1067.051 184.716 L 1067.051 184.716 L 1067.05 184.834 L 1067.05 184.834 Q 1067.437 183.576 1067.956 182.245 L 1067.956 182.245 L 1067.956 182.245 Q 1068.476 180.915 1069.097 179.643 L 1069.097 179.643 L 1069.097 179.643 Q 1069.719 178.372 1070.413 177.233 L 1070.413 177.233 L 1070.413 177.233 Q 1071.107 176.094 1071.873 175.248 L 1071.873 175.248 L 1071.873 175.248 Q 1072.639 174.402 1073.432 173.908 L 1073.432 173.908 L 1073.432 173.908 Q 1074.226 173.414 1075.046 173.418 L 1075.046 173.418 L 1075.046 173.418 Q 1076.042 173.423 1076.758 173.763 L 1076.758 173.763 L 1076.758 173.763 Q 1077.474 174.104 1077.911 174.706 L 1077.911 174.706 L 1077.911 174.706 Q 1078.347 175.309 1078.548 176.086 L 1078.548 176.086 L 1078.548 176.086 Q 1078.75 176.864 1078.745 177.743 L 1078.745 177.743 L 1078.745 177.743 Q 1078.742 178.504 1078.634 179.5 L 1078.634 179.5 L 1078.634 179.5 Q 1078.527 180.496 1078.403 181.711 L 1078.403 181.711 L 1078.403 181.711 Q 1078.28 182.926 1078.171 184.376 L 1078.171 184.376 L 1078.171 184.376 Q 1078.061 185.825 1078.023 187.524 L 1078.023 187.524 L 1078.023 187.524 Q 1078.409 186.472 1078.959 184.995 L 1078.959 184.995 L 1078.959 184.995 Q 1079.508 183.518 1080.175 181.939 L 1080.175 181.939 L 1080.175 181.939 Q 1080.842 180.361 1081.597 178.812 L 1081.597 178.812 L 1081.597 178.812 Q 1082.351 177.262 1083.119 176.036 L 1083.119 176.036 L 1083.119 176.036 Q 1083.887 174.809 1084.667 174.051 L 1084.667 174.051 L 1084.667 174.051 Q 1085.447 173.293 1086.15 173.297 L 1086.15 173.297 L 1086.15 173.297 Q 1086.355 173.298 1087.072 173.433 L 1087.072 173.433 L 1087.072 173.433 Q 1087.789 173.569 1088.594 173.822 L 1088.594 173.822 L 1088.594 173.822 Q 1089.398 174.075 1090.1 174.444 L 1090.1 174.444 L 1090.1 174.444 Q 1090.801 174.814 1091.033 175.284 L 1091.033 175.284 L 1091.033 175.284 Q 1091.265 175.783 1091.451 176.678 L 1091.451 176.678 L 1091.451 176.678 Q 1091.637 177.572 1091.63 179.066 L 1091.63 179.066 L 1091.63 179.066 Q 1091.623 180.384 1091.424 182.215 L 1091.424 182.215 L 1091.424 182.215 Q 1091.224 184.045 1090.743 186.62 L 1090.743 186.62 L 1090.743 186.62 Q 1090.592 187.469 1090.544 188.26 L 1090.544 188.26 L 1090.544 188.26 Q 1090.496 189.051 1090.493 189.813 L 1090.493 189.813 L 1090.493 189.813 Q 1090.487 190.926 1090.585 191.893 L 1090.585 191.893 L 1090.585 191.893 Q 1090.683 192.86 1090.825 193.623 L 1090.825 193.623 L 1090.825 193.623 Q 1090.968 194.385 1091.112 194.928 L 1091.112 194.928 L 1091.112 194.928 Q 1091.256 195.471 1091.372 195.676 Z  M 1108.821 162.288 L 1108.821 162.288 L 1108.821 162.288 Q 1108.77 162.872 1108.599 163.573 L 1108.599 163.573 L 1108.599 163.573 Q 1108.429 164.274 1108.177 164.92 L 1108.177 164.92 L 1108.177 164.92 Q 1107.925 165.565 1107.577 166.049 L 1107.577 166.049 L 1107.577 166.049 Q 1107.229 166.534 1106.824 166.685 L 1106.824 166.685 L 1106.824 166.685 Q 1105.798 167.046 1105.072 166.945 L 1105.072 166.945 L 1105.072 166.945 Q 1104.492 166.865 1104.109 166.531 L 1104.109 166.531 L 1104.109 166.531 Q 1103.727 166.197 1103.368 165.793 L 1103.368 165.793 L 1103.368 165.793 Q 1102.852 165.248 1102.565 164.44 L 1102.565 164.44 L 1102.565 164.44 Q 1102.277 163.631 1102.373 162.934 L 1102.373 162.934 L 1102.373 162.934 Q 1102.45 162.383 1102.749 161.611 L 1102.749 161.611 L 1102.749 161.611 Q 1103.047 160.839 1103.442 160.125 L 1103.442 160.125 L 1103.442 160.125 Q 1103.836 159.41 1104.256 158.832 L 1104.256 158.832 L 1104.256 158.832 Q 1104.676 158.255 1105.028 158.066 L 1105.028 158.066 L 1105.028 158.066 Q 1105.577 157.728 1106.004 157.743 L 1106.004 157.743 L 1106.004 157.743 Q 1106.431 157.758 1106.68 157.881 L 1106.68 157.881 L 1106.68 157.881 Q 1107.298 158.114 1107.762 158.4 L 1107.762 158.4 L 1107.762 158.4 Q 1108.225 158.686 1108.497 159.182 L 1108.497 159.182 L 1108.497 159.182 Q 1108.768 159.678 1108.842 160.427 L 1108.842 160.427 L 1108.842 160.427 Q 1108.916 161.177 1108.821 162.288 Z  M 1104.649 174.931 L 1104.649 174.931 L 1104.649 174.931 Q 1104.774 175.096 1104.734 175.919 L 1104.734 175.919 L 1104.734 175.919 Q 1104.694 176.742 1104.514 178.048 L 1104.514 178.048 L 1104.514 178.048 Q 1104.394 178.918 1104.224 179.93 L 1104.224 179.93 L 1104.224 179.93 Q 1104.055 180.942 1103.863 182.009 L 1103.863 182.009 L 1103.863 182.009 Q 1103.671 183.077 1103.463 184.157 L 1103.463 184.157 L 1103.463 184.157 Q 1103.254 185.238 1103.089 186.22 L 1103.089 186.22 L 1103.089 186.22 Q 1102.777 187.834 1102.572 189.21 L 1102.572 189.21 L 1102.572 189.21 Q 1102.367 190.587 1102.191 191.863 L 1102.191 191.863 L 1102.191 191.863 Q 1101.958 193.547 1101.794 194.944 L 1101.794 194.944 L 1101.794 194.944 Q 1101.631 196.341 1101.503 197.269 L 1101.503 197.269 L 1101.503 197.269 Q 1101.362 198.285 1101.215 198.812 L 1101.215 198.812 L 1101.215 198.812 Q 1101.069 199.339 1100.828 199.365 L 1100.828 199.365 L 1100.828 199.365 Q 1100.559 199.387 1100.359 199.551 L 1100.359 199.551 L 1100.359 199.551 Q 1100.159 199.716 1099.99 199.87 L 1099.99 199.87 L 1099.99 199.87 Q 1099.821 200.024 1099.614 200.129 L 1099.614 200.129 L 1099.614 200.129 Q 1099.407 200.233 1099.154 200.139 L 1099.154 200.139 L 1099.154 200.139 Q 1099.013 200.09 1098.697 199.81 L 1098.697 199.81 L 1098.697 199.81 Q 1098.381 199.529 1098.035 199.141 L 1098.035 199.141 L 1098.035 199.141 Q 1097.689 198.754 1097.401 198.27 L 1097.401 198.27 L 1097.401 198.27 Q 1097.113 197.787 1097.061 197.306 L 1097.061 197.306 L 1097.061 197.306 Q 1097.035 197.066 1097.088 196.364 L 1097.088 196.364 L 1097.088 196.364 Q 1097.141 195.661 1097.248 194.67 L 1097.248 194.67 L 1097.248 194.67 Q 1097.355 193.68 1097.493 192.471 L 1097.493 192.471 L 1097.493 192.471 Q 1097.63 191.263 1097.786 190.027 L 1097.786 190.027 L 1097.786 190.027 Q 1097.942 188.792 1098.107 187.602 L 1098.107 187.602 L 1098.107 187.602 Q 1098.271 186.412 1098.403 185.455 L 1098.403 185.455 L 1098.403 185.455 Q 1098.608 183.975 1098.922 182.45 L 1098.922 182.45 L 1098.922 182.45 Q 1099.236 180.926 1099.551 179.609 L 1099.551 179.609 L 1099.551 179.609 Q 1099.866 178.293 1100.135 177.309 L 1100.135 177.309 L 1100.135 177.309 Q 1100.404 176.326 1100.518 175.928 L 1100.518 175.928 L 1100.518 175.928 Q 1100.731 175.247 1100.916 174.874 L 1100.916 174.874 L 1100.916 174.874 Q 1101.1 174.5 1101.284 174.348 L 1101.284 174.348 L 1101.284 174.348 Q 1101.468 174.196 1101.633 174.174 L 1101.633 174.174 L 1101.633 174.174 Q 1101.799 174.153 1101.977 174.148 L 1101.977 174.148 L 1101.977 174.148 Q 1102.333 174.138 1102.779 174.229 L 1102.779 174.229 L 1102.779 174.229 Q 1103.225 174.32 1103.623 174.435 L 1103.623 174.435 L 1103.623 174.435 Q 1104.022 174.549 1104.312 174.692 L 1104.312 174.692 L 1104.312 174.692 Q 1104.603 174.836 1104.649 174.931 Z " fill-rule="evenodd" fill="rgb(0,0,0)"/></g></g></svg>