<?xml version="1.0" standalone="no"?><!-- Generator: Gravit.io --><svg xmlns="http://www.w3.org/2000/svg" xmlns:xlink="http://www.w3.org/1999/xlink" style="isolation:isolate" viewBox="949.091 500.777 265 228.495" width="265" height="228.495"><g><g><path d=" M 1014.182 654.319 C 1014.182 617.115 1044.387 586.91 1081.591 586.91 C 1118.795 586.91 1149 617.115 1149 654.319 C 1149 691.523 1118.795 721.728 1081.591 721.728 C 1044.387 721.728 1014.182 691.523 1014.182 654.319 Z " fill="rgb(187,49,49)" vector-effect="non-scaling-stroke" stroke-width="4" stroke="rgb(0,0,0)" stroke-linejoin="round" stroke-linecap="butt" stroke-miterlimit="1.414"/><g><path d=" M 1117.739 704.056 L 1117.739 719.8 C 1117.739 720.925 1116.823 721.841 1115.697 721.841 L 1052.66 721.841 C 1051.532 721.841 1050.616 720.925 1050.616 719.8 L 1050.616 704.056 C 1050.616 696.242 1055.646 689.337 1063.037 686.916 C 1063.192 686.865 1063.348 686.815 1063.506 686.769 L 1067.131 685.689 C 1068.971 685.143 1070.488 683.95 1071.464 682.404 C 1071.841 681.812 1072.135 681.16 1072.339 680.475 C 1072.549 679.776 1072.659 679.035 1072.659 678.275 L 1072.659 671.112 L 1093.905 667.363 L 1093.905 677.74 C 1093.905 678.695 1094.08 679.62 1094.406 680.475 C 1094.406 680.478 1094.408 680.48 1094.408 680.484 C 1094.754 681.393 1095.266 682.228 1095.918 682.942 C 1096.845 683.961 1098.047 684.738 1099.433 685.154 L 1104.079 686.538 L 1104.852 686.769 C 1104.872 686.774 1104.892 686.78 1104.912 686.787 C 1112.528 689.084 1117.739 696.098 1117.739 704.056 L 1117.739 704.056 Z " fill="rgb(255,192,136)"/><path d=" M 1104.912 686.787 C 1104.892 686.781 1104.872 686.775 1104.852 686.769 L 1104.081 686.538 L 1099.433 685.154 C 1098.049 684.739 1096.845 683.961 1095.918 682.943 C 1095.268 682.228 1094.755 681.394 1094.408 680.484 C 1094.408 680.48 1094.406 680.478 1094.406 680.475 C 1094.081 679.62 1093.905 678.695 1093.905 677.74 L 1093.905 667.363 L 1072.659 671.112 L 1072.659 672.059 L 1086.936 669.54 L 1086.936 679.917 C 1086.936 680.873 1087.111 681.797 1087.436 682.652 C 1087.436 682.655 1087.439 682.657 1087.439 682.661 C 1087.785 683.571 1088.297 684.405 1088.948 685.119 C 1089.875 686.138 1091.078 686.916 1092.464 687.331 L 1097.11 688.715 L 1097.883 688.946 C 1097.902 688.952 1097.922 688.958 1097.942 688.964 C 1105.559 691.26 1110.77 698.275 1110.77 706.233 L 1110.77 721.841 L 1115.697 721.841 C 1116.823 721.841 1117.739 720.925 1117.739 719.8 L 1117.739 704.056 C 1117.739 696.098 1112.528 689.084 1104.912 686.787 Z " fill="rgb(244,163,122)"/><path d=" M 1093.905 667.363 L 1093.905 673.343 C 1089.946 676.196 1085.086 677.875 1079.831 677.875 C 1077.335 677.875 1074.925 677.495 1072.659 676.792 L 1072.659 671.112 L 1093.905 667.363 Z " fill="rgb(244,163,122)"/><path d=" M 1079.832 673.988 C 1066.517 673.988 1055.724 663.193 1055.724 649.878 L 1055.724 603.486 L 1103.942 603.486 L 1103.942 649.878 C 1103.942 663.193 1093.148 673.988 1079.832 673.988 Z " fill="rgb(255,192,136)"/><path d=" M 1105.95 646.773 L 1103.942 646.773 L 1103.942 630.335 L 1105.95 630.335 C 1110.49 630.335 1114.169 634.015 1114.169 638.554 C 1114.169 643.093 1110.49 646.773 1105.95 646.773 Z " fill="rgb(244,163,122)"/><path d=" M 1082.907 689.746 L 1074.841 693.642 L 1064.566 689.746 L 1063.037 686.916 C 1063.192 686.865 1063.348 686.815 1063.506 686.769 L 1067.131 685.689 C 1068.971 685.143 1070.488 683.95 1071.464 682.404 C 1071.841 681.812 1072.135 681.16 1072.339 680.475 L 1072.443 680.475 C 1073.05 680.455 1077.656 680.387 1080.688 684.046 C 1082.548 686.291 1082.843 688.765 1082.907 689.746 Z " fill="rgb(150,160,239)"/><path d=" M 1104.912 686.787 L 1102.309 689.746 L 1092.036 693.642 L 1083.968 689.746 C 1084.032 688.765 1084.328 686.291 1086.189 684.045 C 1089.175 680.441 1093.689 680.454 1094.406 680.475 C 1094.406 680.478 1094.408 680.48 1094.408 680.484 C 1094.754 681.394 1095.266 682.228 1095.918 682.943 C 1096.845 683.961 1098.049 684.739 1099.433 685.154 L 1104.081 686.538 L 1104.852 686.769 C 1104.872 686.775 1104.892 686.781 1104.912 686.787 L 1104.912 686.787 Z " fill="rgb(150,160,239)"/><path d=" M 1117.739 704.056 L 1117.739 711.735 L 1105.036 711.735 L 1105.036 721.841 L 1063.717 721.841 L 1063.717 711.735 L 1050.616 711.735 L 1050.616 704.056 C 1050.616 696.077 1055.859 689.046 1063.507 686.769 L 1067.131 685.689 C 1069.662 687.091 1075.495 689.882 1083.393 689.74 C 1091.244 689.599 1096.949 686.64 1099.433 685.154 L 1104.852 686.769 C 1112.498 689.046 1117.739 696.077 1117.739 704.056 L 1117.739 704.056 Z " fill="rgb(247,247,247)"/><path d=" M 1103.942 630.335 L 1100.477 630.335 C 1098.519 630.335 1096.932 628.749 1096.932 626.793 L 1096.932 626.273 C 1096.932 625.267 1096.536 624.303 1095.829 623.586 L 1091.729 619.434 C 1091.022 618.717 1090.626 617.751 1090.626 616.747 L 1090.626 612.685 L 1103.942 612.685 L 1103.942 630.335 Z " fill="rgb(113,85,57)"/><path d=" M 1109.051 584.857 C 1108.923 581.096 1105.73 578.159 1101.967 578.159 L 1057.52 578.159 C 1053.724 578.159 1050.514 581.142 1050.427 584.937 C 1050.368 587.535 1051.737 589.817 1053.804 591.056 C 1054.996 591.771 1055.724 593.061 1055.724 594.451 L 1055.724 621.509 L 1103.942 621.509 L 1103.942 594.339 C 1103.942 592.987 1104.62 591.713 1105.769 591.001 C 1107.806 589.737 1109.14 587.451 1109.051 584.857 Z " fill="rgb(239,239,239)"/><path d=" M 1109.052 584.857 C 1108.923 581.096 1105.73 578.159 1101.967 578.159 L 1092.926 578.159 C 1096.69 578.159 1099.883 581.095 1100.011 584.857 C 1100.1 587.451 1098.766 589.737 1096.729 591.001 C 1095.58 591.713 1094.902 592.987 1094.902 594.339 L 1094.902 621.509 L 1103.942 621.509 L 1103.942 594.339 C 1103.942 592.987 1104.62 591.713 1105.769 591.001 C 1107.806 589.737 1109.14 587.451 1109.052 584.857 Z " fill="rgb(225,225,227)"/><path d=" M 1055.724 610.246 L 1103.942 610.246 L 1103.942 621.509 L 1055.724 621.509 L 1055.724 610.246 Z " fill="rgb(225,225,227)"/><path d=" M 1094.897 610.246 L 1103.937 610.246 L 1103.937 621.509 L 1094.897 621.509 L 1094.897 610.246 Z " fill="rgb(200,198,205)"/><path d=" M 1104.912 686.787 C 1104.892 686.781 1104.872 686.775 1104.852 686.769 L 1104.081 686.538 L 1099.433 685.154 C 1098.27 685.849 1096.401 686.868 1093.936 687.769 L 1097.11 688.715 L 1097.883 688.946 C 1097.902 688.951 1097.922 688.957 1097.942 688.962 C 1105.559 691.26 1110.77 698.275 1110.77 706.233 L 1110.77 711.734 L 1117.739 711.734 L 1117.739 704.056 C 1117.739 696.098 1112.528 689.084 1104.912 686.787 Z " fill="rgb(225,225,227)"/><path d=" M 1115.894 691.984 C 1113.274 688.47 1109.669 685.951 1105.468 684.7 L 1100.052 683.085 C 1099.076 682.793 1098.199 682.241 1097.513 681.489 C 1097.157 681.097 1096.861 680.66 1096.629 680.181 C 1096.583 679.857 1096.462 679.554 1096.286 679.292 C 1096.14 678.792 1096.065 678.272 1096.065 677.74 L 1096.065 670.529 C 1102.368 665.565 1106.101 657.929 1106.101 649.878 L 1106.101 648.93 C 1111.754 648.848 1116.33 644.227 1116.33 638.555 C 1116.33 632.882 1111.754 628.262 1106.101 628.18 L 1106.101 594.339 C 1106.101 593.72 1106.41 593.144 1106.907 592.836 C 1109.672 591.12 1111.321 588.036 1111.21 584.784 C 1111.045 579.941 1106.898 576 1101.967 576 L 1098.86 576 C 1097.668 576 1096.702 576.967 1096.702 578.159 C 1096.702 579.351 1097.668 580.319 1098.86 580.319 L 1101.967 580.319 C 1104.597 580.319 1106.807 582.388 1106.893 584.93 C 1106.952 586.641 1106.085 588.264 1104.63 589.165 C 1102.875 590.254 1101.783 592.237 1101.783 594.339 L 1101.783 608.085 L 1063.214 608.085 C 1062.022 608.085 1061.055 609.051 1061.055 610.244 C 1061.055 611.436 1062.022 612.403 1063.214 612.403 L 1101.782 612.403 L 1101.782 619.35 L 1098.064 619.35 L 1098.064 617.205 C 1098.064 616.013 1097.098 615.046 1095.905 615.046 C 1094.713 615.046 1093.745 616.013 1093.745 617.205 L 1093.745 619.35 L 1090.028 619.35 L 1090.028 617.205 C 1090.028 616.013 1089.062 615.046 1087.868 615.046 C 1086.676 615.046 1085.709 616.013 1085.709 617.205 L 1085.709 619.35 L 1081.992 619.35 L 1081.992 617.205 C 1081.992 616.013 1081.026 615.046 1079.833 615.046 C 1078.64 615.046 1077.673 616.013 1077.673 617.205 L 1077.673 619.35 L 1073.956 619.35 L 1073.956 617.205 C 1073.956 616.013 1072.989 615.046 1071.797 615.046 C 1070.603 615.046 1069.637 616.013 1069.637 617.205 L 1069.637 619.35 L 1065.92 619.35 L 1065.92 617.205 C 1065.92 616.013 1064.953 615.046 1063.761 615.046 C 1062.567 615.046 1061.601 616.013 1061.601 617.205 L 1061.601 619.35 L 1057.884 619.35 L 1057.884 603.486 C 1057.884 603.484 1057.884 603.481 1057.884 603.48 L 1057.884 594.451 C 1057.884 592.312 1056.745 590.301 1054.914 589.203 C 1053.439 588.32 1052.547 586.704 1052.587 584.987 C 1052.645 582.412 1054.859 580.319 1057.521 580.319 L 1090.031 580.319 C 1091.223 580.319 1092.189 579.351 1092.189 578.159 C 1092.189 576.967 1091.223 576 1090.029 576 L 1057.52 576 C 1052.53 576 1048.38 579.987 1048.268 584.889 C 1048.193 588.155 1049.889 591.229 1052.694 592.909 C 1053.23 593.23 1053.563 593.821 1053.563 594.453 L 1053.563 621.51 C 1053.563 621.512 1053.565 621.514 1053.565 621.516 L 1053.565 630.334 C 1053.565 631.527 1054.531 632.494 1055.724 632.494 C 1056.916 632.494 1057.882 631.526 1057.882 630.334 L 1057.882 623.669 L 1063.756 623.669 L 1063.76 623.669 L 1063.762 623.669 L 1071.794 623.669 L 1071.796 623.669 L 1071.799 623.669 L 1079.83 623.669 L 1079.832 623.669 L 1079.835 623.669 L 1087.866 623.669 L 1087.868 623.669 L 1087.872 623.669 L 1092.876 623.669 L 1094.292 625.102 C 1094.601 625.415 1094.772 625.832 1094.772 626.274 L 1094.772 626.793 C 1094.772 629.936 1097.332 632.494 1100.479 632.494 L 1101.782 632.494 L 1101.782 649.878 C 1101.782 656.919 1098.366 663.584 1092.642 667.704 C 1088.898 670.403 1084.468 671.829 1079.831 671.829 C 1077.926 671.829 1076.045 671.586 1074.233 671.105 C 1064.607 668.577 1057.882 659.847 1057.882 649.878 L 1057.882 638.737 C 1057.882 637.544 1056.916 636.578 1055.724 636.578 C 1054.531 636.578 1053.565 637.544 1053.565 638.737 L 1053.565 649.878 C 1053.565 660.877 1060.407 670.609 1070.5 674.434 L 1070.5 678.275 C 1070.5 679.331 1070.203 680.359 1069.638 681.251 C 1068.917 682.394 1067.808 683.235 1066.515 683.619 L 1062.89 684.699 C 1058.689 685.951 1055.082 688.47 1052.463 691.984 C 1049.842 695.498 1048.456 699.672 1048.456 704.056 L 1048.456 711.718 C 1048.456 711.724 1048.455 711.73 1048.455 711.735 C 1048.455 711.741 1048.456 711.745 1048.456 711.752 L 1048.456 719.8 C 1048.456 722.115 1050.342 724 1052.66 724 L 1115.697 724 C 1118.013 724 1119.898 722.115 1119.898 719.8 L 1119.898 704.056 C 1119.899 699.672 1118.513 695.498 1115.894 691.984 L 1115.894 691.984 Z  M 1112.011 638.554 C 1112.011 641.845 1109.373 644.532 1106.101 644.612 L 1106.101 632.496 C 1109.373 632.576 1112.011 635.263 1112.011 638.554 Z  M 1099.091 626.793 L 1099.091 626.274 C 1099.091 625.356 1098.879 624.472 1098.49 623.669 L 1101.782 623.669 L 1101.782 628.175 L 1100.479 628.175 C 1099.713 628.175 1099.091 627.555 1099.091 626.793 Z  M 1073.29 683.558 C 1073.38 683.414 1073.464 683.266 1073.547 683.118 C 1077.664 684.544 1078.967 685.437 1079.193 685.608 C 1079.651 686.107 1080.012 686.732 1080.274 687.475 C 1076.956 687.196 1074.071 686.402 1071.715 685.469 C 1072.313 684.904 1072.844 684.264 1073.29 683.558 L 1073.29 683.558 Z  M 1079.13 685.54 C 1079.144 685.556 1079.159 685.572 1079.174 685.587 C 1079.142 685.557 1079.13 685.54 1079.13 685.54 Z  M 1093.072 682.686 C 1093.426 683.298 1093.841 683.87 1094.32 684.396 C 1094.523 684.62 1094.739 684.829 1094.96 685.032 C 1092.689 686.029 1089.903 686.919 1086.675 687.335 C 1086.87 686.627 1087.23 685.847 1087.875 685.104 C 1089.412 683.338 1091.666 682.827 1093.072 682.686 Z  M 1091.746 673.298 L 1091.746 677.74 C 1091.746 677.997 1091.757 678.254 1091.777 678.508 C 1089.651 678.853 1086.774 679.79 1084.617 682.27 C 1084.115 682.847 1083.713 683.439 1083.39 684.026 C 1083.057 683.492 1082.676 682.999 1082.247 682.551 C 1081.79 682.075 1080.176 680.829 1074.794 678.98 C 1074.811 678.746 1074.819 678.511 1074.819 678.275 L 1074.819 675.667 C 1076.459 675.985 1078.138 676.148 1079.831 676.148 C 1084.026 676.148 1088.08 675.17 1091.746 673.298 Z  M 1052.775 713.894 L 1061.557 713.894 L 1061.557 719.681 L 1052.775 719.681 L 1052.775 713.894 Z  M 1074.603 719.681 L 1074.603 701.643 C 1075.958 701.632 1077.925 701.55 1080.126 701.249 C 1081.308 701.087 1082.134 699.998 1081.973 698.817 C 1081.81 697.634 1080.721 696.809 1079.541 696.969 C 1077.392 697.264 1075.488 697.326 1074.269 697.326 C 1072.071 697.326 1070.284 699.111 1070.284 701.306 L 1070.284 719.681 L 1065.875 719.681 L 1065.875 711.734 C 1065.875 710.542 1064.908 709.575 1063.716 709.575 L 1052.775 709.575 L 1052.775 704.056 C 1052.775 697.086 1057.442 690.828 1064.123 688.838 L 1066.896 688.013 C 1070.52 689.894 1075.988 691.905 1082.812 691.905 C 1082.839 691.905 1082.867 691.905 1082.894 691.904 C 1082.898 691.904 1082.9 691.905 1082.903 691.905 C 1082.91 691.905 1082.916 691.904 1082.923 691.904 C 1083.092 691.904 1083.26 691.903 1083.432 691.899 C 1083.725 691.895 1084.011 691.879 1084.3 691.867 C 1084.315 691.867 1084.328 691.869 1084.344 691.869 C 1084.421 691.869 1084.498 691.864 1084.576 691.856 C 1084.577 691.856 1084.577 691.855 1084.578 691.855 C 1087.875 691.687 1090.83 691.066 1093.391 690.241 C 1091.977 691.745 1090.16 693.276 1087.889 694.485 C 1086.835 695.046 1086.436 696.354 1086.996 697.406 C 1087.385 698.136 1088.132 698.551 1088.905 698.551 C 1089.247 698.551 1089.595 698.47 1089.918 698.298 C 1095.781 695.177 1099.1 690.329 1100.549 687.74 L 1104.235 688.838 C 1110.915 690.828 1115.58 697.086 1115.58 704.056 L 1115.58 709.575 L 1105.036 709.575 C 1103.843 709.575 1102.876 710.542 1102.876 711.734 L 1102.876 719.681 L 1074.603 719.681 Z  M 1107.195 719.681 L 1107.195 713.894 L 1115.58 713.894 L 1115.58 719.681 L 1107.195 719.681 Z " fill="rgb(0,0,0)"/><path d=" M 1068.006 635.437 C 1068.006 636.761 1066.934 637.833 1065.61 637.833 C 1064.288 637.833 1063.214 636.761 1063.214 635.437 C 1063.214 634.114 1064.288 633.041 1065.61 633.041 C 1066.934 633.041 1068.006 634.114 1068.006 635.437 Z " fill="rgb(0,0,0)"/><path d=" M 1087.178 635.437 C 1087.178 636.761 1086.106 637.833 1084.782 637.833 C 1083.459 637.833 1082.386 636.761 1082.386 635.437 C 1082.386 634.114 1083.459 633.041 1084.782 633.041 C 1086.106 633.041 1087.178 634.114 1087.178 635.437 Z " fill="rgb(0,0,0)"/><path d=" M 1080.617 653.769 C 1080.112 654.502 1078.981 655.835 1077.081 656.531 C 1074.601 657.44 1072.39 656.703 1071.554 656.342 C 1070.46 655.872 1069.189 656.376 1068.717 657.472 C 1068.246 658.567 1068.751 659.837 1069.846 660.309 C 1070.69 660.674 1072.435 661.284 1074.624 661.284 C 1075.829 661.284 1077.169 661.098 1078.567 660.586 C 1081.589 659.479 1083.375 657.376 1084.172 656.222 C 1084.849 655.239 1084.603 653.894 1083.62 653.218 C 1082.639 652.541 1081.294 652.788 1080.617 653.769 L 1080.617 653.769 Z " fill="rgb(0,0,0)"/><path d=" M 1082 706.142 C 1082 707.466 1080.927 708.539 1079.604 708.539 C 1078.281 708.539 1077.208 707.466 1077.208 706.142 C 1077.208 704.819 1078.281 703.746 1079.604 703.746 C 1080.927 703.746 1082 704.819 1082 706.142 Z " fill="rgb(0,0,0)"/><path d=" M 1082 714.423 C 1082 715.746 1080.927 716.819 1079.604 716.819 C 1078.281 716.819 1077.208 715.746 1077.208 714.423 C 1077.208 713.099 1078.281 712.026 1079.604 712.026 C 1080.927 712.026 1082 713.099 1082 714.423 Z " fill="rgb(0,0,0)"/></g></g><g><ellipse vector-effect="non-scaling-stroke" cx="1081.5911306904127" cy="635.2717657835191" rx="132.5" ry="94" fill="none"/><path d=" M 1165.212 558.754 L 1165.212 558.754 L 1165.212 558.754 Q 1165.073 558.951 1165.008 559.162 L 1165.008 559.162 L 1165.008 559.162 Q 1164.942 559.372 1164.87 559.438 L 1164.87 559.438 L 1164.87 559.438 Q 1164.797 559.504 1164.681 559.318 L 1164.681 559.318 L 1164.681 559.318 Q 1164.564 559.132 1164.323 558.536 L 1164.323 558.536 L 1163.696 558.044 L 1163.28 558.228 L 1163.28 558.228 Q 1163.166 558.279 1163.063 558.302 L 1163.063 558.302 L 1163.063 558.302 Q 1162.77 558.409 1162.651 558.19 L 1162.651 558.19 L 1162.651 558.19 Q 1162.531 557.971 1162.342 557.647 L 1162.342 557.647 L 1162.342 557.647 Q 1162.197 557.371 1162.122 557.28 L 1162.122 557.28 L 1162.122 557.28 Q 1162.048 557.188 1162.018 557.224 L 1162.018 557.224 L 1162.018 557.224 Q 1161.989 557.26 1161.945 557.415 L 1161.945 557.415 L 1161.945 557.415 Q 1161.9 557.571 1161.799 557.752 L 1161.799 557.752 L 1161.799 557.752 Q 1161.768 557.834 1161.552 557.986 L 1161.552 557.986 L 1161.552 557.986 Q 1161.336 558.138 1161.305 558.22 L 1161.305 558.22 L 1161.305 558.22 Q 1161.155 558.445 1161.077 558.321 L 1161.077 558.321 L 1161.077 558.321 Q 1161 558.197 1160.88 558.182 L 1160.88 558.182 L 1160.88 558.182 Q 1160.825 558.161 1160.737 558.064 L 1160.737 558.064 L 1160.737 558.064 Q 1160.676 557.978 1160.595 557.821 L 1160.595 557.821 L 1160.595 557.821 Q 1160.514 557.664 1160.472 557.366 L 1160.472 557.366 L 1160.472 557.366 Q 1160.468 557.05 1160.455 556.841 L 1160.455 556.841 L 1160.455 556.841 Q 1160.441 556.632 1160.433 556.409 L 1160.433 556.409 L 1160.433 556.409 Q 1160.425 556.186 1160.435 555.875 L 1160.435 555.875 L 1160.435 555.875 Q 1160.444 555.565 1160.504 555.086 L 1160.504 555.086 L 1160.504 555.086 Q 1160.59 554.617 1160.907 553.389 L 1160.907 553.389 L 1160.907 553.389 Q 1161.223 552.16 1161.697 550.443 L 1161.697 550.443 L 1161.697 550.443 Q 1162.171 548.726 1162.756 546.597 L 1162.756 546.597 L 1162.756 546.597 Q 1163.342 544.468 1164.001 542.148 L 1164.001 542.148 L 1164.001 542.148 Q 1164.66 539.827 1165.332 537.433 L 1165.332 537.433 L 1165.332 537.433 Q 1166.004 535.039 1166.651 532.792 L 1166.651 532.792 L 1166.651 532.792 Q 1167.297 530.545 1167.882 528.541 L 1167.882 528.541 L 1167.882 528.541 Q 1168.466 526.537 1168.898 525.008 L 1168.898 525.008 L 1146.919 548.623 L 1146.919 548.623 Q 1146.285 549.289 1145.6 549.763 L 1145.6 549.763 L 1145.6 549.763 Q 1144.915 550.237 1144.311 550.459 L 1144.311 550.459 L 1144.311 550.459 Q 1143.708 550.682 1143.231 550.655 L 1143.231 550.655 L 1143.231 550.655 Q 1142.755 550.628 1142.555 550.332 L 1142.555 550.332 L 1142.555 550.332 Q 1142.251 549.9 1142.144 549.404 L 1142.144 549.404 L 1142.144 549.404 Q 1142.037 548.907 1142.033 548.388 L 1142.033 548.388 L 1142.033 548.388 Q 1142.029 547.868 1142.082 547.323 L 1142.082 547.323 L 1142.082 547.323 Q 1142.135 546.779 1142.144 546.185 L 1142.144 546.185 L 1142.144 546.185 Q 1142.177 545.287 1142.428 543.374 L 1142.428 543.374 L 1142.428 543.374 Q 1142.678 541.462 1143.033 538.914 L 1143.033 538.914 L 1143.033 538.914 Q 1143.387 536.366 1143.856 533.359 L 1143.856 533.359 L 1143.856 533.359 Q 1144.324 530.353 1144.797 527.254 L 1144.797 527.254 L 1144.797 527.254 Q 1145.27 524.155 1145.741 521.181 L 1145.741 521.181 L 1145.741 521.181 Q 1146.213 518.207 1146.589 515.684 L 1146.589 515.684 L 1146.589 515.684 Q 1146.084 516.588 1145.082 518.29 L 1145.082 518.29 L 1145.082 518.29 Q 1144.081 519.991 1142.783 522.176 L 1142.783 522.176 L 1142.783 522.176 Q 1141.486 524.36 1139.988 526.86 L 1139.988 526.86 L 1139.988 526.86 Q 1138.49 529.359 1137.006 531.864 L 1137.006 531.864 L 1137.006 531.864 Q 1135.522 534.369 1134.129 536.721 L 1134.129 536.721 L 1134.129 536.721 Q 1132.736 539.072 1131.614 540.963 L 1131.614 540.963 L 1131.614 540.963 Q 1130.492 542.854 1129.749 544.09 L 1129.749 544.09 L 1129.749 544.09 Q 1129.005 545.327 1128.851 545.644 L 1128.851 545.644 L 1128.851 545.644 Q 1128.756 545.89 1128.542 546.121 L 1128.542 546.121 L 1128.542 546.121 Q 1128.375 546.308 1128.125 546.51 L 1128.125 546.51 L 1128.125 546.51 Q 1127.874 546.712 1127.534 546.863 L 1127.534 546.863 L 1127.534 546.863 Q 1127.283 546.861 1127.033 546.858 L 1127.033 546.858 L 1127.033 546.858 Q 1126.783 546.856 1126.65 546.711 L 1126.65 546.711 L 1126.65 546.711 Q 1126.491 546.555 1126.542 546.339 L 1126.542 546.339 L 1126.542 546.339 Q 1126.594 546.124 1126.384 545.854 L 1126.384 545.854 L 1126.384 545.854 Q 1126.273 545.655 1126.108 545.512 L 1126.108 545.512 L 1126.108 545.512 Q 1125.943 545.37 1125.895 545.006 L 1125.895 545.006 L 1125.895 545.006 Q 1125.968 544.815 1125.956 544.685 L 1125.956 544.685 L 1125.956 544.685 Q 1125.95 544.619 1125.933 544.582 L 1125.933 544.582 L 1125.933 544.582 Q 1125.916 544.544 1125.893 544.441 L 1125.893 544.441 L 1125.893 544.441 Q 1125.87 544.338 1125.702 543.959 L 1125.702 543.959 L 1125.702 543.959 Q 1125.664 543.567 1125.749 543.145 L 1125.749 543.145 L 1125.749 543.145 Q 1125.833 542.722 1126.202 542.173 L 1126.202 542.173 L 1126.202 542.173 Q 1126.33 542.003 1126.805 541.26 L 1126.805 541.26 L 1126.805 541.26 Q 1127.28 540.517 1127.961 539.445 L 1127.961 539.445 L 1127.961 539.445 Q 1128.641 538.373 1129.457 537.07 L 1129.457 537.07 L 1129.457 537.07 Q 1130.273 535.768 1131.105 534.424 L 1131.105 534.424 L 1131.105 534.424 Q 1131.937 533.081 1132.686 531.831 L 1132.686 531.831 L 1132.686 531.831 Q 1133.435 530.581 1133.999 529.606 L 1133.999 529.606 L 1133.999 529.606 Q 1134.511 528.767 1135.518 527.256 L 1135.518 527.256 L 1135.518 527.256 Q 1136.525 525.744 1137.797 523.911 L 1137.797 523.911 L 1137.797 523.911 Q 1139.069 522.078 1140.483 520.08 L 1140.483 520.08 L 1140.483 520.08 Q 1141.897 518.082 1143.212 516.218 L 1143.212 516.218 L 1143.212 516.218 Q 1144.527 514.355 1145.62 512.782 L 1145.62 512.782 L 1145.62 512.782 Q 1146.713 511.21 1147.332 510.255 L 1147.332 510.255 L 1147.332 510.255 Q 1147.33 510.098 1147.356 509.95 L 1147.356 509.95 L 1147.356 509.95 Q 1147.381 509.803 1147.434 509.667 L 1147.434 509.667 L 1147.434 509.667 Q 1147.43 509.351 1147.591 509.382 L 1147.591 509.382 L 1147.591 509.382 Q 1147.752 509.412 1147.865 509.362 L 1147.865 509.362 L 1147.865 509.362 Q 1147.886 509.307 1147.924 509.29 L 1147.924 509.29 L 1147.924 509.29 Q 1147.962 509.274 1147.983 509.219 L 1147.983 509.219 L 1147.983 509.219 Q 1148.046 509.055 1148.101 509.076 L 1148.101 509.076 L 1148.101 509.076 Q 1148.238 508.721 1148.39 508.654 L 1148.39 508.654 L 1148.39 508.654 Q 1148.541 508.586 1148.675 508.606 L 1148.675 508.606 L 1148.675 508.606 Q 1148.808 508.627 1148.917 508.669 L 1148.917 508.669 L 1148.917 508.669 Q 1149.027 508.711 1149.117 508.557 L 1149.117 508.557 L 1149.117 508.557 Q 1149.309 508.223 1149.425 508.126 L 1149.425 508.126 L 1149.425 508.126 Q 1149.541 508.03 1149.631 508.08 L 1149.631 508.08 L 1149.631 508.08 Q 1149.721 508.131 1149.849 508.29 L 1149.849 508.29 L 1149.849 508.29 Q 1149.976 508.449 1150.179 508.653 L 1150.179 508.653 L 1150.179 508.653 Q 1150.295 508.76 1150.396 508.784 L 1150.396 508.784 L 1150.396 508.784 Q 1150.497 508.807 1150.601 508.863 L 1150.601 508.863 L 1150.601 508.863 Q 1150.705 508.918 1150.834 509.031 L 1150.834 509.031 L 1150.834 509.031 Q 1150.964 509.144 1151.119 509.392 L 1151.119 509.392 L 1151.119 509.392 Q 1151.23 509.592 1151.353 509.639 L 1151.353 509.639 L 1151.353 509.639 Q 1151.476 509.687 1151.604 509.642 L 1151.604 509.642 L 1151.604 509.642 Q 1151.731 509.597 1151.842 509.514 L 1151.842 509.514 L 1151.842 509.514 Q 1151.952 509.431 1152.038 509.37 L 1152.038 509.37 L 1152.038 509.37 Q 1152.173 509.265 1152.337 509.328 L 1152.337 509.328 L 1152.337 509.328 Q 1152.501 509.391 1152.585 509.58 L 1152.585 509.58 L 1152.585 509.58 Q 1152.665 509.862 1152.729 509.981 L 1152.729 509.981 L 1152.729 509.981 Q 1152.793 510.1 1152.818 510.157 L 1152.818 510.157 L 1152.818 510.157 Q 1152.843 510.214 1152.838 510.227 L 1152.838 510.227 L 1152.838 510.227 Q 1152.833 510.241 1152.828 510.334 L 1152.828 510.334 L 1152.828 510.334 Q 1152.764 511.722 1152.562 513.183 L 1152.562 513.183 L 1152.562 513.183 Q 1152.36 514.643 1152.038 516.497 L 1152.038 516.497 L 1152.038 516.497 Q 1151.715 518.351 1151.31 520.785 L 1151.31 520.785 L 1151.31 520.785 Q 1150.905 523.22 1150.436 526.555 L 1150.436 526.555 L 1150.436 526.555 Q 1149.608 532.202 1149.118 536.079 L 1149.118 536.079 L 1149.118 536.079 Q 1148.628 539.956 1148.544 541.965 L 1148.544 541.965 L 1148.544 541.965 Q 1149.576 540.918 1151.051 539.415 L 1151.051 539.415 L 1151.051 539.415 Q 1152.525 537.911 1154.217 536.13 L 1154.217 536.13 L 1154.217 536.13 Q 1155.908 534.349 1157.745 532.435 L 1157.745 532.435 L 1157.745 532.435 Q 1159.582 530.521 1161.376 528.638 L 1161.376 528.638 L 1161.376 528.638 Q 1163.169 526.755 1164.821 525.037 L 1164.821 525.037 L 1164.821 525.037 Q 1166.473 523.319 1167.775 521.937 L 1167.775 521.937 L 1167.775 521.937 Q 1169.077 520.555 1169.974 519.614 L 1169.974 519.614 L 1169.974 519.614 Q 1170.871 518.672 1171.134 518.397 L 1171.134 518.397 L 1171.134 518.397 Q 1171.445 518.077 1171.636 517.868 L 1171.636 517.868 L 1171.636 517.868 Q 1171.826 517.659 1172.016 517.575 L 1172.016 517.575 L 1172.016 517.575 Q 1172.182 517.388 1172.369 517.35 L 1172.369 517.35 L 1172.369 517.35 Q 1172.556 517.313 1172.716 517.468 L 1172.716 517.468 L 1172.716 517.468 Q 1172.75 517.544 1172.821 517.603 L 1172.821 517.603 L 1172.821 517.603 Q 1172.855 517.679 1172.918 517.719 L 1172.918 517.719 L 1172.918 517.719 Q 1172.981 517.759 1173.015 517.835 L 1173.015 517.835 L 1173.015 517.835 Q 1173.095 517.709 1173.182 517.726 L 1173.182 517.726 L 1173.182 517.726 Q 1173.269 517.744 1173.379 517.787 L 1173.379 517.787 L 1173.379 517.787 Q 1173.477 517.856 1173.603 517.936 L 1173.603 517.936 L 1173.685 517.968 L 1173.795 518.01 L 1173.795 518.01 Q 1173.898 517.987 1173.996 517.977 L 1173.996 517.977 L 1173.996 517.977 Q 1174.094 517.968 1174.144 518.082 L 1174.144 518.082 L 1174.144 518.082 Q 1174.337 518.313 1174.48 518.227 L 1174.48 518.227 L 1174.48 518.227 Q 1174.623 518.141 1174.842 518.225 L 1174.842 518.225 L 1174.842 518.225 Q 1174.979 518.278 1175.099 518.293 L 1175.099 518.293 L 1175.099 518.293 Q 1175.191 518.297 1175.289 518.288 L 1175.289 518.288 L 1175.289 518.288 Q 1175.387 518.278 1175.446 518.207 L 1175.446 518.207 L 1175.446 518.207 Q 1175.555 518.249 1175.613 518.303 L 1175.613 518.303 L 1175.613 518.303 Q 1175.671 518.356 1175.715 518.405 L 1175.715 518.405 L 1175.765 518.518 L 1175.765 518.518 Q 1175.805 518.659 1175.648 519.556 L 1175.648 519.556 L 1175.648 519.556 Q 1175.49 520.453 1175.226 521.749 L 1175.226 521.749 L 1175.226 521.749 Q 1174.962 523.044 1174.619 524.545 L 1174.619 524.545 L 1174.619 524.545 Q 1174.276 526.045 1173.945 527.393 L 1173.945 527.393 L 1173.945 527.393 Q 1173.831 527.852 1173.42 529.405 L 1173.42 529.405 L 1173.42 529.405 Q 1173.01 530.958 1172.401 533.188 L 1172.401 533.188 L 1172.401 533.188 Q 1171.792 535.418 1171.054 538.148 L 1171.054 538.148 L 1171.054 538.148 Q 1170.315 540.877 1169.556 543.661 L 1169.556 543.661 L 1169.556 543.661 Q 1168.796 546.446 1168.057 549.096 L 1168.057 549.096 L 1168.057 549.096 Q 1167.317 551.747 1166.715 553.838 L 1166.715 553.838 L 1166.715 553.838 Q 1166.113 555.93 1165.708 557.265 L 1165.708 557.265 L 1165.708 557.265 Q 1165.303 558.6 1165.212 558.754 Z  M 1190.579 565.605 L 1190.579 565.605 L 1190.579 565.605 Q 1190.395 565.87 1190.168 566.247 L 1190.168 566.247 L 1190.168 566.247 Q 1189.942 566.625 1189.624 567.082 L 1189.624 567.082 L 1189.624 567.082 Q 1189.222 567.659 1188.46 568.396 L 1188.46 568.396 L 1188.46 568.396 Q 1187.698 569.133 1186.673 569.812 L 1186.673 569.812 L 1186.673 569.812 Q 1185.648 570.491 1184.371 570.994 L 1184.371 570.994 L 1184.371 570.994 Q 1183.093 571.497 1181.66 571.607 L 1181.66 571.607 L 1181.66 571.607 Q 1180.228 571.718 1178.663 571.325 L 1178.663 571.325 L 1178.663 571.325 Q 1177.098 570.933 1175.51 569.829 L 1175.51 569.829 L 1175.51 569.829 Q 1174.091 568.843 1172.988 567.273 L 1172.988 567.273 L 1172.988 567.273 Q 1171.885 565.703 1171.465 563.716 L 1171.465 563.716 L 1171.465 563.716 Q 1171.044 561.729 1171.492 559.417 L 1171.492 559.417 L 1171.492 559.417 Q 1171.939 557.106 1173.645 554.652 L 1173.645 554.652 L 1173.645 554.652 Q 1174.715 553.113 1176.149 551.897 L 1176.149 551.897 L 1176.149 551.897 Q 1177.583 550.682 1179.164 549.819 L 1179.164 549.819 L 1179.164 549.819 Q 1180.745 548.956 1182.425 548.464 L 1182.425 548.464 L 1182.425 548.464 Q 1184.105 547.973 1185.663 547.861 L 1185.663 547.861 L 1185.663 547.861 Q 1187.222 547.749 1188.61 548.036 L 1188.61 548.036 L 1188.61 548.036 Q 1189.998 548.324 1191.008 549.026 L 1191.008 549.026 L 1191.008 549.026 Q 1192.764 550.247 1193.522 551.595 L 1193.522 551.595 L 1193.522 551.595 Q 1194.28 552.942 1194.385 554.228 L 1194.385 554.228 L 1194.385 554.228 Q 1194.49 555.514 1194.123 556.633 L 1194.123 556.633 L 1194.123 556.633 Q 1193.756 557.751 1193.237 558.497 L 1193.237 558.497 L 1193.237 558.497 Q 1192.736 559.219 1191.743 559.902 L 1191.743 559.902 L 1191.743 559.902 Q 1190.75 560.586 1189.379 560.864 L 1189.379 560.864 L 1189.379 560.864 Q 1188.009 561.142 1186.341 560.821 L 1186.341 560.821 L 1186.341 560.821 Q 1184.673 560.5 1182.821 559.212 L 1182.821 559.212 L 1182.821 559.212 Q 1181.834 558.526 1181.245 557.706 L 1181.245 557.706 L 1181.245 557.706 Q 1180.656 556.886 1180.347 556.047 L 1180.347 556.047 L 1180.347 556.047 Q 1180.038 555.208 1179.96 554.422 L 1179.96 554.422 L 1179.96 554.422 Q 1179.882 553.636 1179.894 553.003 L 1179.894 553.003 L 1179.894 553.003 Q 1178.424 554.193 1177.036 556.189 L 1177.036 556.189 L 1177.036 556.189 Q 1176.083 557.561 1175.719 558.931 L 1175.719 558.931 L 1175.719 558.931 Q 1175.355 560.301 1175.518 561.556 L 1175.518 561.556 L 1175.518 561.556 Q 1175.68 562.811 1176.358 563.889 L 1176.358 563.889 L 1176.358 563.889 Q 1177.036 564.967 1178.19 565.769 L 1178.19 565.769 L 1178.19 565.769 Q 1179.634 566.773 1181.059 567.032 L 1181.059 567.032 L 1181.059 567.032 Q 1182.484 567.292 1183.808 567.106 L 1183.808 567.106 L 1183.808 567.106 Q 1185.133 566.921 1186.332 566.453 L 1186.332 566.453 L 1186.332 566.453 Q 1187.532 565.984 1188.475 565.552 L 1188.475 565.552 L 1188.475 565.552 Q 1189.418 565.119 1190.078 564.864 L 1190.078 564.864 L 1190.078 564.864 Q 1190.737 564.608 1191.033 564.85 L 1191.033 564.85 L 1191.033 564.85 Q 1191.177 564.95 1191.01 565.191 L 1191.01 565.191 L 1191.01 565.191 Q 1190.926 565.311 1190.819 565.415 L 1190.819 565.415 L 1190.819 565.415 Q 1190.711 565.518 1190.579 565.605 Z  M 1189.56 551.623 L 1189.56 551.623 L 1189.56 551.623 Q 1189.127 551.322 1188.316 551.026 L 1188.316 551.026 L 1188.316 551.026 Q 1187.505 550.729 1186.43 550.66 L 1186.43 550.66 L 1186.43 550.66 Q 1185.354 550.59 1184.065 550.853 L 1184.065 550.853 L 1184.065 550.853 Q 1182.776 551.116 1181.386 551.935 L 1181.386 551.935 L 1181.386 551.935 Q 1181.84 552 1182.176 552.056 L 1182.176 552.056 L 1182.176 552.056 Q 1182.512 552.111 1182.609 552.178 L 1182.609 552.178 L 1182.609 552.178 Q 1182.657 552.211 1182.686 552.374 L 1182.686 552.374 L 1182.686 552.374 Q 1182.587 553.697 1183.141 554.671 L 1183.141 554.671 L 1183.141 554.671 Q 1183.695 555.645 1184.729 556.364 L 1184.729 556.364 L 1184.729 556.364 Q 1185.547 556.933 1186.329 557.066 L 1186.329 557.066 L 1186.329 557.066 Q 1187.11 557.199 1187.796 557.033 L 1187.796 557.033 L 1187.796 557.033 Q 1188.482 556.868 1189.01 556.468 L 1189.01 556.468 L 1189.01 556.468 Q 1189.538 556.068 1189.889 555.563 L 1189.889 555.563 L 1189.889 555.563 Q 1190.642 554.48 1190.582 553.386 L 1190.582 553.386 L 1190.582 553.386 Q 1190.522 552.292 1189.56 551.623 Z  M 984.237 525.337 L 984.237 525.337 L 984.237 525.337 Q 984.69 526.474 984.565 527.931 L 984.565 527.931 L 984.565 527.931 Q 984.441 529.388 983.949 530.68 L 983.949 530.68 L 983.949 530.68 Q 983.905 530.882 983.643 531.26 L 983.643 531.26 L 983.643 531.26 Q 983.381 531.638 983.078 532.06 L 983.078 532.06 L 983.078 532.06 Q 982.774 532.482 982.46 532.859 L 982.46 532.859 L 982.46 532.859 Q 982.145 533.236 981.939 533.403 L 981.939 533.403 L 981.939 533.403 Q 981.774 533.579 981.615 533.577 L 981.615 533.577 L 981.615 533.577 Q 981.457 533.574 981.295 533.539 L 981.295 533.539 L 981.295 533.539 Q 981.133 533.504 980.942 533.505 L 980.942 533.505 L 980.942 533.505 Q 980.751 533.506 980.505 533.665 L 980.505 533.665 L 980.505 533.665 Q 980.209 533.855 980.06 533.759 L 980.06 533.759 L 980.06 533.759 Q 979.911 533.663 979.797 533.215 L 979.797 533.215 L 979.797 533.215 Q 979.766 533.06 979.747 532.759 L 979.747 532.759 L 979.747 532.759 Q 979.727 532.458 979.776 531.938 L 979.776 531.938 L 979.776 531.938 Q 979.83 531.59 979.791 531.232 L 979.791 531.232 L 979.791 531.232 Q 979.752 530.874 979.515 530.695 L 979.515 530.695 L 979.515 530.695 Q 979.279 530.517 978.789 530.623 L 978.789 530.623 L 978.789 530.623 Q 978.3 530.729 977.463 531.268 L 977.463 531.268 L 977.463 531.268 Q 976.601 531.823 975.389 532.917 L 975.389 532.917 L 975.389 532.917 Q 974.038 534.066 972.798 535.631 L 972.798 535.631 L 972.798 535.631 Q 971.558 537.196 970.528 538.87 L 970.528 538.87 L 970.528 538.87 Q 969.498 540.544 968.765 542.166 L 968.765 542.166 L 968.765 542.166 Q 968.032 543.788 967.732 545.079 L 967.732 545.079 L 967.732 545.079 Q 967.431 546.37 967.645 547.191 L 967.645 547.191 L 967.645 547.191 Q 967.86 548.011 968.721 548.049 L 968.721 548.049 L 968.721 548.049 Q 969.476 548.085 970.701 547.662 L 970.701 547.662 L 970.701 547.662 Q 971.927 547.238 973.441 546.559 L 973.441 546.559 L 973.441 546.559 Q 974.956 545.88 976.683 545.099 L 976.683 545.099 L 976.683 545.099 Q 978.41 544.318 980.18 543.631 L 980.18 543.631 L 980.18 543.631 Q 981.95 542.944 983.668 542.5 L 983.668 542.5 L 983.668 542.5 Q 985.386 542.056 986.914 542.047 L 986.914 542.047 L 986.914 542.047 Q 988.01 542.073 988.829 542.208 L 988.829 542.208 L 988.829 542.208 Q 989.647 542.342 990.261 542.592 L 990.261 542.592 L 990.261 542.592 Q 990.875 542.841 991.349 543.146 L 991.349 543.146 L 991.349 543.146 Q 991.824 543.45 992.257 543.798 L 992.257 543.798 L 992.257 543.798 Q 992.53 544.005 993.003 544.171 L 993.003 544.171 L 993.003 544.171 Q 993.476 544.337 994.073 544.615 L 994.073 544.615 L 994.073 544.615 Q 994.67 544.893 995.305 545.337 L 995.305 545.337 L 995.305 545.337 Q 995.94 545.782 996.537 546.547 L 996.537 546.547 L 996.537 546.547 Q 997.683 548.11 997.867 550.047 L 997.867 550.047 L 997.867 550.047 Q 998.052 551.984 997.65 553.985 L 997.65 553.985 L 997.65 553.985 Q 997.249 555.986 996.422 557.894 L 996.422 557.894 L 996.422 557.894 Q 995.596 559.803 994.678 561.3 L 994.678 561.3 L 994.678 561.3 Q 993.885 562.612 992.897 563.946 L 992.897 563.946 L 992.897 563.946 Q 991.909 565.279 990.759 566.524 L 990.759 566.524 L 990.759 566.524 Q 989.61 567.77 988.329 568.891 L 988.329 568.891 L 988.329 568.891 Q 987.047 570.013 985.668 570.901 L 985.668 570.901 L 985.668 570.901 Q 983.377 572.376 980.965 573.041 L 980.965 573.041 L 980.965 573.041 Q 978.553 573.706 976.124 573.18 L 976.124 573.18 L 976.124 573.18 Q 974.918 572.876 974.098 572.306 L 974.098 572.306 L 974.098 572.306 Q 973.278 571.737 972.786 570.973 L 972.786 570.973 L 972.786 570.973 Q 972.199 570.062 972.014 568.962 L 972.014 568.962 L 972.014 568.962 Q 971.828 567.862 971.927 566.717 L 971.927 566.717 L 971.927 566.717 Q 972.027 565.573 972.352 564.51 L 972.352 564.51 L 972.352 564.51 Q 972.678 563.446 973.13 562.633 L 973.13 562.633 L 973.13 562.633 Q 973.741 561.472 974.463 560.293 L 974.463 560.293 L 974.463 560.293 Q 975.185 559.114 975.982 558.025 L 975.982 558.025 L 975.982 558.025 Q 976.779 556.937 977.664 555.984 L 977.664 555.984 L 977.664 555.984 Q 978.549 555.031 979.486 554.322 L 979.486 554.322 L 979.486 554.322 Q 979.873 554.003 980.482 553.542 L 980.482 553.542 L 980.482 553.542 Q 981.091 553.08 981.657 552.715 L 981.657 552.715 L 981.657 552.715 Q 982.027 552.477 982.4 552.516 L 982.4 552.516 L 982.4 552.516 Q 982.773 552.554 982.819 552.734 L 982.819 552.734 L 982.819 552.734 Q 982.87 553.084 982.562 553.282 L 982.562 553.282 L 982.562 553.282 Q 982.255 553.481 981.899 553.849 L 981.899 553.849 L 981.899 553.849 Q 981.511 554.273 981.074 554.624 L 981.074 554.624 L 981.074 554.624 Q 980.638 554.975 980.348 555.336 L 980.348 555.336 L 980.348 555.336 Q 977.952 557.784 976.653 560.015 L 976.653 560.015 L 976.653 560.015 Q 975.354 562.245 974.859 563.993 L 974.859 563.993 L 974.859 563.993 Q 974.364 565.74 974.525 566.909 L 974.525 566.909 L 974.525 566.909 Q 974.685 568.078 975.159 568.435 L 975.159 568.435 L 975.159 568.435 Q 975.833 568.941 976.736 568.882 L 976.736 568.882 L 976.736 568.882 Q 977.639 568.823 978.58 568.444 L 978.58 568.444 L 978.58 568.444 Q 979.52 568.065 980.398 567.534 L 980.398 567.534 L 980.398 567.534 Q 981.276 567.004 981.86 566.558 L 981.86 566.558 L 981.86 566.558 Q 983.241 565.564 984.78 564.085 L 984.78 564.085 L 984.78 564.085 Q 986.319 562.606 987.765 560.874 L 987.765 560.874 L 987.765 560.874 Q 989.21 559.141 990.435 557.255 L 990.435 557.255 L 990.435 557.255 Q 991.659 555.369 992.395 553.588 L 992.395 553.588 L 992.395 553.588 Q 993.13 551.808 993.253 550.213 L 993.253 550.213 L 993.253 550.213 Q 993.376 548.618 992.614 547.436 L 992.614 547.436 L 992.614 547.436 Q 992.36 547.042 992.004 546.732 L 992.004 546.732 L 992.004 546.732 Q 991.647 546.421 991.18 546.129 L 991.18 546.129 L 991.18 546.129 Q 990.351 545.653 988.991 545.814 L 988.991 545.814 L 988.991 545.814 Q 987.631 545.976 985.96 546.546 L 985.96 546.546 L 985.96 546.546 Q 984.29 547.117 982.42 547.921 L 982.42 547.921 L 982.42 547.921 Q 980.55 548.724 978.722 549.483 L 978.722 549.483 L 978.722 549.483 Q 976.894 550.242 975.178 550.825 L 975.178 550.825 L 975.178 550.825 Q 973.462 551.407 972.103 551.515 L 972.103 551.515 L 972.103 551.515 Q 970.574 551.629 969.655 551.367 L 969.655 551.367 L 969.655 551.367 Q 968.737 551.105 968.076 550.241 L 968.076 550.241 L 968.076 550.241 Q 967.988 550.158 967.707 549.991 L 967.707 549.991 L 967.707 549.991 Q 967.425 549.824 967.09 549.656 L 967.09 549.656 L 967.09 549.656 Q 966.756 549.488 966.449 549.337 L 966.449 549.337 L 966.449 549.337 Q 966.143 549.186 965.974 549.086 L 965.974 549.086 L 965.974 549.086 Q 965.12 548.626 964.58 547.788 L 964.58 547.788 L 964.58 547.788 Q 963.977 546.852 963.774 545.589 L 963.774 545.589 L 963.774 545.589 Q 963.571 544.326 963.751 543.2 L 963.751 543.2 L 963.751 543.2 Q 964.061 541.084 965.249 538.681 L 965.249 538.681 L 965.249 538.681 Q 966.437 536.278 968.172 533.941 L 968.172 533.941 L 968.172 533.941 Q 969.908 531.603 971.993 529.511 L 971.993 529.511 L 971.993 529.511 Q 974.078 527.419 976.198 525.949 L 976.198 525.949 L 976.198 525.949 Q 977.069 525.354 978.272 524.788 L 978.272 524.788 L 978.272 524.788 Q 979.476 524.222 980.67 523.993 L 980.67 523.993 L 980.67 523.993 Q 981.864 523.764 982.835 524.027 L 982.835 524.027 L 982.835 524.027 Q 983.806 524.29 984.237 525.337 Z  M 1005.558 530.937 L 1005.558 530.937 L 1005.558 530.937 Q 1005.577 531.149 1005.771 531.734 L 1005.771 531.734 L 1005.771 531.734 Q 1005.965 532.319 1006.237 533.187 L 1006.237 533.187 L 1006.237 533.187 Q 1007.286 532.406 1008.442 531.741 L 1008.442 531.741 L 1008.442 531.741 Q 1009.599 531.075 1010.883 530.58 L 1010.883 530.58 L 1010.883 530.58 Q 1012.305 530.032 1013.848 529.799 L 1013.848 529.799 L 1013.848 529.799 Q 1015.39 529.566 1016.916 529.857 L 1016.916 529.857 L 1016.916 529.857 Q 1018.094 530.063 1019.248 531.062 L 1019.248 531.062 L 1019.248 531.062 Q 1020.402 532.061 1021.398 533.342 L 1021.398 533.342 L 1021.398 533.342 Q 1021.971 534.094 1022.612 535.025 L 1022.612 535.025 L 1022.612 535.025 Q 1023.253 535.955 1023.727 537.185 L 1023.727 537.185 L 1023.727 537.185 Q 1024.127 538.224 1024.299 539.445 L 1024.299 539.445 L 1024.299 539.445 Q 1024.471 540.666 1024.274 542.108 L 1024.274 542.108 L 1024.274 542.108 Q 1024.076 543.55 1023.434 545.226 L 1023.434 545.226 L 1023.434 545.226 Q 1022.793 546.901 1021.528 548.833 L 1021.528 548.833 L 1021.528 548.833 Q 1020.307 550.716 1019.228 551.87 L 1019.228 551.87 L 1019.228 551.87 Q 1018.15 553.023 1017.315 553.627 L 1017.315 553.627 L 1017.315 553.627 Q 1016.481 554.231 1015.97 554.413 L 1015.97 554.413 L 1015.97 554.413 Q 1015.459 554.594 1015.356 554.571 L 1015.356 554.571 L 1015.356 554.571 Q 1015.046 554.502 1014.626 554.145 L 1014.626 554.145 L 1014.626 554.145 Q 1014.207 553.789 1013.569 553.438 L 1013.569 553.438 L 1013.569 553.438 Q 1013.369 553.327 1013.191 553.191 L 1013.191 553.191 L 1013.191 553.191 Q 1013.013 553.056 1012.782 552.862 L 1012.782 552.862 L 1012.782 552.862 Q 1013.711 555.518 1014.639 558.049 L 1014.639 558.049 L 1014.639 558.049 Q 1015.567 560.58 1016.41 562.767 L 1016.41 562.767 L 1016.41 562.767 Q 1016.937 564.134 1017.422 565.313 L 1017.422 565.313 L 1017.422 565.313 Q 1017.908 566.491 1018.331 567.427 L 1018.331 567.427 L 1018.331 567.427 Q 1018.468 567.782 1018.641 568.108 L 1018.641 568.108 L 1018.641 568.108 Q 1018.814 568.434 1018.905 568.713 L 1018.905 568.713 L 1018.905 568.713 Q 1018.997 568.992 1018.951 569.198 L 1018.951 569.198 L 1018.951 569.198 Q 1018.905 569.404 1018.604 569.52 L 1018.604 569.52 L 1018.604 569.52 Q 1018.057 569.73 1017.87 570.101 L 1017.87 570.101 L 1017.87 570.101 Q 1017.683 570.471 1017.511 571.165 L 1017.511 571.165 L 1017.511 571.165 Q 1017.387 571.496 1017.189 571.713 L 1017.189 571.713 L 1017.189 571.713 Q 1016.99 571.931 1016.683 571.908 L 1016.683 571.908 L 1016.683 571.908 Q 1016.376 571.885 1015.963 571.589 L 1015.963 571.589 L 1015.963 571.589 Q 1015.551 571.293 1015.027 570.584 L 1015.027 570.584 L 1015.027 570.584 Q 1014.818 570.288 1014.545 569.781 L 1014.545 569.781 L 1014.545 569.781 Q 1014.271 569.274 1013.919 568.484 L 1013.919 568.484 L 1013.919 568.484 Q 1013.567 567.693 1013.117 566.564 L 1013.117 566.564 L 1013.117 566.564 Q 1012.666 565.434 1012.065 563.876 L 1012.065 563.876 L 1008.53 554.375 L 1008.53 554.375 Q 1007.205 550.773 1006.117 547.299 L 1006.117 547.299 L 1006.117 547.299 Q 1005.03 543.825 1004.182 540.729 L 1004.182 540.729 L 1004.182 540.729 Q 1003.604 541.266 1003.083 541.624 L 1003.083 541.624 L 1003.083 541.624 Q 1002.561 541.982 1002.393 541.952 L 1002.393 541.952 L 1002.393 541.952 Q 1002.077 541.948 1001.943 541.843 L 1001.943 541.843 L 1001.943 541.843 Q 1001.808 541.738 1001.733 541.626 L 1001.733 541.626 L 1001.733 541.626 Q 1001.659 541.513 1001.581 541.433 L 1001.581 541.433 L 1001.581 541.433 Q 1001.503 541.353 1001.301 541.4 L 1001.301 541.4 L 1001.301 541.4 Q 1001.099 541.446 1000.91 541.362 L 1000.91 541.362 L 1000.91 541.362 Q 1000.72 541.278 1000.627 541.157 L 1000.627 541.157 L 1000.627 541.157 Q 1000.533 541.036 1000.554 540.887 L 1000.554 540.887 L 1000.554 540.887 Q 1000.575 540.738 1000.783 540.626 L 1000.783 540.626 L 1000.783 540.626 Q 1000.964 540.525 1000.78 540.455 L 1000.78 540.455 L 1000.78 540.455 Q 1000.596 540.384 1000.394 540.227 L 1000.394 540.227 L 1000.394 540.227 Q 1000.192 540.069 1000.125 539.734 L 1000.125 539.734 L 1000.125 539.734 Q 1000.059 539.398 1000.529 538.746 L 1000.529 538.746 L 1000.529 538.746 Q 1000.752 538.346 1001.409 537.606 L 1001.409 537.606 L 1001.409 537.606 Q 1002.066 536.866 1003.014 535.905 L 1003.014 535.905 L 1003.014 535.905 Q 1002.493 533.656 1002.286 532.182 L 1002.286 532.182 L 1002.286 532.182 Q 1002.079 530.708 1002.209 530.312 L 1002.209 530.312 L 1002.209 530.312 Q 1002.293 530.123 1002.305 529.992 L 1002.305 529.992 L 1002.305 529.992 Q 1002.318 529.862 1002.341 529.759 L 1002.341 529.759 L 1002.341 529.759 Q 1002.364 529.656 1002.425 529.57 L 1002.425 529.57 L 1002.425 529.57 Q 1002.486 529.483 1002.684 529.344 L 1002.684 529.344 L 1002.684 529.344 Q 1002.865 529.243 1003.043 529.3 L 1003.043 529.3 L 1003.043 529.3 Q 1003.222 529.357 1003.414 529.487 L 1003.414 529.487 L 1003.414 529.487 Q 1003.605 529.617 1003.805 529.729 L 1003.805 529.729 L 1003.805 529.729 Q 1004.005 529.84 1004.207 529.794 L 1004.207 529.794 L 1004.207 529.794 Q 1004.611 529.701 1004.975 529.953 L 1004.975 529.953 L 1004.975 529.953 Q 1005.339 530.205 1005.558 530.937 Z  M 1012.861 534.245 L 1012.861 534.245 L 1012.861 534.245 Q 1011.631 534.719 1010.342 535.53 L 1010.342 535.53 L 1010.342 535.53 Q 1009.053 536.34 1007.6 537.622 L 1007.6 537.622 L 1011.68 549.676 L 1011.68 549.676 Q 1011.958 549.664 1012.264 549.561 L 1012.264 549.561 L 1012.264 549.561 Q 1012.57 549.459 1012.952 549.312 L 1012.952 549.312 L 1012.952 549.312 Q 1013.854 548.964 1014.949 548.26 L 1014.949 548.26 L 1014.949 548.26 Q 1016.043 547.556 1017.078 546.576 L 1017.078 546.576 L 1017.078 546.576 Q 1018.114 545.596 1019.037 544.408 L 1019.037 544.408 L 1019.037 544.408 Q 1019.961 543.22 1020.536 541.9 L 1020.536 541.9 L 1020.536 541.9 Q 1021.11 540.58 1021.231 539.183 L 1021.231 539.183 L 1021.231 539.183 Q 1021.352 537.786 1020.842 536.381 L 1020.842 536.381 L 1020.842 536.381 Q 1020.554 535.551 1019.847 534.897 L 1019.847 534.897 L 1019.847 534.897 Q 1019.139 534.243 1018.108 533.888 L 1018.108 533.888 L 1018.108 533.888 Q 1017.076 533.532 1015.747 533.588 L 1015.747 533.588 L 1015.747 533.588 Q 1014.419 533.645 1012.861 534.245 Z  M 1040.53 523.743 L 1040.53 523.743 L 1040.53 523.743 Q 1040.715 524.573 1040.797 525.414 L 1040.797 525.414 L 1040.797 525.414 Q 1040.879 526.255 1040.84 527.037 L 1040.84 527.037 L 1040.84 527.037 Q 1040.8 527.819 1040.621 528.471 L 1040.621 528.471 L 1040.621 528.471 Q 1040.442 529.123 1040.133 529.566 L 1040.133 529.566 L 1040.133 529.566 Q 1039.867 529.938 1039.668 529.989 L 1039.668 529.989 L 1039.668 529.989 Q 1039.47 530.041 1039.313 529.961 L 1039.313 529.961 L 1039.313 529.961 Q 1039.156 529.88 1039.034 529.76 L 1039.034 529.76 L 1039.034 529.76 Q 1038.912 529.641 1038.763 529.649 L 1038.763 529.649 L 1038.763 529.649 Q 1038.642 529.65 1038.469 529.741 L 1038.469 529.741 L 1038.469 529.741 Q 1038.295 529.831 1038.104 529.85 L 1038.104 529.85 L 1038.104 529.85 Q 1037.912 529.87 1037.708 529.726 L 1037.708 529.726 L 1037.708 529.726 Q 1037.504 529.582 1037.323 529.115 L 1037.323 529.115 L 1037.323 529.115 Q 1037.126 528.591 1037.001 527.7 L 1037.001 527.7 L 1037.001 527.7 Q 1036.876 526.809 1036.663 525.987 L 1036.663 525.987 L 1036.663 525.987 Q 1036.472 525.249 1036.187 524.794 L 1036.187 524.794 L 1036.187 524.794 Q 1035.902 524.338 1035.505 524.441 L 1035.505 524.441 L 1035.505 524.441 Q 1035.307 524.492 1034.888 524.919 L 1034.888 524.919 L 1034.888 524.919 Q 1034.469 525.345 1034.123 526.464 L 1034.123 526.464 L 1034.123 526.464 Q 1033.778 527.582 1033.656 529.566 L 1033.656 529.566 L 1033.656 529.566 Q 1033.535 531.55 1033.954 534.68 L 1033.954 534.68 L 1033.954 534.68 Q 1034.969 538.593 1035.643 540.961 L 1035.643 540.961 L 1035.643 540.961 Q 1036.318 543.328 1036.663 544.661 L 1036.663 544.661 L 1036.663 544.661 Q 1036.957 545.795 1037.026 546.292 L 1037.026 546.292 L 1037.026 546.292 Q 1037.094 546.789 1036.904 546.989 L 1036.904 546.989 L 1036.904 546.989 Q 1036.784 547.111 1036.406 547.346 L 1036.406 547.346 L 1036.406 547.346 Q 1036.028 547.58 1035.589 547.815 L 1035.589 547.815 L 1035.589 547.815 Q 1035.151 548.049 1034.748 548.245 L 1034.748 548.245 L 1034.748 548.245 Q 1034.344 548.44 1034.224 548.441 L 1034.224 548.441 L 1034.224 548.441 Q 1034.131 548.435 1033.864 548.338 L 1033.864 548.338 L 1033.864 548.338 Q 1033.596 548.241 1033.297 548.076 L 1033.297 548.076 L 1033.297 548.076 Q 1032.997 547.912 1032.736 547.722 L 1032.736 547.722 L 1032.736 547.722 Q 1032.475 547.533 1032.402 547.37 L 1032.402 547.37 L 1032.402 547.37 Q 1032.272 547.101 1032.025 546.091 L 1032.025 546.091 L 1032.025 546.091 Q 1031.778 545.08 1031.425 543.659 L 1031.425 543.659 L 1031.425 543.659 Q 1031.071 542.237 1030.662 540.542 L 1030.662 540.542 L 1030.662 540.542 Q 1030.253 538.848 1029.819 537.174 L 1029.819 537.174 L 1029.819 537.174 Q 1029.539 536.097 1029.268 534.76 L 1029.268 534.76 L 1029.268 534.76 Q 1028.997 533.423 1028.743 532.036 L 1028.743 532.036 L 1028.743 532.036 Q 1028.489 530.649 1028.265 529.315 L 1028.265 529.315 L 1028.265 529.315 Q 1028.04 527.981 1027.87 526.92 L 1027.87 526.92 L 1027.87 526.92 Q 1027.701 525.859 1027.592 525.146 L 1027.592 525.146 L 1027.592 525.146 Q 1027.483 524.433 1027.474 524.284 L 1027.474 524.284 L 1027.474 524.284 Q 1027.444 524.05 1027.643 524.058 L 1027.643 524.058 L 1027.643 524.058 Q 1027.842 524.067 1028.091 524.154 L 1028.091 524.154 L 1028.091 524.154 Q 1028.341 524.241 1028.54 524.31 L 1028.54 524.31 L 1028.54 524.31 Q 1028.74 524.379 1028.767 524.251 L 1028.767 524.251 L 1028.767 524.251 Q 1028.758 523.981 1029.174 524.07 L 1029.174 524.07 L 1029.174 524.07 Q 1029.591 524.159 1029.962 524.305 L 1029.962 524.305 L 1029.962 524.305 Q 1030.112 524.417 1030.293 524.476 L 1030.293 524.476 L 1030.293 524.476 Q 1030.475 524.535 1030.657 524.654 L 1030.657 524.654 L 1030.657 524.654 Q 1030.84 524.773 1031.005 525.002 L 1031.005 525.002 L 1031.005 525.002 Q 1031.171 525.232 1031.281 525.657 L 1031.281 525.657 L 1031.281 525.657 Q 1031.384 526.054 1031.646 526.834 L 1031.646 526.834 L 1031.646 526.834 Q 1031.909 527.613 1032.274 528.669 L 1032.274 528.669 L 1032.274 528.669 Q 1032.321 527.567 1032.466 526.318 L 1032.466 526.318 L 1032.466 526.318 Q 1032.612 525.07 1032.989 523.958 L 1032.989 523.958 L 1032.989 523.958 Q 1033.367 522.846 1034.056 522.002 L 1034.056 522.002 L 1034.056 522.002 Q 1034.745 521.157 1035.936 520.849 L 1035.936 520.849 L 1035.936 520.849 Q 1036.588 520.679 1037.306 520.765 L 1037.306 520.765 L 1037.306 520.765 Q 1038.025 520.852 1038.678 521.212 L 1038.678 521.212 L 1038.678 521.212 Q 1039.331 521.572 1039.827 522.2 L 1039.827 522.2 L 1039.827 522.2 Q 1040.323 522.828 1040.53 523.743 Z  M 1065.399 530.555 L 1065.399 530.555 L 1065.399 530.555 Q 1065.444 530.875 1065.533 531.306 L 1065.533 531.306 L 1065.533 531.306 Q 1065.622 531.737 1065.698 532.289 L 1065.698 532.289 L 1065.698 532.289 Q 1065.795 532.985 1065.734 534.043 L 1065.734 534.043 L 1065.734 534.043 Q 1065.674 535.102 1065.38 536.296 L 1065.38 536.296 L 1065.38 536.296 Q 1065.087 537.49 1064.489 538.726 L 1064.489 538.726 L 1064.489 538.726 Q 1063.891 539.962 1062.913 541.014 L 1062.913 541.014 L 1062.913 541.014 Q 1061.935 542.067 1060.518 542.839 L 1060.518 542.839 L 1060.518 542.839 Q 1059.102 543.612 1057.187 543.877 L 1057.187 543.877 L 1057.187 543.877 Q 1055.474 544.114 1053.599 543.708 L 1053.599 543.708 L 1053.599 543.708 Q 1051.724 543.302 1050.068 542.126 L 1050.068 542.126 L 1050.068 542.126 Q 1048.412 540.95 1047.174 538.948 L 1047.174 538.948 L 1047.174 538.948 Q 1045.935 536.945 1045.526 533.985 L 1045.526 533.985 L 1045.526 533.985 Q 1045.269 532.128 1045.499 530.262 L 1045.499 530.262 L 1045.499 530.262 Q 1045.729 528.397 1046.306 526.69 L 1046.306 526.69 L 1046.306 526.69 Q 1046.883 524.984 1047.785 523.484 L 1047.785 523.484 L 1047.785 523.484 Q 1048.686 521.984 1049.756 520.845 L 1049.756 520.845 L 1049.756 520.845 Q 1050.826 519.706 1052.041 518.976 L 1052.041 518.976 L 1052.041 518.976 Q 1053.256 518.246 1054.475 518.077 L 1054.475 518.077 L 1054.475 518.077 Q 1056.594 517.784 1058.064 518.261 L 1058.064 518.261 L 1058.064 518.261 Q 1059.535 518.738 1060.484 519.612 L 1060.484 519.612 L 1060.484 519.612 Q 1061.433 520.486 1061.922 521.557 L 1061.922 521.557 L 1061.922 521.557 Q 1062.41 522.629 1062.534 523.528 L 1062.534 523.528 L 1062.534 523.528 Q 1062.655 524.399 1062.389 525.574 L 1062.389 525.574 L 1062.389 525.574 Q 1062.122 526.75 1061.303 527.883 L 1061.303 527.883 L 1061.303 527.883 Q 1060.484 529.017 1059.04 529.912 L 1059.04 529.912 L 1059.04 529.912 Q 1057.597 530.807 1055.362 531.116 L 1055.362 531.116 L 1055.362 531.116 Q 1054.172 531.28 1053.183 531.077 L 1053.183 531.077 L 1053.183 531.077 Q 1052.194 530.874 1051.398 530.466 L 1051.398 530.466 L 1051.398 530.466 Q 1050.602 530.059 1050.012 529.534 L 1050.012 529.534 L 1050.012 529.534 Q 1049.422 529.01 1049.001 528.535 L 1049.001 528.535 L 1049.001 528.535 Q 1048.728 530.407 1049.061 532.816 L 1049.061 532.816 L 1049.061 532.816 Q 1049.29 534.47 1049.951 535.724 L 1049.951 535.724 L 1049.951 535.724 Q 1050.613 536.978 1051.583 537.79 L 1051.583 537.79 L 1051.583 537.79 Q 1052.553 538.603 1053.782 538.935 L 1053.782 538.935 L 1053.782 538.935 Q 1055.011 539.268 1056.404 539.075 L 1056.404 539.075 L 1056.404 539.075 Q 1058.145 538.835 1059.369 538.059 L 1059.369 538.059 L 1059.369 538.059 Q 1060.593 537.283 1061.44 536.249 L 1061.44 536.249 L 1061.44 536.249 Q 1062.288 535.215 1062.852 534.058 L 1062.852 534.058 L 1062.852 534.058 Q 1063.417 532.9 1063.817 531.943 L 1063.817 531.943 L 1063.817 531.943 Q 1064.217 530.985 1064.528 530.351 L 1064.528 530.351 L 1064.528 530.351 Q 1064.84 529.716 1065.221 529.693 L 1065.221 529.693 L 1065.221 529.693 Q 1065.395 529.669 1065.435 529.959 L 1065.435 529.959 L 1065.435 529.959 Q 1065.455 530.104 1065.446 530.253 L 1065.446 530.253 L 1065.446 530.253 Q 1065.437 530.402 1065.399 530.555 Z  M 1055.171 520.968 L 1055.171 520.968 L 1055.171 520.968 Q 1054.648 521.04 1053.851 521.373 L 1053.851 521.373 L 1053.851 521.373 Q 1053.054 521.705 1052.217 522.382 L 1052.217 522.382 L 1052.217 522.382 Q 1051.379 523.06 1050.61 524.128 L 1050.61 524.128 L 1050.61 524.128 Q 1049.84 525.196 1049.374 526.739 L 1049.374 526.739 L 1049.374 526.739 Q 1049.752 526.48 1050.037 526.292 L 1050.037 526.292 L 1050.037 526.292 Q 1050.321 526.105 1050.437 526.089 L 1050.437 526.089 L 1050.437 526.089 Q 1050.495 526.081 1050.627 526.181 L 1050.627 526.181 L 1050.627 526.181 Q 1051.452 527.22 1052.519 527.561 L 1052.519 527.561 L 1052.519 527.561 Q 1053.586 527.901 1054.834 527.728 L 1054.834 527.728 L 1054.834 527.728 Q 1055.821 527.592 1056.486 527.16 L 1056.486 527.16 L 1056.486 527.16 Q 1057.151 526.728 1057.543 526.141 L 1057.543 526.141 L 1057.543 526.141 Q 1057.935 525.555 1058.052 524.903 L 1058.052 524.903 L 1058.052 524.903 Q 1058.168 524.25 1058.084 523.641 L 1058.084 523.641 L 1058.084 523.641 Q 1057.903 522.335 1057.118 521.571 L 1057.118 521.571 L 1057.118 521.571 Q 1056.332 520.808 1055.171 520.968 Z  M 1099.823 538.94 L 1099.823 538.94 L 1099.823 538.94 Q 1099.91 539.175 1099.953 539.321 L 1099.953 539.321 L 1099.953 539.321 Q 1099.996 539.468 1099.996 539.615 L 1099.996 539.615 L 1099.996 539.615 Q 1099.994 539.878 1099.774 539.921 L 1099.774 539.921 L 1099.774 539.921 Q 1099.554 539.964 1099.32 540.021 L 1099.32 540.021 L 1099.32 540.021 Q 1099.261 540.05 1099.201 540.299 L 1099.201 540.299 L 1099.201 540.299 Q 1099.141 540.548 1099.037 540.84 L 1099.037 540.84 L 1099.037 540.84 Q 1098.933 541.133 1098.713 541.366 L 1098.713 541.366 L 1098.713 541.366 Q 1098.492 541.599 1098.111 541.597 L 1098.111 541.597 L 1098.111 541.597 Q 1096.881 541.504 1096.18 541.046 L 1096.18 541.046 L 1096.18 541.046 Q 1095.479 540.588 1095.131 539.796 L 1095.131 539.796 L 1095.131 539.796 Q 1094.784 539.003 1094.701 537.904 L 1094.701 537.904 L 1094.701 537.904 Q 1094.619 536.805 1094.625 535.457 L 1094.625 535.457 L 1094.625 535.457 Q 1094.633 533.875 1094.774 532.147 L 1094.774 532.147 L 1094.774 532.147 Q 1094.914 530.419 1095.098 528.78 L 1095.098 528.78 L 1095.098 528.78 Q 1095.282 527.14 1095.421 525.69 L 1095.421 525.69 L 1095.421 525.69 Q 1095.56 524.241 1095.565 523.216 L 1095.565 523.216 L 1095.565 523.216 Q 1095.572 521.721 1095.327 520.9 L 1095.327 520.9 L 1095.327 520.9 Q 1095.082 520.078 1094.643 520.076 L 1094.643 520.076 L 1094.643 520.076 Q 1094.438 520.075 1093.582 521.287 L 1093.582 521.287 L 1093.582 521.287 Q 1092.727 522.498 1091.528 524.953 L 1091.528 524.953 L 1091.528 524.953 Q 1090.329 527.409 1088.949 531.122 L 1088.949 531.122 L 1088.949 531.122 Q 1087.568 534.836 1086.313 539.84 L 1086.313 539.84 L 1086.313 539.84 Q 1086.253 540.045 1086.252 540.279 L 1086.252 540.279 L 1086.252 540.279 Q 1086.251 540.514 1086.221 540.704 L 1086.221 540.704 L 1086.221 540.704 Q 1086.19 540.894 1086.087 541.025 L 1086.087 541.025 L 1086.087 541.025 Q 1085.984 541.157 1085.779 541.156 L 1085.779 541.156 L 1085.779 541.156 Q 1085.369 541.154 1085.135 540.991 L 1085.135 540.991 L 1085.135 540.991 Q 1084.902 540.829 1084.727 540.638 L 1084.727 540.638 L 1084.727 540.638 Q 1084.552 540.447 1084.406 540.285 L 1084.406 540.285 L 1084.406 540.285 Q 1084.261 540.123 1084.026 540.122 L 1084.026 540.122 L 1084.026 540.122 Q 1083.938 540.121 1083.879 540.238 L 1083.879 540.238 L 1083.879 540.238 Q 1083.82 540.355 1083.731 540.516 L 1083.731 540.516 L 1083.731 540.516 Q 1083.643 540.676 1083.525 540.793 L 1083.525 540.793 L 1083.525 540.793 Q 1083.407 540.91 1083.202 540.909 L 1083.202 540.909 L 1083.202 540.909 Q 1083.026 540.908 1082.821 540.834 L 1082.821 540.834 L 1082.821 540.834 Q 1082.617 540.759 1082.413 540.451 L 1082.413 540.451 L 1082.413 540.451 Q 1082.21 540.142 1082.081 539.541 L 1082.081 539.541 L 1082.081 539.541 Q 1081.952 538.94 1081.957 537.914 L 1081.957 537.914 L 1081.963 536.596 L 1081.963 536.596 Q 1081.965 536.186 1082.058 535.322 L 1082.058 535.322 L 1082.058 535.322 Q 1082.15 534.458 1082.258 533.316 L 1082.258 533.316 L 1082.258 533.316 Q 1082.366 532.174 1082.505 530.842 L 1082.505 530.842 L 1082.505 530.842 Q 1082.643 529.509 1082.752 528.133 L 1082.752 528.133 L 1082.752 528.133 Q 1082.862 526.756 1082.941 525.438 L 1082.941 525.438 L 1082.941 525.438 Q 1083.021 524.12 1083.026 523.036 L 1083.026 523.036 L 1083.026 523.036 Q 1083.043 519.726 1082.223 519.722 L 1082.223 519.722 L 1082.223 519.722 Q 1082.017 519.721 1081.753 519.866 L 1081.753 519.866 L 1081.753 519.866 Q 1081.489 520.011 1081.12 520.464 L 1081.12 520.464 L 1081.12 520.464 Q 1080.752 520.916 1080.264 521.748 L 1080.264 521.748 L 1080.264 521.748 Q 1079.777 522.581 1079.169 523.97 L 1079.169 523.97 L 1079.169 523.97 Q 1078.562 525.358 1077.776 527.361 L 1077.776 527.361 L 1077.776 527.361 Q 1076.989 529.364 1076.038 532.172 L 1076.038 532.172 L 1076.038 532.172 Q 1075.83 532.786 1075.575 533.972 L 1075.575 533.972 L 1075.575 533.972 Q 1075.32 535.157 1075.109 536.386 L 1075.109 536.386 L 1075.109 536.386 Q 1074.898 537.616 1074.761 538.655 L 1074.761 538.655 L 1074.761 538.655 Q 1074.624 539.694 1074.622 540.017 L 1074.622 540.017 L 1074.622 540.017 Q 1074.622 540.105 1074.313 540.294 L 1074.313 540.294 L 1074.313 540.294 Q 1074.005 540.482 1073.594 540.656 L 1073.594 540.656 L 1073.594 540.656 Q 1073.183 540.83 1072.757 540.96 L 1072.757 540.96 L 1072.757 540.96 Q 1072.332 541.089 1072.097 541.088 L 1072.097 541.088 L 1072.097 541.088 Q 1071.599 541.086 1071.337 540.806 L 1071.337 540.806 L 1071.337 540.806 Q 1071.075 540.527 1070.947 539.779 L 1070.947 539.779 L 1070.947 539.779 Q 1070.819 539.031 1070.81 537.727 L 1070.81 537.727 L 1070.81 537.727 Q 1070.802 536.424 1070.812 534.373 L 1070.812 534.373 L 1070.812 534.373 Q 1070.815 533.846 1070.866 532.293 L 1070.866 532.293 L 1070.866 532.293 Q 1070.918 530.741 1071.045 528.72 L 1071.045 528.72 L 1071.045 528.72 Q 1071.172 526.699 1071.359 524.488 L 1071.359 524.488 L 1071.359 524.488 Q 1071.546 522.277 1071.789 520.432 L 1071.789 520.432 L 1071.789 520.432 Q 1072.033 518.588 1072.361 517.388 L 1072.361 517.388 L 1072.361 517.388 Q 1072.689 516.189 1073.099 516.191 L 1073.099 516.191 L 1073.099 516.191 Q 1073.304 516.192 1073.479 516.339 L 1073.479 516.339 L 1073.479 516.339 Q 1073.654 516.486 1073.8 516.648 L 1073.8 516.648 L 1073.8 516.648 Q 1073.946 516.81 1074.077 516.957 L 1074.077 516.957 L 1074.077 516.957 Q 1074.208 517.104 1074.354 517.105 L 1074.354 517.105 L 1074.354 517.105 Q 1074.472 517.106 1074.604 516.989 L 1074.604 516.989 L 1074.604 516.989 Q 1074.736 516.872 1074.84 516.712 L 1074.84 516.712 L 1074.84 516.712 Q 1074.943 516.551 1075.046 516.435 L 1075.046 516.435 L 1075.046 516.435 Q 1075.149 516.318 1075.208 516.318 L 1075.208 516.318 L 1075.208 516.318 Q 1075.296 516.319 1075.47 516.612 L 1075.47 516.612 L 1075.47 516.612 Q 1075.645 516.906 1075.804 517.303 L 1075.804 517.303 L 1075.804 517.303 Q 1075.963 517.699 1076.093 518.124 L 1076.093 518.124 L 1076.093 518.124 Q 1076.222 518.55 1076.221 518.784 L 1076.221 518.784 L 1076.221 518.784 Q 1076.218 519.37 1076.11 520.454 L 1076.11 520.454 L 1076.11 520.454 Q 1076.003 521.537 1075.864 522.84 L 1075.864 522.84 L 1075.864 522.84 Q 1075.726 524.143 1075.617 525.49 L 1075.617 525.49 L 1075.617 525.49 Q 1075.508 526.837 1075.502 527.98 L 1075.502 527.98 L 1075.501 528.097 L 1075.501 528.097 Q 1075.888 526.839 1076.408 525.509 L 1076.408 525.509 L 1076.408 525.509 Q 1076.927 524.178 1077.549 522.907 L 1077.549 522.907 L 1077.549 522.907 Q 1078.17 521.636 1078.864 520.496 L 1078.864 520.496 L 1078.864 520.496 Q 1079.558 519.357 1080.324 518.511 L 1080.324 518.511 L 1080.324 518.511 Q 1081.09 517.666 1081.884 517.171 L 1081.884 517.171 L 1081.884 517.171 Q 1082.677 516.677 1083.497 516.681 L 1083.497 516.681 L 1083.497 516.681 Q 1084.493 516.686 1085.209 517.027 L 1085.209 517.027 L 1085.209 517.027 Q 1085.926 517.367 1086.362 517.97 L 1086.362 517.97 L 1086.362 517.97 Q 1086.799 518.573 1087 519.35 L 1087 519.35 L 1087 519.35 Q 1087.201 520.127 1087.197 521.006 L 1087.197 521.006 L 1087.197 521.006 Q 1087.193 521.768 1087.086 522.764 L 1087.086 522.764 L 1087.086 522.764 Q 1086.978 523.759 1086.855 524.974 L 1086.855 524.974 L 1086.855 524.974 Q 1086.732 526.19 1086.622 527.639 L 1086.622 527.639 L 1086.622 527.639 Q 1086.512 529.089 1086.475 530.788 L 1086.475 530.788 L 1086.475 530.788 Q 1086.861 529.735 1087.41 528.258 L 1087.41 528.258 L 1087.41 528.258 Q 1087.959 526.782 1088.626 525.203 L 1088.626 525.203 L 1088.626 525.203 Q 1089.293 523.624 1090.048 522.075 L 1090.048 522.075 L 1090.048 522.075 Q 1090.803 520.526 1091.57 519.299 L 1091.57 519.299 L 1091.57 519.299 Q 1092.338 518.073 1093.118 517.315 L 1093.118 517.315 L 1093.118 517.315 Q 1093.898 516.557 1094.602 516.56 L 1094.602 516.56 L 1094.602 516.56 Q 1094.807 516.561 1095.524 516.697 L 1095.524 516.697 L 1095.524 516.697 Q 1096.241 516.832 1097.045 517.085 L 1097.045 517.085 L 1097.045 517.085 Q 1097.85 517.338 1098.551 517.708 L 1098.551 517.708 L 1098.551 517.708 Q 1099.252 518.077 1099.484 518.547 L 1099.484 518.547 L 1099.484 518.547 Q 1099.716 519.047 1099.902 519.941 L 1099.902 519.941 L 1099.902 519.941 Q 1100.088 520.836 1100.081 522.33 L 1100.081 522.33 L 1100.081 522.33 Q 1100.074 523.648 1099.875 525.478 L 1099.875 525.478 L 1099.875 525.478 Q 1099.676 527.308 1099.194 529.884 L 1099.194 529.884 L 1099.194 529.884 Q 1099.043 530.733 1098.996 531.524 L 1098.996 531.524 L 1098.996 531.524 Q 1098.948 532.314 1098.944 533.076 L 1098.944 533.076 L 1098.944 533.076 Q 1098.938 534.189 1099.036 535.157 L 1099.036 535.157 L 1099.036 535.157 Q 1099.134 536.124 1099.277 536.886 L 1099.277 536.886 L 1099.277 536.886 Q 1099.419 537.649 1099.563 538.192 L 1099.563 538.192 L 1099.563 538.192 Q 1099.707 538.734 1099.823 538.94 Z  M 1117.293 505.336 L 1117.293 505.336 L 1117.293 505.336 Q 1117.242 505.921 1117.071 506.622 L 1117.071 506.622 L 1117.071 506.622 Q 1116.9 507.323 1116.648 507.968 L 1116.648 507.968 L 1116.648 507.968 Q 1116.396 508.613 1116.048 509.098 L 1116.048 509.098 L 1116.048 509.098 Q 1115.7 509.582 1115.295 509.733 L 1115.295 509.733 L 1115.295 509.733 Q 1114.269 510.094 1113.543 509.993 L 1113.543 509.993 L 1113.543 509.993 Q 1112.963 509.913 1112.58 509.579 L 1112.58 509.579 L 1112.58 509.579 Q 1112.198 509.245 1111.839 508.841 L 1111.839 508.841 L 1111.839 508.841 Q 1111.323 508.296 1111.036 507.487 L 1111.036 507.487 L 1111.036 507.487 Q 1110.748 506.679 1110.845 505.982 L 1110.845 505.982 L 1110.845 505.982 Q 1110.921 505.431 1111.22 504.659 L 1111.22 504.659 L 1111.22 504.659 Q 1111.519 503.887 1111.914 503.172 L 1111.914 503.172 L 1111.914 503.172 Q 1112.308 502.458 1112.728 501.88 L 1112.728 501.88 L 1112.728 501.88 Q 1113.148 501.303 1113.5 501.115 L 1113.5 501.115 L 1113.5 501.115 Q 1114.049 500.777 1114.476 500.791 L 1114.476 500.791 L 1114.476 500.791 Q 1114.903 500.806 1115.152 500.929 L 1115.152 500.929 L 1115.152 500.929 Q 1115.77 501.162 1116.234 501.448 L 1116.234 501.448 L 1116.234 501.448 Q 1116.697 501.734 1116.968 502.23 L 1116.968 502.23 L 1116.968 502.23 Q 1117.24 502.726 1117.314 503.476 L 1117.314 503.476 L 1117.314 503.476 Q 1117.387 504.225 1117.293 505.336 Z  M 1113.119 517.979 L 1113.119 517.979 L 1113.119 517.979 Q 1113.244 518.144 1113.204 518.967 L 1113.204 518.967 L 1113.204 518.967 Q 1113.164 519.79 1112.983 521.096 L 1112.983 521.096 L 1112.983 521.096 Q 1112.863 521.966 1112.694 522.978 L 1112.694 522.978 L 1112.694 522.978 Q 1112.524 523.99 1112.332 525.057 L 1112.332 525.057 L 1112.332 525.057 Q 1112.14 526.125 1111.931 527.205 L 1111.931 527.205 L 1111.931 527.205 Q 1111.723 528.286 1111.557 529.268 L 1111.557 529.268 L 1111.557 529.268 Q 1111.245 530.881 1111.04 532.258 L 1111.04 532.258 L 1111.04 532.258 Q 1110.835 533.634 1110.658 534.911 L 1110.658 534.911 L 1110.658 534.911 Q 1110.425 536.594 1110.262 537.991 L 1110.262 537.991 L 1110.262 537.991 Q 1110.098 539.388 1109.97 540.317 L 1109.97 540.317 L 1109.97 540.317 Q 1109.829 541.333 1109.682 541.86 L 1109.682 541.86 L 1109.682 541.86 Q 1109.535 542.386 1109.295 542.412 L 1109.295 542.412 L 1109.295 542.412 Q 1109.026 542.434 1108.826 542.599 L 1108.826 542.599 L 1108.826 542.599 Q 1108.626 542.763 1108.456 542.917 L 1108.456 542.917 L 1108.456 542.917 Q 1108.287 543.071 1108.081 543.176 L 1108.081 543.176 L 1108.081 543.176 Q 1107.874 543.28 1107.621 543.186 L 1107.621 543.186 L 1107.621 543.186 Q 1107.48 543.137 1107.163 542.857 L 1107.163 542.857 L 1107.163 542.857 Q 1106.847 542.577 1106.502 542.189 L 1106.502 542.189 L 1106.502 542.189 Q 1106.156 541.801 1105.868 541.317 L 1105.868 541.317 L 1105.868 541.317 Q 1105.58 540.834 1105.528 540.353 L 1105.528 540.353 L 1105.528 540.353 Q 1105.502 540.113 1105.555 539.411 L 1105.555 539.411 L 1105.555 539.411 Q 1105.608 538.708 1105.715 537.717 L 1105.715 537.717 L 1105.715 537.717 Q 1105.823 536.727 1105.96 535.518 L 1105.96 535.518 L 1105.96 535.518 Q 1106.098 534.31 1106.254 533.075 L 1106.254 533.075 L 1106.254 533.075 Q 1106.41 531.839 1106.575 530.649 L 1106.575 530.649 L 1106.575 530.649 Q 1106.739 529.459 1106.872 528.502 L 1106.872 528.502 L 1106.872 528.502 Q 1107.077 527.022 1107.391 525.498 L 1107.391 525.498 L 1107.391 525.498 Q 1107.705 523.974 1108.021 522.657 L 1108.021 522.657 L 1108.021 522.657 Q 1108.336 521.34 1108.605 520.357 L 1108.605 520.357 L 1108.605 520.357 Q 1108.874 519.374 1108.988 518.975 L 1108.988 518.975 L 1108.988 518.975 Q 1109.201 518.295 1109.385 517.921 L 1109.385 517.921 L 1109.385 517.921 Q 1109.57 517.548 1109.754 517.395 L 1109.754 517.395 L 1109.754 517.395 Q 1109.938 517.243 1110.103 517.222 L 1110.103 517.222 L 1110.103 517.222 Q 1110.269 517.201 1110.447 517.196 L 1110.447 517.196 L 1110.447 517.196 Q 1110.803 517.186 1111.249 517.277 L 1111.249 517.277 L 1111.249 517.277 Q 1111.695 517.368 1112.093 517.482 L 1112.093 517.482 L 1112.093 517.482 Q 1112.491 517.597 1112.782 517.74 L 1112.782 517.74 L 1112.782 517.74 Q 1113.073 517.884 1113.119 517.979 Z " fill-rule="evenodd" fill="rgb(0,0,0)"/></g></g></svg>