<?xml version="1.0" standalone="no"?><!-- Generator: Gravit.io --><svg xmlns="http://www.w3.org/2000/svg" xmlns:xlink="http://www.w3.org/1999/xlink" style="isolation:isolate" viewBox="62.5 750.809 30 24.383" width="30" height="24.383"><path d=" M 92.5 753.7 C 91.398 754.19 90.21 754.521 88.965 754.671 C 90.25 753.9 91.211 752.69 91.671 751.264 C 90.463 751.981 89.14 752.486 87.761 752.758 C 85.856 750.722 82.82 750.222 80.362 751.538 C 77.903 752.854 76.637 755.659 77.275 758.373 C 72.325 758.123 67.714 755.784 64.589 751.937 C 64.041 752.878 63.753 753.948 63.756 755.038 C 63.756 757.171 64.841 759.054 66.494 760.157 C 65.516 760.128 64.56 759.864 63.705 759.388 L 63.705 759.466 C 63.706 762.395 65.769 764.919 68.641 765.502 C 68.113 765.646 67.568 765.718 67.021 765.717 C 66.622 765.717 66.237 765.68 65.862 765.606 C 66.667 768.113 68.977 769.83 71.609 769.879 C 69.43 771.592 66.737 772.52 63.965 772.513 C 63.467 772.513 62.981 772.486 62.5 772.43 C 65.314 774.237 68.589 775.196 71.934 775.191 C 83.255 775.191 89.446 765.813 89.446 757.685 C 89.446 757.415 89.441 757.149 89.427 756.883 C 90.635 756.016 91.676 754.938 92.5 753.7 Z " fill="rgb(0,0,0)"/></svg>