<?xml version="1.0" standalone="no"?><!-- Generator: Gravit.io --><svg xmlns="http://www.w3.org/2000/svg" xmlns:xlink="http://www.w3.org/1999/xlink" style="isolation:isolate" viewBox="172.5 748.469 30 29.063" width="30" height="29.063"><path d=" M 187.5 748.469 C 179.25 748.469 172.5 755.219 172.5 763.469 C 172.5 769.844 176.499 775.28 182.062 777.467 C 182.625 777.343 183.125 776.842 183.125 776.217 L 183.125 773.469 L 181.499 773.469 C 180.312 773.469 179.311 772.908 178.814 772.031 C 178.686 771.781 178.562 771.469 178.437 771.156 C 178.189 770.469 177.876 769.719 177.251 769.281 C 176.999 769.094 176.875 768.717 176.939 768.405 C 177.063 768.092 177.376 767.844 177.937 767.908 C 178.562 767.968 179.499 768.657 180.064 769.406 C 180.561 770.031 180.937 770.408 181.687 770.408 L 181.875 770.408 C 182.436 770.408 183.814 770.408 184.062 770.156 C 184.25 769.907 184.375 769.719 184.562 769.531 C 180.813 768.781 178.686 766.594 178.686 763.281 C 178.686 762.156 178.999 761.032 179.687 760.031 C 179.439 759.094 178.875 756.658 180.064 755.592 L 180.249 755.408 L 180.501 755.408 C 182.124 755.408 183.313 756.093 184.062 756.658 C 186.25 755.844 188.75 755.844 190.937 756.658 C 191.626 756.093 192.812 755.408 194.5 755.408 L 194.751 755.408 L 194.936 755.592 C 196.126 756.718 195.561 759.094 195.312 760.031 C 195.937 761.032 196.314 762.155 196.314 763.281 C 196.314 766.594 194.187 768.781 190.501 769.531 C 191.438 770.531 191.938 772.031 191.938 773.22 L 191.938 776.281 C 191.938 776.906 192.376 777.406 193.001 777.531 C 198.5 775.28 202.5 769.844 202.5 763.469 C 202.5 755.219 195.75 748.469 187.5 748.469 Z " fill="rgb(0,0,0)"/></svg>