<?xml version="1.0" standalone="no"?><!-- Generator: Gravit.io --><svg xmlns="http://www.w3.org/2000/svg" xmlns:xlink="http://www.w3.org/1999/xlink" style="isolation:isolate" viewBox="227.5 748 30 30" width="30" height="30"><path d=" M 254.75 748 L 230.25 748 C 228.75 748 227.5 749.25 227.5 750.75 L 227.5 775.25 C 227.5 776.75 228.75 778 230.25 778 L 242.5 778 L 242.5 765.5 L 238.75 765.5 L 238.75 761.75 L 242.5 761.75 L 242.5 758 C 242.5 754.875 243.75 753 247.5 753 L 251.25 753 L 251.25 756.75 L 249.625 756.75 C 248.5 756.75 247.5 757.75 247.5 758.875 L 247.5 761.75 L 252.5 761.75 L 251.875 765.5 L 247.5 765.5 L 247.5 778 L 254.75 778 C 256.25 778 257.5 776.75 257.5 775.25 L 257.5 750.75 C 257.5 749.25 256.25 748 254.75 748 Z " fill="rgb(0,0,0)"/></svg>