<?xml version="1.0" standalone="no"?><!-- Generator: Gravit.io --><svg xmlns="http://www.w3.org/2000/svg" xmlns:xlink="http://www.w3.org/1999/xlink" style="isolation:isolate" viewBox="117.5 748 30 30" width="30" height="30"><path d=" M 125.833 748 C 121.231 748 117.5 751.731 117.5 756.333 L 117.5 769.667 C 117.5 774.269 121.231 778 125.833 778 L 139.167 778 C 143.769 778 147.5 774.269 147.5 769.667 L 147.5 756.333 C 147.5 751.731 143.769 748 139.167 748 L 125.833 748 Z  M 142.5 751.333 C 143.417 751.333 144.167 752.083 144.167 753 C 144.167 753.917 143.417 754.667 142.5 754.667 C 141.583 754.667 140.833 753.917 140.833 753 C 140.833 752.083 141.583 751.333 142.5 751.333 Z  M 132.5 754.667 C 137.102 754.667 140.833 758.398 140.833 763 C 140.833 767.602 137.102 771.333 132.5 771.333 C 127.898 771.333 124.167 767.602 124.167 763 C 124.167 758.398 127.898 754.667 132.5 754.667 Z  M 132.5 758 C 130.713 758.001 129.062 758.954 128.169 760.502 C 127.276 762.05 127.277 763.957 128.171 765.504 C 129.065 767.051 130.716 768.004 132.503 768.003 C 135.266 768.002 137.504 765.762 137.503 763 C 137.502 760.238 135.262 757.999 132.5 758 L 132.5 758 Z " fill="rgb(0,0,0)"/></svg>