<?xml version="1.0" standalone="no"?><!-- Generator: Gravit.io --><svg xmlns="http://www.w3.org/2000/svg" xmlns:xlink="http://www.w3.org/1999/xlink" style="isolation:isolate" viewBox="65.644 74.154 186.125 157.032" width="186.125" height="157.032"><g><circle vector-effect="non-scaling-stroke" cx="161.69632471333387" cy="184.68262134654506" r="44.50319691146524" fill="none" stroke-width="4" stroke="rgb(0,0,0)" stroke-linejoin="miter" stroke-linecap="square" stroke-miterlimit="3"/><clipPath id="_clipPath_1wuELILJU7ECKyJvJ0qjZx3OgmXE5aYE"><circle vector-effect="non-scaling-stroke" cx="161.69632471333387" cy="184.68262134654506" r="44.50319691146524" fill="none" stroke-width="4" stroke="rgb(0,0,0)" stroke-linejoin="miter" stroke-linecap="square" stroke-miterlimit="3"/></clipPath><g clip-path="url(#_clipPath_1wuELILJU7ECKyJvJ0qjZx3OgmXE5aYE)"><path d=" M 145.322 195.457 C 144.253 194.582 143.335 193.826 143.335 193.103 L 143.378 193.103 L 143.378 174.957 L 140.786 174.957 L 140.786 192.8 C 140.764 192.897 140.742 193.005 140.742 193.113 C 140.742 193.837 139.835 194.593 138.777 195.468 C 136.887 197.034 134.294 199.183 134.294 203.385 C 134.294 205.848 135.212 207.921 136.951 209.401 C 138.377 210.605 140.184 211.263 142.049 211.259 C 143.842 211.259 145.646 210.654 147.126 209.434 C 148.908 207.965 149.858 205.869 149.858 203.385 C 149.858 199.173 147.234 197.023 145.322 195.457 L 145.322 195.457 Z  M 144.555 159.922 C 144.534 159.836 144.501 159.76 144.469 159.684 C 144.436 159.609 144.404 159.533 144.361 159.458 C 144.328 159.404 144.307 159.36 144.274 159.306 C 144.242 159.252 144.199 159.198 144.166 159.144 C 144.145 159.112 144.112 159.079 144.091 159.047 C 144.037 158.982 143.983 158.917 143.929 158.863 C 143.875 158.809 143.81 158.745 143.745 158.701 C 143.713 158.68 143.68 158.647 143.648 158.626 C 143.594 158.583 143.54 158.55 143.486 158.518 C 143.432 158.485 143.389 158.453 143.335 158.431 C 143.259 158.388 143.183 158.356 143.108 158.323 C 143.032 158.291 142.946 158.259 142.87 158.237 C 142.827 158.226 142.784 158.215 142.751 158.205 C 142.665 158.183 142.589 158.161 142.503 158.151 C 142.238 158.106 141.968 158.106 141.704 158.151 C 141.617 158.161 141.531 158.183 141.455 158.205 C 141.412 158.215 141.369 158.226 141.337 158.237 C 141.25 158.259 141.174 158.291 141.099 158.323 C 141.023 158.356 140.948 158.388 140.872 158.431 C 140.818 158.464 140.775 158.485 140.721 158.518 C 140.667 158.55 140.613 158.593 140.559 158.626 C 140.526 158.647 140.494 158.68 140.462 158.701 C 140.386 158.766 140.31 158.842 140.235 158.917 C 140.192 158.961 140.148 159.004 140.105 159.058 C 140.084 159.09 140.051 159.123 140.03 159.155 C 139.986 159.209 139.954 159.263 139.922 159.317 C 139.889 159.371 139.857 159.414 139.835 159.468 C 139.792 159.544 139.76 159.62 139.727 159.695 C 139.695 159.771 139.662 159.857 139.641 159.933 C 139.63 159.976 139.619 160.019 139.608 160.052 C 139.554 160.257 139.522 160.473 139.522 160.7 L 139.522 173.661 L 144.706 173.661 L 144.706 160.7 C 144.706 160.473 144.674 160.257 144.62 160.052 C 144.577 160.008 144.566 159.965 144.555 159.922 L 144.555 159.922 Z  M 165.423 193.113 L 162.83 193.113 L 162.83 174.957 L 160.238 174.957 L 160.238 193.113 L 157.646 193.113 C 155.497 193.113 153.758 194.852 153.758 197.002 L 153.758 206.074 C 153.758 208.224 155.497 209.963 157.646 209.963 L 165.423 209.963 C 167.572 209.963 169.311 208.224 169.311 206.074 L 169.311 197.002 C 169.311 194.852 167.561 193.113 165.423 193.113 L 165.423 193.113 Z  M 159.579 204.778 C 159.579 205.135 159.288 205.426 158.931 205.426 C 158.575 205.426 158.283 205.135 158.283 204.778 L 158.283 198.298 C 158.283 197.941 158.575 197.65 158.931 197.65 C 159.288 197.65 159.579 197.941 159.579 198.298 L 159.579 204.778 Z  M 164.764 204.778 C 164.764 205.135 164.472 205.426 164.116 205.426 C 163.759 205.426 163.468 205.135 163.468 204.778 L 163.468 198.298 C 163.468 197.941 163.759 197.65 164.116 197.65 C 164.472 197.65 164.764 197.941 164.764 198.298 L 164.764 204.778 Z  M 163.813 159.458 C 163.77 159.382 163.727 159.317 163.684 159.242 C 163.619 159.134 163.532 159.036 163.457 158.95 C 163.424 158.917 163.403 158.885 163.37 158.863 C 163.316 158.809 163.252 158.745 163.187 158.701 L 163.046 158.593 C 163.003 158.561 162.96 158.539 162.928 158.507 C 162.528 158.248 162.053 158.107 161.545 158.107 C 161.037 158.107 160.562 158.259 160.163 158.507 C 160.119 158.529 160.076 158.561 160.044 158.593 C 160.001 158.626 159.947 158.658 159.903 158.701 C 159.713 158.861 159.546 159.046 159.407 159.252 C 159.363 159.317 159.32 159.393 159.277 159.468 C 159.255 159.501 159.234 159.544 159.223 159.576 C 159.061 159.911 158.964 160.3 158.964 160.7 L 158.964 173.661 L 164.148 173.661 L 164.148 160.7 C 164.148 160.3 164.051 159.911 163.889 159.576 C 163.846 159.533 163.824 159.501 163.813 159.458 L 163.813 159.458 Z  M 182.272 174.957 L 179.68 174.957 L 179.68 184.635 C 178.513 186.536 172.875 196.073 172.875 203.158 C 172.875 207.587 176.44 211.194 180.857 211.259 L 181.116 211.259 C 185.523 211.194 189.098 207.587 189.098 203.158 C 189.098 196.051 183.46 186.536 182.294 184.635 L 182.294 174.957 L 182.272 174.957 L 182.272 174.957 Z  M 177.639 207.543 C 176.268 206.502 175.461 204.88 175.457 203.158 C 175.457 200.21 176.623 196.656 177.973 193.535 C 177.477 196.667 177.077 200.156 177.077 203.158 C 177.088 204.66 177.271 206.204 177.639 207.543 Z  M 186.485 203.158 C 186.485 204.94 185.631 206.539 184.303 207.543 C 184.681 206.204 184.854 204.66 184.854 203.158 C 184.854 200.134 184.454 196.645 183.957 193.524 C 185.318 196.645 186.485 200.199 186.485 203.158 Z  M 182.272 203.158 C 182.272 206.366 181.419 208.224 180.976 208.624 C 180.533 208.224 179.68 206.377 179.68 203.158 C 179.68 199.507 180.328 194.982 180.976 191.407 C 181.624 194.982 182.272 199.497 182.272 203.158 Z  M 182.704 158.766 C 182.629 158.701 182.564 158.647 182.477 158.593 C 182.423 158.55 182.369 158.518 182.315 158.485 C 182.24 158.442 182.175 158.399 182.099 158.367 C 182.024 158.334 181.948 158.302 181.862 158.269 C 180.652 157.818 179.296 158.33 178.686 159.468 C 178.643 159.544 178.611 159.62 178.578 159.695 C 178.546 159.771 178.513 159.857 178.492 159.933 C 178.481 159.976 178.47 160.019 178.459 160.052 C 178.405 160.257 178.373 160.473 178.373 160.7 L 178.373 173.661 L 183.557 173.661 L 183.557 160.7 C 183.557 159.987 183.266 159.339 182.801 158.863 C 182.78 158.831 182.747 158.799 182.704 158.766 L 182.704 158.766 Z " fill="rgb(0,0,0)"/></g><circle vector-effect="non-scaling-stroke" cx="161.69632471333387" cy="184.68262134654506" r="44.50319691146524" fill="transparent" stroke-width="4" stroke="rgb(0,0,0)" stroke-linejoin="miter" stroke-linecap="square" stroke-miterlimit="3"/><path d=" M 226.782 117.771 L 226.782 117.771 L 226.782 117.771 Q 226.685 117.938 226.647 118.11 L 226.647 118.11 L 226.647 118.11 Q 226.609 118.282 226.555 118.34 L 226.555 118.34 L 226.555 118.34 Q 226.502 118.397 226.396 118.257 L 226.396 118.257 L 226.396 118.257 Q 226.291 118.116 226.059 117.658 L 226.059 117.658 L 225.526 117.307 L 225.207 117.482 L 225.207 117.482 Q 225.119 117.53 225.039 117.555 L 225.039 117.555 L 225.039 117.555 Q 224.813 117.66 224.703 117.494 L 224.703 117.494 L 224.703 117.494 Q 224.593 117.327 224.42 117.081 L 224.42 117.081 L 224.42 117.081 Q 224.286 116.871 224.221 116.803 L 224.221 116.803 L 224.221 116.803 Q 224.155 116.735 224.134 116.766 L 224.134 116.766 L 224.134 116.766 Q 224.113 116.796 224.088 116.923 L 224.088 116.923 L 224.088 116.923 Q 224.063 117.05 223.995 117.201 L 223.995 117.201 L 223.995 117.201 Q 223.975 117.269 223.813 117.405 L 223.813 117.405 L 223.813 117.405 Q 223.651 117.541 223.632 117.608 L 223.632 117.608 L 223.632 117.608 Q 223.527 117.797 223.457 117.704 L 223.457 117.704 L 223.457 117.704 Q 223.387 117.61 223.29 117.606 L 223.29 117.606 L 223.29 117.606 Q 223.245 117.593 223.168 117.522 L 223.168 117.522 L 223.168 117.522 Q 223.114 117.457 223.039 117.337 L 223.039 117.337 L 223.039 117.337 Q 222.964 117.218 222.911 116.982 L 222.911 116.982 L 222.911 116.982 Q 222.887 116.731 222.862 116.565 L 222.862 116.565 L 222.862 116.565 Q 222.837 116.399 222.816 116.222 L 222.816 116.222 L 222.816 116.222 Q 222.794 116.045 222.781 115.797 L 222.781 115.797 L 222.781 115.797 Q 222.768 115.549 222.783 115.163 L 222.783 115.163 L 222.783 115.163 Q 222.821 114.783 222.991 113.783 L 222.991 113.783 L 222.991 113.783 Q 223.161 112.783 223.423 111.382 L 223.423 111.382 L 223.423 111.382 Q 223.686 109.981 224.01 108.245 L 224.01 108.245 L 224.01 108.245 Q 224.334 106.508 224.704 104.614 L 224.704 104.614 L 224.704 104.614 Q 225.074 102.72 225.449 100.766 L 225.449 100.766 L 225.449 100.766 Q 225.825 98.813 226.189 96.978 L 226.189 96.978 L 226.189 96.978 Q 226.554 95.144 226.886 93.507 L 226.886 93.507 L 226.886 93.507 Q 227.217 91.87 227.46 90.622 L 227.46 90.622 L 211.521 110.921 L 211.521 110.921 Q 211.06 111.495 210.546 111.918 L 210.546 111.918 L 210.546 111.918 Q 210.031 112.342 209.565 112.56 L 209.565 112.56 L 209.565 112.56 Q 209.098 112.777 208.717 112.788 L 208.717 112.788 L 208.717 112.788 Q 208.335 112.799 208.156 112.576 L 208.156 112.576 L 208.156 112.576 Q 207.884 112.252 207.766 111.863 L 207.766 111.863 L 207.766 111.863 Q 207.648 111.475 207.61 111.061 L 207.61 111.061 L 207.61 111.061 Q 207.572 110.647 207.578 110.209 L 207.578 110.209 L 207.578 110.209 Q 207.583 109.771 207.551 109.298 L 207.551 109.298 L 207.551 109.298 Q 207.516 108.58 207.588 107.038 L 207.588 107.038 L 207.588 107.038 Q 207.66 105.496 207.772 103.441 L 207.772 103.441 L 207.772 103.441 Q 207.884 101.386 208.056 98.958 L 208.056 98.958 L 208.056 98.958 Q 208.228 96.53 208.397 94.028 L 208.397 94.028 L 208.397 94.028 Q 208.566 91.526 208.743 89.124 L 208.743 89.124 L 208.743 89.124 Q 208.919 86.721 209.05 84.684 L 209.05 84.684 L 209.05 84.684 Q 208.708 85.439 208.023 86.863 L 208.023 86.863 L 208.023 86.863 Q 207.339 88.287 206.451 90.115 L 206.451 90.115 L 206.451 90.115 Q 205.563 91.943 204.537 94.036 L 204.537 94.036 L 204.537 94.036 Q 203.51 96.129 202.495 98.226 L 202.495 98.226 L 202.495 98.226 Q 201.48 100.322 200.527 102.29 L 200.527 102.29 L 200.527 102.29 Q 199.574 104.258 198.806 105.84 L 198.806 105.84 L 198.806 105.84 Q 198.039 107.423 197.529 108.458 L 197.529 108.458 L 197.529 108.458 Q 197.019 109.494 196.918 109.757 L 196.918 109.757 L 196.918 109.757 Q 196.858 109.96 196.703 110.158 L 196.703 110.158 L 196.703 110.158 Q 196.583 110.319 196.396 110.496 L 196.396 110.496 L 196.396 110.496 Q 196.21 110.674 195.949 110.817 L 195.949 110.817 L 195.949 110.817 Q 195.749 110.832 195.549 110.847 L 195.549 110.847 L 195.549 110.847 Q 195.35 110.862 195.234 110.755 L 195.234 110.755 L 195.234 110.755 Q 195.097 110.641 195.123 110.466 L 195.123 110.466 L 195.123 110.466 Q 195.15 110.291 194.965 110.09 L 194.965 110.09 L 194.965 110.09 Q 194.862 109.938 194.721 109.836 L 194.721 109.836 L 194.721 109.836 Q 194.58 109.734 194.518 109.447 L 194.518 109.447 L 194.518 109.447 Q 194.564 109.289 194.545 109.186 L 194.545 109.186 L 194.545 109.186 Q 194.536 109.135 194.52 109.106 L 194.52 109.106 L 194.52 109.106 Q 194.504 109.077 194.478 108.996 L 194.478 108.996 L 194.478 108.996 Q 194.453 108.915 194.294 108.625 L 194.294 108.625 L 194.294 108.625 Q 194.238 108.315 194.277 107.973 L 194.277 107.973 L 194.277 107.973 Q 194.316 107.63 194.573 107.168 L 194.573 107.168 L 194.573 107.168 Q 194.664 107.024 194.993 106.399 L 194.993 106.399 L 194.993 106.399 Q 195.321 105.775 195.792 104.875 L 195.792 104.875 L 195.792 104.875 Q 196.262 103.974 196.826 102.881 L 196.826 102.881 L 196.826 102.881 Q 197.389 101.789 197.962 100.662 L 197.962 100.662 L 197.962 100.662 Q 198.536 99.535 199.049 98.489 L 199.049 98.489 L 199.049 98.489 Q 199.562 97.442 199.947 96.627 L 199.947 96.627 L 199.947 96.627 Q 200.298 95.924 201 94.651 L 201 94.651 L 201 94.651 Q 201.701 93.379 202.592 91.832 L 202.592 91.832 L 202.592 91.832 Q 203.483 90.286 204.477 88.598 L 204.477 88.598 L 204.477 88.598 Q 205.47 86.911 206.394 85.337 L 206.394 85.337 L 206.394 85.337 Q 207.317 83.763 208.083 82.436 L 208.083 82.436 L 208.083 82.436 Q 208.849 81.11 209.279 80.307 L 209.279 80.307 L 209.279 80.307 Q 209.267 80.182 209.277 80.063 L 209.277 80.063 L 209.277 80.063 Q 209.287 79.943 209.32 79.831 L 209.32 79.831 L 209.32 79.831 Q 209.296 79.58 209.426 79.593 L 209.426 79.593 L 209.426 79.593 Q 209.556 79.607 209.644 79.559 L 209.644 79.559 L 209.644 79.559 Q 209.657 79.514 209.686 79.498 L 209.686 79.498 L 209.686 79.498 Q 209.715 79.482 209.728 79.437 L 209.728 79.437 L 209.728 79.437 Q 209.768 79.302 209.813 79.316 L 209.813 79.316 L 209.813 79.316 Q 209.898 79.023 210.014 78.959 L 210.014 78.959 L 210.014 78.959 Q 210.13 78.896 210.238 78.903 L 210.238 78.903 L 210.238 78.903 Q 210.346 78.91 210.436 78.936 L 210.436 78.936 L 210.436 78.936 Q 210.526 78.962 210.588 78.834 L 210.588 78.834 L 210.588 78.834 Q 210.718 78.555 210.804 78.47 L 210.804 78.47 L 210.804 78.47 Q 210.89 78.385 210.966 78.419 L 210.966 78.419 L 210.966 78.419 Q 211.041 78.453 211.153 78.572 L 211.153 78.572 L 211.153 78.572 Q 211.265 78.69 211.441 78.839 L 211.441 78.839 L 211.441 78.839 Q 211.54 78.917 211.623 78.929 L 211.623 78.929 L 211.623 78.929 Q 211.705 78.94 211.791 78.978 L 211.791 78.978 L 211.791 78.978 Q 211.878 79.015 211.989 79.096 L 211.989 79.096 L 211.989 79.096 Q 212.099 79.178 212.24 79.365 L 212.24 79.365 L 212.24 79.365 Q 212.342 79.517 212.443 79.547 L 212.443 79.547 L 212.443 79.547 Q 212.544 79.576 212.643 79.532 L 212.643 79.532 L 212.643 79.532 Q 212.741 79.487 212.824 79.414 L 212.824 79.414 L 212.824 79.414 Q 212.906 79.34 212.971 79.286 L 212.971 79.286 L 212.971 79.286 Q 213.071 79.193 213.206 79.232 L 213.206 79.232 L 213.206 79.232 Q 213.341 79.272 213.421 79.417 L 213.421 79.417 L 213.421 79.417 Q 213.503 79.637 213.562 79.727 L 213.562 79.727 L 213.562 79.727 Q 213.621 79.818 213.645 79.861 L 213.645 79.861 L 213.645 79.861 Q 213.669 79.905 213.666 79.916 L 213.666 79.916 L 213.666 79.916 Q 213.663 79.927 213.665 80.001 L 213.665 80.001 L 213.665 80.001 Q 213.707 81.112 213.644 82.29 L 213.644 82.29 L 213.644 82.29 Q 213.581 83.468 213.448 84.968 L 213.448 84.968 L 213.448 84.968 Q 213.315 86.467 213.156 88.435 L 213.156 88.435 L 213.156 88.435 Q 212.996 90.403 212.845 93.093 L 212.845 93.093 L 212.845 93.093 Q 212.564 97.65 212.433 100.774 L 212.433 100.774 L 212.433 100.774 Q 212.302 103.898 212.37 105.505 L 212.37 105.505 L 212.37 105.505 Q 213.122 104.601 214.197 103.304 L 214.197 103.304 L 214.197 103.304 Q 215.272 102.006 216.501 100.473 L 216.501 100.473 L 216.501 100.473 Q 217.73 98.939 219.066 97.291 L 219.066 97.291 L 219.066 97.291 Q 220.402 95.642 221.706 94.021 L 221.706 94.021 L 221.706 94.021 Q 223.01 92.399 224.211 90.919 L 224.211 90.919 L 224.211 90.919 Q 225.413 89.439 226.358 88.25 L 226.358 88.25 L 226.358 88.25 Q 227.303 87.061 227.955 86.25 L 227.955 86.25 L 227.955 86.25 Q 228.607 85.439 228.799 85.202 L 228.799 85.202 L 228.799 85.202 Q 229.026 84.927 229.163 84.747 L 229.163 84.747 L 229.163 84.747 Q 229.301 84.568 229.447 84.488 L 229.447 84.488 L 229.447 84.488 Q 229.567 84.328 229.713 84.285 L 229.713 84.285 L 229.713 84.285 Q 229.86 84.243 229.998 84.356 L 229.998 84.356 L 229.998 84.356 Q 230.03 84.414 230.091 84.457 L 230.091 84.457 L 230.091 84.457 Q 230.123 84.515 230.175 84.542 L 230.175 84.542 L 230.175 84.542 Q 230.228 84.57 230.26 84.628 L 230.26 84.628 L 230.26 84.628 Q 230.316 84.522 230.386 84.531 L 230.386 84.531 L 230.386 84.531 Q 230.457 84.539 230.547 84.565 L 230.547 84.565 L 230.547 84.565 Q 230.631 84.614 230.737 84.67 L 230.737 84.67 L 230.804 84.689 L 230.894 84.716 L 230.894 84.716 Q 230.975 84.69 231.052 84.676 L 231.052 84.676 L 231.052 84.676 Q 231.129 84.662 231.177 84.749 L 231.177 84.749 L 231.177 84.749 Q 231.347 84.921 231.455 84.843 L 231.455 84.843 L 231.455 84.843 Q 231.563 84.765 231.743 84.817 L 231.743 84.817 L 231.743 84.817 Q 231.856 84.85 231.952 84.854 L 231.952 84.854 L 231.952 84.854 Q 232.026 84.851 232.104 84.837 L 232.104 84.837 L 232.104 84.837 Q 232.181 84.823 232.223 84.762 L 232.223 84.762 L 232.223 84.762 Q 232.313 84.788 232.363 84.827 L 232.363 84.827 L 232.363 84.827 Q 232.413 84.866 232.451 84.902 L 232.451 84.902 L 232.499 84.989 L 232.499 84.989 Q 232.54 85.099 232.475 85.824 L 232.475 85.824 L 232.475 85.824 Q 232.409 86.55 232.286 87.6 L 232.286 87.6 L 232.286 87.6 Q 232.162 88.651 231.989 89.87 L 231.989 89.87 L 231.989 89.87 Q 231.816 91.089 231.642 92.186 L 231.642 92.186 L 231.642 92.186 Q 231.582 92.559 231.359 93.825 L 231.359 93.825 L 231.359 93.825 Q 231.136 95.09 230.8 96.909 L 230.8 96.909 L 230.8 96.909 Q 230.464 98.727 230.058 100.953 L 230.058 100.953 L 230.058 100.953 Q 229.653 103.178 229.234 105.449 L 229.234 105.449 L 229.234 105.449 Q 228.815 107.719 228.403 109.882 L 228.403 109.882 L 228.403 109.882 Q 227.991 112.045 227.651 113.752 L 227.651 113.752 L 227.651 113.752 Q 227.311 115.46 227.078 116.551 L 227.078 116.551 L 227.078 116.551 Q 226.844 117.643 226.782 117.771 Z  M 247.631 120.5 L 247.631 120.5 L 247.631 120.5 Q 247.51 120.728 247.366 121.049 L 247.366 121.049 L 247.366 121.049 Q 247.223 121.371 247.014 121.764 L 247.014 121.764 L 247.014 121.764 Q 246.751 122.262 246.216 122.92 L 246.216 122.92 L 246.216 122.92 Q 245.681 123.578 244.932 124.216 L 244.932 124.216 L 244.932 124.216 Q 244.183 124.853 243.217 125.376 L 243.217 125.376 L 243.217 125.376 Q 242.25 125.898 241.123 126.123 L 241.123 126.123 L 241.123 126.123 Q 239.996 126.348 238.716 126.186 L 238.716 126.186 L 238.716 126.186 Q 237.435 126.025 236.068 125.301 L 236.068 125.301 L 236.068 125.301 Q 234.846 124.653 233.82 123.512 L 233.82 123.512 L 233.82 123.512 Q 232.793 122.371 232.269 120.833 L 232.269 120.833 L 232.269 120.833 Q 231.744 119.295 231.878 117.416 L 231.878 117.416 L 231.878 117.416 Q 232.011 115.538 233.131 113.425 L 233.131 113.425 L 233.131 113.425 Q 233.833 112.1 234.855 110.997 L 234.855 110.997 L 234.855 110.997 Q 235.878 109.894 237.051 109.057 L 237.051 109.057 L 237.051 109.057 Q 238.224 108.22 239.511 107.669 L 239.511 107.669 L 239.511 107.669 Q 240.798 107.117 242.025 106.879 L 242.025 106.879 L 242.025 106.879 Q 243.252 106.641 244.382 106.735 L 244.382 106.735 L 244.382 106.735 Q 245.512 106.83 246.382 107.291 L 246.382 107.291 L 246.382 107.291 Q 247.894 108.093 248.625 109.09 L 248.625 109.09 L 248.625 109.09 Q 249.356 110.088 249.563 111.099 L 249.563 111.099 L 249.563 111.099 Q 249.77 112.111 249.585 113.034 L 249.585 113.034 L 249.585 113.034 Q 249.401 113.958 249.06 114.6 L 249.06 114.6 L 249.06 114.6 Q 248.731 115.221 248.008 115.859 L 248.008 115.859 L 248.008 115.859 Q 247.286 116.497 246.224 116.85 L 246.224 116.85 L 246.224 116.85 Q 245.162 117.202 243.806 117.107 L 243.806 117.107 L 243.806 117.107 Q 242.451 117.012 240.856 116.167 L 240.856 116.167 L 240.856 116.167 Q 240.007 115.717 239.46 115.122 L 239.46 115.122 L 239.46 115.122 Q 238.913 114.527 238.588 113.89 L 238.588 113.89 L 238.588 113.89 Q 238.262 113.253 238.124 112.637 L 238.124 112.637 L 238.124 112.637 Q 237.987 112.02 237.936 111.516 L 237.936 111.516 L 237.936 111.516 Q 236.883 112.602 235.972 114.321 L 235.972 114.321 L 235.972 114.321 Q 235.346 115.501 235.189 116.625 L 235.189 116.625 L 235.189 116.625 Q 235.031 117.748 235.28 118.729 L 235.28 118.729 L 235.28 118.729 Q 235.53 119.71 236.171 120.501 L 236.171 120.501 L 236.171 120.501 Q 236.813 121.292 237.807 121.819 L 237.807 121.819 L 237.807 121.819 Q 239.05 122.477 240.207 122.547 L 240.207 122.547 L 240.207 122.547 Q 241.364 122.616 242.398 122.342 L 242.398 122.342 L 242.398 122.342 Q 243.432 122.068 244.34 121.581 L 244.34 121.581 L 244.34 121.581 Q 245.248 121.094 245.955 120.66 L 245.955 120.66 L 245.955 120.66 Q 246.663 120.225 247.162 119.959 L 247.162 119.959 L 247.162 119.959 Q 247.661 119.693 247.919 119.857 L 247.919 119.857 L 247.919 119.857 Q 248.043 119.923 247.933 120.13 L 247.933 120.13 L 247.933 120.13 Q 247.879 120.233 247.803 120.326 L 247.803 120.326 L 247.803 120.326 Q 247.727 120.418 247.631 120.5 Z  M 245.48 109.493 L 245.48 109.493 L 245.48 109.493 Q 245.108 109.295 244.435 109.138 L 244.435 109.138 L 244.435 109.138 Q 243.763 108.98 242.902 109.028 L 242.902 109.028 L 242.902 109.028 Q 242.041 109.076 241.042 109.409 L 241.042 109.409 L 241.042 109.409 Q 240.044 109.741 239.019 110.524 L 239.019 110.524 L 239.019 110.524 Q 239.385 110.533 239.658 110.545 L 239.658 110.545 L 239.658 110.545 Q 239.93 110.556 240.013 110.6 L 240.013 110.6 L 240.013 110.6 Q 240.054 110.622 240.093 110.749 L 240.093 110.749 L 240.093 110.749 Q 240.141 111.809 240.675 112.529 L 240.675 112.529 L 240.675 112.529 Q 241.208 113.25 242.099 113.722 L 242.099 113.722 L 242.099 113.722 Q 242.803 114.095 243.436 114.126 L 243.436 114.126 L 243.436 114.126 Q 244.07 114.156 244.599 113.959 L 244.599 113.959 L 244.599 113.959 Q 245.128 113.762 245.509 113.394 L 245.509 113.394 L 245.509 113.394 Q 245.89 113.025 246.12 112.59 L 246.12 112.59 L 246.12 112.59 Q 246.614 111.658 246.461 110.795 L 246.461 110.795 L 246.461 110.795 Q 246.309 109.932 245.48 109.493 Z  M 84.049 89.168 L 84.049 89.168 L 84.049 89.168 Q 84.287 90.118 84.034 91.259 L 84.034 91.259 L 84.034 91.259 Q 83.78 92.401 83.253 93.374 L 83.253 93.374 L 83.253 93.374 Q 83.196 93.53 82.949 93.801 L 82.949 93.801 L 82.949 93.801 Q 82.701 94.073 82.415 94.375 L 82.415 94.375 L 82.415 94.375 Q 82.13 94.678 81.84 94.943 L 81.84 94.943 L 81.84 94.943 Q 81.551 95.208 81.37 95.319 L 81.37 95.319 L 81.37 95.319 Q 81.22 95.441 81.095 95.423 L 81.095 95.423 L 81.095 95.423 Q 80.969 95.404 80.845 95.359 L 80.845 95.359 L 80.845 95.359 Q 80.72 95.314 80.568 95.294 L 80.568 95.294 L 80.568 95.294 Q 80.417 95.275 80.205 95.374 L 80.205 95.374 L 80.205 95.374 Q 79.95 95.494 79.842 95.402 L 79.842 95.402 L 79.842 95.402 Q 79.734 95.31 79.691 94.942 L 79.691 94.942 L 79.691 94.942 Q 79.684 94.816 79.7 94.576 L 79.7 94.576 L 79.7 94.576 Q 79.717 94.335 79.81 93.928 L 79.81 93.928 L 79.81 93.928 Q 79.891 93.658 79.898 93.369 L 79.898 93.369 L 79.898 93.369 Q 79.905 93.081 79.736 92.915 L 79.736 92.915 L 79.736 92.915 Q 79.567 92.748 79.168 92.78 L 79.168 92.78 L 79.168 92.78 Q 78.769 92.812 78.047 93.151 L 78.047 93.151 L 78.047 93.151 Q 77.305 93.499 76.228 94.238 L 76.228 94.238 L 76.228 94.238 Q 75.034 95.005 73.885 96.114 L 73.885 96.114 L 73.885 96.114 Q 72.736 97.224 71.741 98.441 L 71.741 98.441 L 71.741 98.441 Q 70.746 99.659 69.993 100.867 L 69.993 100.867 L 69.993 100.867 Q 69.24 102.075 68.864 103.067 L 68.864 103.067 L 68.864 103.067 Q 68.488 104.059 68.571 104.733 L 68.571 104.733 L 68.571 104.733 Q 68.654 105.406 69.332 105.527 L 69.332 105.527 L 69.332 105.527 Q 69.927 105.636 70.944 105.431 L 70.944 105.431 L 70.944 105.431 Q 71.961 105.225 73.234 104.848 L 73.234 104.848 L 73.234 104.848 Q 74.507 104.471 75.959 104.035 L 75.959 104.035 L 75.959 104.035 Q 77.411 103.599 78.888 103.242 L 78.888 103.242 L 78.888 103.242 Q 80.365 102.885 81.774 102.716 L 81.774 102.716 L 81.774 102.716 Q 83.183 102.546 84.395 102.702 L 84.395 102.702 L 84.395 102.702 Q 85.262 102.839 85.897 103.033 L 85.897 103.033 L 85.897 103.033 Q 86.532 103.227 86.992 103.49 L 86.992 103.49 L 86.992 103.49 Q 87.452 103.753 87.796 104.044 L 87.796 104.044 L 87.796 104.044 Q 88.14 104.336 88.447 104.658 L 88.447 104.658 L 88.447 104.658 Q 88.641 104.852 88.998 105.033 L 88.998 105.033 L 88.998 105.033 Q 89.356 105.215 89.799 105.499 L 89.799 105.499 L 89.799 105.499 Q 90.243 105.782 90.699 106.203 L 90.699 106.203 L 90.699 106.203 Q 91.156 106.623 91.548 107.293 L 91.548 107.293 L 91.548 107.293 Q 92.29 108.653 92.231 110.209 L 92.231 110.209 L 92.231 110.209 Q 92.171 111.765 91.64 113.308 L 91.64 113.308 L 91.64 113.308 Q 91.109 114.852 90.251 116.278 L 90.251 116.278 L 90.251 116.278 Q 89.393 117.704 88.506 118.793 L 88.506 118.793 L 88.506 118.793 Q 87.738 119.749 86.813 120.701 L 86.813 120.701 L 86.813 120.701 Q 85.887 121.653 84.844 122.519 L 84.844 122.519 L 84.844 122.519 Q 83.8 123.384 82.665 124.137 L 82.665 124.137 L 82.665 124.137 Q 81.529 124.89 80.341 125.448 L 80.341 125.448 L 80.341 125.448 Q 78.368 126.374 76.385 126.645 L 76.385 126.645 L 76.385 126.645 Q 74.402 126.916 72.532 126.24 L 72.532 126.24 L 72.532 126.24 Q 71.608 125.872 71.018 125.333 L 71.018 125.333 L 71.018 125.333 Q 70.428 124.794 70.12 124.136 L 70.12 124.136 L 70.12 124.136 Q 69.751 123.351 69.721 122.459 L 69.721 122.459 L 69.721 122.459 Q 69.69 121.567 69.891 120.671 L 69.891 120.671 L 69.891 120.671 Q 70.091 119.774 70.463 118.965 L 70.463 118.965 L 70.463 118.965 Q 70.834 118.157 71.278 117.56 L 71.278 117.56 L 71.278 117.56 Q 71.887 116.704 72.584 115.846 L 72.584 115.846 L 72.584 115.846 Q 73.282 114.988 74.03 114.21 L 74.03 114.21 L 74.03 114.21 Q 74.778 113.431 75.58 112.77 L 75.58 112.77 L 75.58 112.77 Q 76.383 112.108 77.202 111.646 L 77.202 111.646 L 77.202 111.646 Q 77.543 111.434 78.074 111.133 L 78.074 111.133 L 78.074 111.133 Q 78.606 110.831 79.094 110.602 L 79.094 110.602 L 79.094 110.602 Q 79.412 110.453 79.704 110.523 L 79.704 110.523 L 79.704 110.523 Q 79.996 110.593 80.013 110.74 L 80.013 110.74 L 80.013 110.74 Q 80.017 111.023 79.751 111.148 L 79.751 111.148 L 79.751 111.148 Q 79.486 111.272 79.165 111.527 L 79.165 111.527 L 79.165 111.527 Q 78.812 111.822 78.429 112.054 L 78.429 112.054 L 78.429 112.054 Q 78.046 112.285 77.777 112.541 L 77.777 112.541 L 77.777 112.541 Q 75.618 114.228 74.351 115.858 L 74.351 115.858 L 74.351 115.858 Q 73.084 117.489 72.505 118.822 L 72.505 118.822 L 72.505 118.822 Q 71.927 120.155 71.93 121.099 L 71.93 121.099 L 71.93 121.099 Q 71.933 122.042 72.271 122.376 L 72.271 122.376 L 72.271 122.376 Q 72.752 122.849 73.474 122.898 L 73.474 122.898 L 73.474 122.898 Q 74.196 122.947 74.982 122.747 L 74.982 122.747 L 74.982 122.747 Q 75.768 122.546 76.521 122.219 L 76.521 122.219 L 76.521 122.219 Q 77.273 121.891 77.784 121.6 L 77.784 121.6 L 77.784 121.6 Q 78.985 120.958 80.362 119.949 L 80.362 119.949 L 80.362 119.949 Q 81.74 118.94 83.07 117.72 L 83.07 117.72 L 83.07 117.72 Q 84.4 116.5 85.572 115.135 L 85.572 115.135 L 85.572 115.135 Q 86.743 113.769 87.515 112.436 L 87.515 112.436 L 87.515 112.436 Q 88.287 111.102 88.554 109.851 L 88.554 109.851 L 88.554 109.851 Q 88.821 108.599 88.343 107.581 L 88.343 107.581 L 88.343 107.581 Q 88.184 107.241 87.934 106.957 L 87.934 106.957 L 87.934 106.957 Q 87.684 106.673 87.345 106.392 L 87.345 106.392 L 87.345 106.392 Q 86.738 105.926 85.642 105.91 L 85.642 105.91 L 85.642 105.91 Q 84.547 105.893 83.162 106.168 L 83.162 106.168 L 83.162 106.168 Q 81.776 106.443 80.208 106.882 L 80.208 106.882 L 80.208 106.882 Q 78.64 107.32 77.11 107.728 L 77.11 107.728 L 77.11 107.728 Q 75.58 108.135 74.157 108.415 L 74.157 108.415 L 74.157 108.415 Q 72.735 108.694 71.646 108.636 L 71.646 108.636 L 71.646 108.636 Q 70.421 108.563 69.721 108.258 L 69.721 108.258 L 69.721 108.258 Q 69.021 107.952 68.589 107.197 L 68.589 107.197 L 68.589 107.197 Q 68.528 107.122 68.322 106.96 L 68.322 106.96 L 68.322 106.96 Q 68.116 106.797 67.869 106.629 L 67.869 106.629 L 67.869 106.629 Q 67.621 106.46 67.394 106.308 L 67.394 106.308 L 67.394 106.308 Q 67.167 106.155 67.044 106.058 L 67.044 106.058 L 67.044 106.058 Q 66.416 105.602 66.077 104.881 L 66.077 104.881 L 66.077 104.881 Q 65.699 104.074 65.672 103.051 L 65.672 103.051 L 65.672 103.051 Q 65.644 102.028 65.907 101.154 L 65.907 101.154 L 65.907 101.154 Q 66.378 99.509 67.575 97.73 L 67.575 97.73 L 67.575 97.73 Q 68.772 95.951 70.397 94.282 L 70.397 94.282 L 70.397 94.282 Q 72.021 92.614 73.897 91.176 L 73.897 91.176 L 73.897 91.176 Q 75.773 89.739 77.61 88.799 L 77.61 88.799 L 77.61 88.799 Q 78.364 88.419 79.378 88.098 L 79.378 88.098 L 79.378 88.098 Q 80.393 87.778 81.364 87.723 L 81.364 87.723 L 81.364 87.723 Q 82.335 87.668 83.077 87.98 L 83.077 87.98 L 83.077 87.98 Q 83.819 88.292 84.049 89.168 Z  M 99.073 95.877 L 99.073 95.877 L 99.073 95.877 Q 99.076 96.048 99.198 96.525 L 99.198 96.525 L 99.198 96.525 Q 99.319 97.003 99.487 97.711 L 99.487 97.711 L 99.487 97.711 Q 100.368 97.148 101.329 96.683 L 101.329 96.683 L 101.329 96.683 Q 102.29 96.218 103.343 95.896 L 103.343 95.896 L 103.343 95.896 Q 104.509 95.54 105.753 95.441 L 105.753 95.441 L 105.753 95.441 Q 106.997 95.343 108.198 95.662 L 108.198 95.662 L 108.198 95.662 Q 109.126 95.893 109.99 96.757 L 109.99 96.757 L 109.99 96.757 Q 110.855 97.62 111.576 98.698 L 111.576 98.698 L 111.576 98.698 Q 111.99 99.332 112.449 100.111 L 112.449 100.111 L 112.449 100.111 Q 112.907 100.889 113.215 101.898 L 113.215 101.898 L 113.215 101.898 Q 113.476 102.75 113.544 103.734 L 113.544 103.734 L 113.544 103.734 Q 113.611 104.718 113.371 105.857 L 113.371 105.857 L 113.371 105.857 Q 113.131 106.997 112.524 108.297 L 112.524 108.297 L 112.524 108.297 Q 111.917 109.598 110.797 111.067 L 110.797 111.067 L 110.797 111.067 Q 109.716 112.501 108.789 113.36 L 108.789 113.36 L 108.789 113.36 Q 107.863 114.218 107.163 114.653 L 107.163 114.653 L 107.163 114.653 Q 106.462 115.088 106.044 115.203 L 106.044 115.203 L 106.044 115.203 Q 105.626 115.319 105.545 115.294 L 105.545 115.294 L 105.545 115.294 Q 105.302 115.221 104.988 114.913 L 104.988 114.913 L 104.988 114.913 Q 104.673 114.605 104.184 114.289 L 104.184 114.289 L 104.184 114.289 Q 104.031 114.189 103.897 114.07 L 103.897 114.07 L 103.897 114.07 Q 103.763 113.952 103.589 113.784 L 103.589 113.784 L 103.589 113.784 Q 104.179 115.957 104.775 118.029 L 104.775 118.029 L 104.775 118.029 Q 105.372 120.102 105.92 121.895 L 105.92 121.895 L 105.92 121.895 Q 106.262 123.016 106.583 123.984 L 106.583 123.984 L 106.583 123.984 Q 106.903 124.952 107.187 125.723 L 107.187 125.723 L 107.187 125.723 Q 107.276 126.014 107.396 126.284 L 107.396 126.284 L 107.396 126.284 Q 107.515 126.554 107.572 126.781 L 107.572 126.781 L 107.572 126.781 Q 107.629 127.009 107.581 127.171 L 107.581 127.171 L 107.581 127.171 Q 107.532 127.333 107.286 127.408 L 107.286 127.408 L 107.286 127.408 Q 106.837 127.545 106.667 127.83 L 106.667 127.83 L 106.667 127.83 Q 106.497 128.115 106.32 128.659 L 106.32 128.659 L 106.32 128.659 Q 106.202 128.916 106.031 129.078 L 106.031 129.078 L 106.031 129.078 Q 105.861 129.241 105.617 129.205 L 105.617 129.205 L 105.617 129.205 Q 105.373 129.169 105.061 128.909 L 105.061 128.909 L 105.061 128.909 Q 104.749 128.649 104.371 128.054 L 104.371 128.054 L 104.371 128.054 Q 104.221 127.805 104.032 127.385 L 104.032 127.385 L 104.032 127.385 Q 103.842 126.965 103.606 126.314 L 103.606 126.314 L 103.606 126.314 Q 103.371 125.663 103.075 124.737 L 103.075 124.737 L 103.075 124.737 Q 102.78 123.81 102.39 122.532 L 102.39 122.532 L 100.11 114.749 L 100.11 114.749 Q 99.257 111.799 98.587 108.965 L 98.587 108.965 L 98.587 108.965 Q 97.918 106.131 97.418 103.612 L 97.418 103.612 L 97.418 103.612 Q 96.926 104.008 96.489 104.264 L 96.489 104.264 L 96.489 104.264 Q 96.053 104.52 95.92 104.487 L 95.92 104.487 L 95.92 104.487 Q 95.669 104.465 95.567 104.374 L 95.567 104.374 L 95.567 104.374 Q 95.466 104.282 95.412 104.188 L 95.412 104.188 L 95.412 104.188 Q 95.359 104.094 95.302 104.026 L 95.302 104.026 L 95.302 104.026 Q 95.244 103.958 95.08 103.984 L 95.08 103.984 L 95.08 103.984 Q 94.917 104.009 94.77 103.931 L 94.77 103.931 L 94.77 103.931 Q 94.624 103.853 94.556 103.752 L 94.556 103.752 L 94.556 103.752 Q 94.488 103.65 94.513 103.532 L 94.513 103.532 L 94.513 103.532 Q 94.539 103.414 94.711 103.337 L 94.711 103.337 L 94.711 103.337 Q 94.861 103.266 94.718 103.2 L 94.718 103.2 L 94.718 103.2 Q 94.575 103.133 94.423 102.996 L 94.423 102.996 L 94.423 102.996 Q 94.271 102.858 94.237 102.587 L 94.237 102.587 L 94.237 102.587 Q 94.203 102.316 94.616 101.822 L 94.616 101.822 L 94.616 101.822 Q 94.816 101.515 95.383 100.963 L 95.383 100.963 L 95.383 100.963 Q 95.949 100.41 96.76 99.696 L 96.76 99.696 L 96.76 99.696 Q 96.473 97.872 96.391 96.684 L 96.391 96.684 L 96.391 96.684 Q 96.31 95.496 96.436 95.188 L 96.436 95.188 L 96.436 95.188 Q 96.514 95.041 96.532 94.938 L 96.532 94.938 L 96.532 94.938 Q 96.549 94.835 96.573 94.754 L 96.573 94.754 L 96.573 94.754 Q 96.598 94.673 96.651 94.607 L 96.651 94.607 L 96.651 94.607 Q 96.705 94.542 96.87 94.442 L 96.87 94.442 L 96.87 94.442 Q 97.021 94.372 97.16 94.428 L 97.16 94.428 L 97.16 94.428 Q 97.299 94.483 97.445 94.598 L 97.445 94.598 L 97.445 94.598 Q 97.59 94.713 97.743 94.813 L 97.743 94.813 L 97.743 94.813 Q 97.897 94.913 98.06 94.888 L 98.06 94.888 L 98.06 94.888 Q 98.388 94.837 98.664 95.059 L 98.664 95.059 L 98.664 95.059 Q 98.94 95.281 99.073 95.877 Z  M 104.712 98.933 L 104.712 98.933 L 104.712 98.933 Q 103.704 99.241 102.629 99.815 L 102.629 99.815 L 102.629 99.815 Q 101.554 100.388 100.322 101.328 L 100.322 101.328 L 102.891 111.179 L 102.891 111.179 Q 103.113 111.185 103.363 111.121 L 103.363 111.121 L 103.363 111.121 Q 103.613 111.057 103.927 110.961 L 103.927 110.961 L 103.927 110.961 Q 104.667 110.735 105.58 110.235 L 105.58 110.235 L 105.58 110.235 Q 106.493 109.736 107.375 109.013 L 107.375 109.013 L 107.375 109.013 Q 108.257 108.29 109.062 107.395 L 109.062 107.395 L 109.062 107.395 Q 109.867 106.499 110.401 105.478 L 110.401 105.478 L 110.401 105.478 Q 110.934 104.458 111.11 103.35 L 111.11 103.35 L 111.11 103.35 Q 111.287 102.242 110.96 101.092 L 110.96 101.092 L 110.96 101.092 Q 110.777 100.413 110.25 99.851 L 110.25 99.851 L 110.25 99.851 Q 109.723 99.289 108.919 98.946 L 108.919 98.946 L 108.919 98.946 Q 108.116 98.604 107.053 98.573 L 107.053 98.573 L 107.053 98.573 Q 105.99 98.543 104.712 98.933 Z  M 127.438 92.109 L 127.438 92.109 L 127.438 92.109 Q 127.536 92.782 127.552 93.458 L 127.552 93.458 L 127.552 93.458 Q 127.567 94.134 127.49 94.756 L 127.49 94.756 L 127.49 94.756 Q 127.412 95.378 127.231 95.887 L 127.231 95.887 L 127.231 95.887 Q 127.049 96.396 126.777 96.732 L 126.777 96.732 L 126.777 96.732 Q 126.542 97.013 126.381 97.042 L 126.381 97.042 L 126.381 97.042 Q 126.219 97.071 126.099 96.998 L 126.099 96.998 L 126.099 96.998 Q 125.978 96.924 125.888 96.822 L 125.888 96.822 L 125.888 96.822 Q 125.798 96.719 125.678 96.717 L 125.678 96.717 L 125.678 96.717 Q 125.582 96.711 125.438 96.772 L 125.438 96.772 L 125.438 96.772 Q 125.295 96.834 125.141 96.838 L 125.141 96.838 L 125.141 96.838 Q 124.987 96.843 124.833 96.716 L 124.833 96.716 L 124.833 96.716 Q 124.678 96.589 124.561 96.205 L 124.561 96.205 L 124.561 96.205 Q 124.435 95.776 124.388 95.058 L 124.388 95.058 L 124.388 95.058 Q 124.341 94.34 124.22 93.671 L 124.22 93.671 L 124.22 93.671 Q 124.111 93.071 123.911 92.691 L 123.911 92.691 L 123.911 92.691 Q 123.71 92.31 123.388 92.369 L 123.388 92.369 L 123.388 92.369 Q 123.226 92.398 122.867 92.714 L 122.867 92.714 L 122.867 92.714 Q 122.507 93.029 122.165 93.901 L 122.165 93.901 L 122.165 93.901 Q 121.823 94.773 121.609 96.349 L 121.609 96.349 L 121.609 96.349 Q 121.395 97.924 121.544 100.446 L 121.544 100.446 L 121.544 100.446 Q 122.122 103.628 122.52 105.557 L 122.52 105.557 L 122.52 105.557 Q 122.919 107.485 123.116 108.569 L 123.116 108.569 L 123.116 108.569 Q 123.283 109.492 123.308 109.892 L 123.308 109.892 L 123.308 109.892 Q 123.333 110.292 123.17 110.441 L 123.17 110.441 L 123.17 110.441 Q 123.067 110.531 122.752 110.696 L 122.752 110.696 L 122.752 110.696 Q 122.436 110.86 122.072 111.022 L 122.072 111.022 L 122.072 111.022 Q 121.709 111.183 121.375 111.315 L 121.375 111.315 L 121.375 111.315 Q 121.042 111.447 120.946 111.441 L 120.946 111.441 L 120.946 111.441 Q 120.872 111.43 120.665 111.337 L 120.665 111.337 L 120.665 111.337 Q 120.457 111.244 120.228 111.095 L 120.228 111.095 L 120.228 111.095 Q 119.998 110.946 119.801 110.779 L 119.801 110.779 L 119.801 110.779 Q 119.604 110.613 119.556 110.479 L 119.556 110.479 L 119.556 110.479 Q 119.468 110.256 119.331 109.436 L 119.331 109.436 L 119.331 109.436 Q 119.193 108.615 118.995 107.46 L 118.995 107.46 L 118.995 107.46 Q 118.797 106.305 118.571 104.928 L 118.571 104.928 L 118.571 104.928 Q 118.345 103.552 118.098 102.192 L 118.098 102.192 L 118.098 102.192 Q 117.938 101.315 117.801 100.233 L 117.801 100.233 L 117.801 100.233 Q 117.664 99.15 117.544 98.028 L 117.544 98.028 L 117.544 98.028 Q 117.423 96.907 117.323 95.829 L 117.323 95.829 L 117.323 95.829 Q 117.222 94.752 117.15 93.895 L 117.15 93.895 L 117.15 93.895 Q 117.078 93.039 117.033 92.464 L 117.033 92.464 L 117.033 92.464 Q 116.988 91.888 116.99 91.769 L 116.99 91.769 L 116.99 91.769 Q 116.979 91.58 117.137 91.599 L 117.137 91.599 L 117.137 91.599 Q 117.296 91.618 117.49 91.702 L 117.49 91.702 L 117.49 91.702 Q 117.684 91.786 117.839 91.853 L 117.839 91.853 L 117.839 91.853 Q 117.994 91.92 118.023 91.819 L 118.023 91.819 L 118.023 91.819 Q 118.032 91.603 118.359 91.699 L 118.359 91.699 L 118.359 91.699 Q 118.686 91.794 118.973 91.932 L 118.973 91.932 L 118.973 91.932 Q 119.086 92.031 119.227 92.089 L 119.227 92.089 L 119.227 92.089 Q 119.369 92.146 119.507 92.252 L 119.507 92.252 L 119.507 92.252 Q 119.646 92.358 119.764 92.551 L 119.764 92.551 L 119.764 92.551 Q 119.882 92.744 119.945 93.09 L 119.945 93.09 L 119.945 93.09 Q 120.004 93.413 120.167 94.05 L 120.167 94.05 L 120.167 94.05 Q 120.331 94.687 120.559 95.551 L 120.559 95.551 L 120.559 95.551 Q 120.662 94.675 120.852 93.687 L 120.852 93.687 L 120.852 93.687 Q 121.042 92.7 121.409 91.835 L 121.409 91.835 L 121.409 91.835 Q 121.776 90.971 122.375 90.337 L 122.375 90.337 L 122.375 90.337 Q 122.975 89.704 123.943 89.528 L 123.943 89.528 L 123.943 89.528 Q 124.474 89.432 125.042 89.543 L 125.042 89.543 L 125.042 89.543 Q 125.61 89.654 126.11 89.98 L 126.11 89.98 L 126.11 89.98 Q 126.61 90.306 126.968 90.837 L 126.968 90.837 L 126.968 90.837 Q 127.327 91.367 127.438 92.109 Z  M 146.407 98.225 L 146.407 98.225 L 146.407 98.225 Q 146.435 98.481 146.496 98.828 L 146.496 98.828 L 146.496 98.828 Q 146.557 99.175 146.605 99.618 L 146.605 99.618 L 146.605 99.618 Q 146.666 100.177 146.593 101.022 L 146.593 101.022 L 146.593 101.022 Q 146.519 101.867 146.256 102.815 L 146.256 102.815 L 146.256 102.815 Q 145.994 103.763 145.487 104.737 L 145.487 104.737 L 145.487 104.737 Q 144.979 105.711 144.172 106.53 L 144.172 106.53 L 144.172 106.53 Q 143.365 107.348 142.214 107.933 L 142.214 107.933 L 142.214 107.933 Q 141.064 108.517 139.526 108.684 L 139.526 108.684 L 139.526 108.684 Q 138.151 108.833 136.661 108.464 L 136.661 108.464 L 136.661 108.464 Q 135.171 108.095 133.875 107.116 L 133.875 107.116 L 133.875 107.116 Q 132.578 106.137 131.635 104.506 L 131.635 104.506 L 131.635 104.506 Q 130.692 102.876 130.434 100.499 L 130.434 100.499 L 130.434 100.499 Q 130.272 99.008 130.5 97.522 L 130.5 97.522 L 130.5 97.522 Q 130.728 96.035 131.23 94.684 L 131.23 94.684 L 131.23 94.684 Q 131.732 93.333 132.488 92.155 L 132.488 92.155 L 132.488 92.155 Q 133.244 90.977 134.127 90.091 L 134.127 90.091 L 134.127 90.091 Q 135.009 89.206 135.998 88.651 L 135.998 88.651 L 135.998 88.651 Q 136.987 88.095 137.965 87.989 L 137.965 87.989 L 137.965 87.989 Q 139.666 87.805 140.831 88.221 L 140.831 88.221 L 140.831 88.221 Q 141.996 88.637 142.735 89.358 L 142.735 89.358 L 142.735 89.358 Q 143.473 90.08 143.838 90.948 L 143.838 90.948 L 143.838 90.948 Q 144.203 91.816 144.282 92.538 L 144.282 92.538 L 144.282 92.538 Q 144.357 93.237 144.117 94.171 L 144.117 94.171 L 144.117 94.171 Q 143.876 95.105 143.195 95.992 L 143.195 95.992 L 143.195 95.992 Q 142.513 96.879 141.337 97.561 L 141.337 97.561 L 141.337 97.561 Q 140.162 98.242 138.367 98.437 L 138.367 98.437 L 138.367 98.437 Q 137.412 98.54 136.626 98.354 L 136.626 98.354 L 136.626 98.354 Q 135.839 98.168 135.213 97.824 L 135.213 97.824 L 135.213 97.824 Q 134.586 97.479 134.126 97.046 L 134.126 97.046 L 134.126 97.046 Q 133.667 96.612 133.342 96.223 L 133.342 96.223 L 133.342 96.223 Q 133.079 97.713 133.289 99.647 L 133.289 99.647 L 133.289 99.647 Q 133.433 100.976 133.932 101.994 L 133.932 101.994 L 133.932 101.994 Q 134.432 103.013 135.188 103.685 L 135.188 103.685 L 135.188 103.685 Q 135.945 104.357 136.92 104.652 L 136.92 104.652 L 136.92 104.652 Q 137.895 104.947 139.013 104.826 L 139.013 104.826 L 139.013 104.826 Q 140.411 104.674 141.408 104.083 L 141.408 104.083 L 141.408 104.083 Q 142.405 103.492 143.107 102.685 L 143.107 102.685 L 143.107 102.685 Q 143.809 101.878 144.288 100.965 L 144.288 100.965 L 144.288 100.965 Q 144.766 100.053 145.109 99.297 L 145.109 99.297 L 145.109 99.297 Q 145.451 98.541 145.715 98.041 L 145.715 98.041 L 145.715 98.041 Q 145.979 97.54 146.285 97.531 L 146.285 97.531 L 146.285 97.531 Q 146.425 97.516 146.45 97.749 L 146.45 97.749 L 146.45 97.749 Q 146.462 97.865 146.452 97.984 L 146.452 97.984 L 146.452 97.984 Q 146.441 98.103 146.407 98.225 Z  M 138.454 90.317 L 138.454 90.317 L 138.454 90.317 Q 138.034 90.363 137.389 90.61 L 137.389 90.61 L 137.389 90.61 Q 136.744 90.856 136.058 91.379 L 136.058 91.379 L 136.058 91.379 Q 135.372 91.901 134.732 92.737 L 134.732 92.737 L 134.732 92.737 Q 134.092 93.572 133.682 94.795 L 133.682 94.795 L 133.682 94.795 Q 133.991 94.597 134.223 94.454 L 134.223 94.454 L 134.223 94.454 Q 134.455 94.311 134.548 94.301 L 134.548 94.301 L 134.548 94.301 Q 134.594 94.296 134.698 94.379 L 134.698 94.379 L 134.698 94.379 Q 135.332 95.229 136.178 95.527 L 136.178 95.527 L 136.178 95.527 Q 137.023 95.824 138.025 95.715 L 138.025 95.715 L 138.025 95.715 Q 138.817 95.629 139.359 95.3 L 139.359 95.3 L 139.359 95.3 Q 139.901 94.97 140.228 94.51 L 140.228 94.51 L 140.228 94.51 Q 140.556 94.05 140.665 93.531 L 140.665 93.531 L 140.665 93.531 Q 140.773 93.013 140.72 92.523 L 140.72 92.523 L 140.72 92.523 Q 140.607 91.475 139.996 90.846 L 139.996 90.846 L 139.996 90.846 Q 139.386 90.216 138.454 90.317 Z  M 173.689 105.033 L 173.689 105.033 L 173.689 105.033 Q 173.759 105.221 173.793 105.338 L 173.793 105.338 L 173.793 105.338 Q 173.828 105.455 173.827 105.573 L 173.827 105.573 L 173.827 105.573 Q 173.826 105.784 173.65 105.818 L 173.65 105.818 L 173.65 105.818 Q 173.474 105.852 173.287 105.898 L 173.287 105.898 L 173.287 105.898 Q 173.24 105.921 173.192 106.12 L 173.192 106.12 L 173.192 106.12 Q 173.144 106.319 173.061 106.553 L 173.061 106.553 L 173.061 106.553 Q 172.978 106.787 172.801 106.974 L 172.801 106.974 L 172.801 106.974 Q 172.624 107.16 172.32 107.159 L 172.32 107.159 L 172.32 107.159 Q 171.336 107.084 170.775 106.718 L 170.775 106.718 L 170.775 106.718 Q 170.214 106.352 169.936 105.717 L 169.936 105.717 L 169.936 105.717 Q 169.658 105.083 169.592 104.204 L 169.592 104.204 L 169.592 104.204 Q 169.526 103.325 169.531 102.247 L 169.531 102.247 L 169.531 102.247 Q 169.538 100.981 169.65 99.599 L 169.65 99.599 L 169.65 99.599 Q 169.762 98.217 169.909 96.905 L 169.909 96.905 L 169.909 96.905 Q 170.056 95.593 170.168 94.433 L 170.168 94.433 L 170.168 94.433 Q 170.279 93.274 170.283 92.453 L 170.283 92.453 L 170.283 92.453 Q 170.289 91.258 170.093 90.601 L 170.093 90.601 L 170.093 90.601 Q 169.897 89.944 169.545 89.942 L 169.545 89.942 L 169.545 89.942 Q 169.381 89.941 168.697 90.91 L 168.697 90.91 L 168.697 90.91 Q 168.012 91.88 167.053 93.844 L 167.053 93.844 L 167.053 93.844 Q 166.094 95.808 164.99 98.779 L 164.99 98.779 L 164.99 98.779 Q 163.885 101.75 162.881 105.753 L 162.881 105.753 L 162.881 105.753 Q 162.833 105.917 162.832 106.104 L 162.832 106.104 L 162.832 106.104 Q 162.832 106.292 162.807 106.444 L 162.807 106.444 L 162.807 106.444 Q 162.783 106.596 162.701 106.701 L 162.701 106.701 L 162.701 106.701 Q 162.618 106.806 162.454 106.806 L 162.454 106.806 L 162.454 106.806 Q 162.126 106.804 161.939 106.674 L 161.939 106.674 L 161.939 106.674 Q 161.752 106.544 161.612 106.391 L 161.612 106.391 L 161.612 106.391 Q 161.472 106.238 161.356 106.109 L 161.356 106.109 L 161.356 106.109 Q 161.239 105.979 161.052 105.978 L 161.052 105.978 L 161.052 105.978 Q 160.982 105.978 160.934 106.071 L 160.934 106.071 L 160.934 106.071 Q 160.887 106.165 160.816 106.294 L 160.816 106.294 L 160.816 106.294 Q 160.745 106.422 160.651 106.515 L 160.651 106.515 L 160.651 106.515 Q 160.557 106.609 160.392 106.608 L 160.392 106.608 L 160.392 106.608 Q 160.252 106.607 160.088 106.548 L 160.088 106.548 L 160.088 106.548 Q 159.924 106.488 159.761 106.241 L 159.761 106.241 L 159.761 106.241 Q 159.599 105.995 159.496 105.514 L 159.496 105.514 L 159.496 105.514 Q 159.392 105.033 159.396 104.212 L 159.396 104.212 L 159.402 103.158 L 159.402 103.158 Q 159.403 102.83 159.477 102.138 L 159.477 102.138 L 159.477 102.138 Q 159.551 101.447 159.637 100.534 L 159.637 100.534 L 159.637 100.534 Q 159.724 99.62 159.835 98.554 L 159.835 98.554 L 159.835 98.554 Q 159.945 97.488 160.033 96.387 L 160.033 96.387 L 160.033 96.387 Q 160.12 95.286 160.184 94.232 L 160.184 94.232 L 160.184 94.232 Q 160.248 93.177 160.252 92.31 L 160.252 92.31 L 160.252 92.31 Q 160.265 89.662 159.609 89.658 L 159.609 89.658 L 159.609 89.658 Q 159.445 89.658 159.233 89.774 L 159.233 89.774 L 159.233 89.774 Q 159.022 89.89 158.727 90.252 L 158.727 90.252 L 158.727 90.252 Q 158.432 90.614 158.042 91.28 L 158.042 91.28 L 158.042 91.28 Q 157.652 91.946 157.166 93.057 L 157.166 93.057 L 157.166 93.057 Q 156.68 94.168 156.051 95.77 L 156.051 95.77 L 156.051 95.77 Q 155.422 97.372 154.661 99.619 L 154.661 99.619 L 154.661 99.619 Q 154.495 100.11 154.291 101.058 L 154.291 101.058 L 154.291 101.058 Q 154.087 102.006 153.918 102.99 L 153.918 102.99 L 153.918 102.99 Q 153.749 103.974 153.64 104.805 L 153.64 104.805 L 153.64 104.805 Q 153.53 105.637 153.529 105.894 L 153.529 105.894 L 153.529 105.894 Q 153.528 105.965 153.282 106.116 L 153.282 106.116 L 153.282 106.116 Q 153.035 106.267 152.706 106.406 L 152.706 106.406 L 152.706 106.406 Q 152.377 106.545 152.037 106.649 L 152.037 106.649 L 152.037 106.649 Q 151.696 106.752 151.509 106.752 L 151.509 106.752 L 151.509 106.752 Q 151.11 106.75 150.901 106.526 L 150.901 106.526 L 150.901 106.526 Q 150.691 106.302 150.588 105.704 L 150.588 105.704 L 150.588 105.704 Q 150.486 105.106 150.479 104.063 L 150.479 104.063 L 150.479 104.063 Q 150.473 103.02 150.481 101.379 L 150.481 101.379 L 150.481 101.379 Q 150.483 100.957 150.524 99.715 L 150.524 99.715 L 150.524 99.715 Q 150.565 98.473 150.667 96.857 L 150.667 96.857 L 150.667 96.857 Q 150.769 95.24 150.918 93.471 L 150.918 93.471 L 150.918 93.471 Q 151.067 91.702 151.262 90.227 L 151.262 90.227 L 151.262 90.227 Q 151.457 88.751 151.72 87.791 L 151.72 87.791 L 151.72 87.791 Q 151.982 86.832 152.31 86.833 L 152.31 86.833 L 152.31 86.833 Q 152.474 86.834 152.614 86.952 L 152.614 86.952 L 152.614 86.952 Q 152.754 87.07 152.871 87.199 L 152.871 87.199 L 152.871 87.199 Q 152.988 87.329 153.092 87.447 L 153.092 87.447 L 153.092 87.447 Q 153.197 87.564 153.314 87.565 L 153.314 87.565 L 153.314 87.565 Q 153.408 87.565 153.514 87.472 L 153.514 87.472 L 153.514 87.472 Q 153.62 87.379 153.703 87.25 L 153.703 87.25 L 153.703 87.25 Q 153.785 87.122 153.868 87.029 L 153.868 87.029 L 153.868 87.029 Q 153.95 86.935 153.997 86.935 L 153.997 86.935 L 153.997 86.935 Q 154.068 86.936 154.207 87.171 L 154.207 87.171 L 154.207 87.171 Q 154.347 87.406 154.474 87.723 L 154.474 87.723 L 154.474 87.723 Q 154.601 88.04 154.705 88.38 L 154.705 88.38 L 154.705 88.38 Q 154.809 88.721 154.808 88.908 L 154.808 88.908 L 154.808 88.908 Q 154.806 89.377 154.719 90.244 L 154.719 90.244 L 154.719 90.244 Q 154.633 91.111 154.522 92.153 L 154.522 92.153 L 154.522 92.153 Q 154.412 93.195 154.324 94.273 L 154.324 94.273 L 154.324 94.273 Q 154.237 95.351 154.233 96.265 L 154.233 96.265 L 154.232 96.359 L 154.232 96.359 Q 154.542 95.352 154.957 94.288 L 154.957 94.288 L 154.957 94.288 Q 155.373 93.224 155.87 92.206 L 155.87 92.206 L 155.87 92.206 Q 156.367 91.189 156.922 90.278 L 156.922 90.278 L 156.922 90.278 Q 157.478 89.367 158.09 88.69 L 158.09 88.69 L 158.09 88.69 Q 158.703 88.013 159.338 87.618 L 159.338 87.618 L 159.338 87.618 Q 159.973 87.223 160.629 87.226 L 160.629 87.226 L 160.629 87.226 Q 161.426 87.23 161.999 87.502 L 161.999 87.502 L 161.999 87.502 Q 162.571 87.775 162.921 88.257 L 162.921 88.257 L 162.921 88.257 Q 163.27 88.739 163.431 89.361 L 163.431 89.361 L 163.431 89.361 Q 163.592 89.983 163.588 90.686 L 163.588 90.686 L 163.588 90.686 Q 163.585 91.295 163.499 92.092 L 163.499 92.092 L 163.499 92.092 Q 163.413 92.888 163.315 93.86 L 163.315 93.86 L 163.315 93.86 Q 163.216 94.833 163.128 95.992 L 163.128 95.992 L 163.128 95.992 Q 163.041 97.152 163.011 98.511 L 163.011 98.511 L 163.011 98.511 Q 163.319 97.669 163.759 96.488 L 163.759 96.488 L 163.759 96.488 Q 164.198 95.306 164.732 94.043 L 164.732 94.043 L 164.732 94.043 Q 165.265 92.78 165.869 91.541 L 165.869 91.541 L 165.869 91.541 Q 166.473 90.302 167.087 89.32 L 167.087 89.32 L 167.087 89.32 Q 167.701 88.339 168.326 87.733 L 168.326 87.733 L 168.326 87.733 Q 168.95 87.126 169.512 87.129 L 169.512 87.129 L 169.512 87.129 Q 169.676 87.13 170.25 87.238 L 170.25 87.238 L 170.25 87.238 Q 170.824 87.347 171.467 87.549 L 171.467 87.549 L 171.467 87.549 Q 172.111 87.751 172.672 88.047 L 172.672 88.047 L 172.672 88.047 Q 173.233 88.343 173.418 88.719 L 173.418 88.719 L 173.418 88.719 Q 173.604 89.118 173.753 89.834 L 173.753 89.834 L 173.753 89.834 Q 173.902 90.549 173.896 91.745 L 173.896 91.745 L 173.896 91.745 Q 173.89 92.799 173.731 94.263 L 173.731 94.263 L 173.731 94.263 Q 173.571 95.727 173.186 97.788 L 173.186 97.788 L 173.186 97.788 Q 173.066 98.467 173.027 99.1 L 173.027 99.1 L 173.027 99.1 Q 172.989 99.732 172.986 100.342 L 172.986 100.342 L 172.986 100.342 Q 172.982 101.232 173.06 102.006 L 173.06 102.006 L 173.06 102.006 Q 173.138 102.78 173.252 103.39 L 173.252 103.39 L 173.252 103.39 Q 173.366 104 173.481 104.434 L 173.481 104.434 L 173.481 104.434 Q 173.597 104.868 173.689 105.033 Z  M 186.803 77.724 L 186.803 77.724 L 186.803 77.724 Q 186.775 78.193 186.655 78.757 L 186.655 78.757 L 186.655 78.757 Q 186.535 79.322 186.349 79.844 L 186.349 79.844 L 186.349 79.844 Q 186.163 80.366 185.896 80.761 L 185.896 80.761 L 185.896 80.761 Q 185.629 81.157 185.308 81.287 L 185.308 81.287 L 185.308 81.287 Q 184.496 81.6 183.914 81.536 L 183.914 81.536 L 183.914 81.536 Q 183.448 81.486 183.134 81.228 L 183.134 81.228 L 183.134 81.228 Q 182.82 80.97 182.524 80.655 L 182.524 80.655 L 182.524 80.655 Q 182.099 80.232 181.85 79.592 L 181.85 79.592 L 181.85 79.592 Q 181.601 78.952 181.662 78.392 L 181.662 78.392 L 181.662 78.392 Q 181.71 77.95 181.93 77.325 L 181.93 77.325 L 181.93 77.325 Q 182.151 76.701 182.45 76.12 L 182.45 76.12 L 182.45 76.12 Q 182.749 75.54 183.071 75.068 L 183.071 75.068 L 183.071 75.068 Q 183.393 74.596 183.67 74.437 L 183.67 74.437 L 183.67 74.437 Q 184.101 74.154 184.443 74.156 L 184.443 74.156 L 184.443 74.156 Q 184.785 74.158 184.987 74.25 L 184.987 74.25 L 184.987 74.25 Q 185.487 74.422 185.864 74.64 L 185.864 74.64 L 185.864 74.64 Q 186.241 74.858 186.47 75.248 L 186.47 75.248 L 186.47 75.248 Q 186.699 75.638 186.775 76.236 L 186.775 76.236 L 186.775 76.236 Q 186.852 76.834 186.803 77.724 Z  M 183.763 87.932 L 183.763 87.932 L 183.763 87.932 Q 183.866 88.061 183.854 88.72 L 183.854 88.72 L 183.854 88.72 Q 183.841 89.379 183.728 90.427 L 183.728 90.427 L 183.728 90.427 Q 183.652 91.127 183.54 91.94 L 183.54 91.94 L 183.54 91.94 Q 183.428 92.753 183.3 93.611 L 183.3 93.611 L 183.3 93.611 Q 183.172 94.469 183.03 95.338 L 183.03 95.338 L 183.03 95.338 Q 182.889 96.207 182.78 96.996 L 182.78 96.996 L 182.78 96.996 Q 182.568 98.294 182.437 99.399 L 182.437 99.399 L 182.437 99.399 Q 182.305 100.505 182.194 101.53 L 182.194 101.53 L 182.194 101.53 Q 182.047 102.881 181.949 104.002 L 181.949 104.002 L 181.949 104.002 Q 181.851 105.123 181.77 105.869 L 181.77 105.869 L 181.77 105.869 Q 181.682 106.685 181.577 107.109 L 181.577 107.109 L 181.577 107.109 Q 181.472 107.534 181.281 107.56 L 181.281 107.56 L 181.281 107.56 Q 181.066 107.584 180.91 107.721 L 180.91 107.721 L 180.91 107.721 Q 180.753 107.857 180.622 107.984 L 180.622 107.984 L 180.622 107.984 Q 180.49 108.111 180.327 108.2 L 180.327 108.2 L 180.327 108.2 Q 180.164 108.288 179.96 108.219 L 179.96 108.219 L 179.96 108.219 Q 179.846 108.183 179.586 107.966 L 179.586 107.966 L 179.586 107.966 Q 179.327 107.749 179.041 107.447 L 179.041 107.447 L 179.041 107.447 Q 178.756 107.145 178.514 106.765 L 178.514 106.765 L 178.514 106.765 Q 178.272 106.386 178.22 106.003 L 178.22 106.003 L 178.22 106.003 Q 178.193 105.811 178.219 105.248 L 178.219 105.248 L 178.219 105.248 Q 178.245 104.685 178.307 103.89 L 178.307 103.89 L 178.307 103.89 Q 178.37 103.096 178.451 102.126 L 178.451 102.126 L 178.451 102.126 Q 178.533 101.157 178.629 100.165 L 178.629 100.165 L 178.629 100.165 Q 178.724 99.173 178.828 98.218 L 178.828 98.218 L 178.828 98.218 Q 178.932 97.263 179.015 96.494 L 179.015 96.494 L 179.015 96.494 Q 179.144 95.306 179.359 94.079 L 179.359 94.079 L 179.359 94.079 Q 179.575 92.853 179.796 91.793 L 179.796 91.793 L 179.796 91.793 Q 180.017 90.732 180.209 89.94 L 180.209 89.94 L 180.209 89.94 Q 180.401 89.147 180.483 88.826 L 180.483 88.826 L 180.483 88.826 Q 180.637 88.277 180.776 87.974 L 180.776 87.974 L 180.776 87.974 Q 180.915 87.671 181.058 87.545 L 181.058 87.545 L 181.058 87.545 Q 181.201 87.419 181.333 87.398 L 181.333 87.398 L 181.333 87.398 Q 181.465 87.377 181.608 87.369 L 181.608 87.369 L 181.608 87.369 Q 181.892 87.352 182.251 87.415 L 182.251 87.415 L 182.251 87.415 Q 182.61 87.477 182.931 87.559 L 182.931 87.559 L 182.931 87.559 Q 183.252 87.641 183.488 87.749 L 183.488 87.749 L 183.488 87.749 Q 183.724 87.857 183.763 87.932 Z " fill-rule="evenodd" fill="rgb(0,0,0)"/></g></svg>